SplineFontDB: 3.2
FontName: FixedsysEvolution
FullName: FixedsysEvolution
FamilyName: FixedsysEvolution
Weight: Regular
Copyright: Copyright (c) 2023, ssrlive
UComments: "2023-2-26: Created with FontForge (http://fontforge.org)"
Version: 001.000
ItalicAngle: 0
UnderlinePosition: -100
UnderlineWidth: 50
Ascent: 800
Descent: 200
InvalidEm: 0
LayerCount: 2
Layer: 0 0 "Back" 1
Layer: 1 0 "Fore" 0
XUID: [1021 872 -1323775843 1822]
StyleMap: 0x0000
FSType: 0
OS2Version: 0
OS2_WeightWidthSlopeOnly: 0
OS2_UseTypoMetrics: 1
CreationTime: 1677404500
ModificationTime: 1678968965
PfmFamily: 17
TTFWeight: 400
TTFWidth: 5
LineGap: 90
VLineGap: 0
OS2TypoAscent: 0
OS2TypoAOffset: 1
OS2TypoDescent: 0
OS2TypoDOffset: 1
OS2TypoLinegap: 90
OS2WinAscent: 0
OS2WinAOffset: 1
OS2WinDescent: 0
OS2WinDOffset: 1
HheadAscent: 0
HheadAOffset: 1
HheadDescent: 0
HheadDOffset: 1
OS2Vendor: 'PfEd'
MarkAttachClasses: 1
DEI: 91125
LangName: 1033
Encoding: UnicodeFull
UnicodeInterp: tradchinese
NameList: AGL For New Fonts
DisplaySize: -48
AntiAlias: 1
FitToEm: 0
WinInfo: 0 29 12
BeginPrivate: 0
EndPrivate
TeXData: 1 0 0 346030 173015 115343 539268 1048576 115343 783286 444596 497025 792723 393216 433062 380633 303038 157286 324010 404750 52429 2506097 1059062 262144
BeginChars: 1114112 258

StartChar: dollar
Encoding: 36 36 0
Width: 500
Flags: HW
LayerCount: 2
Fore
SplineSet
250 738 m 1
 312 738 l 1
 312 675 l 1
 312 612 l 1
 344 612 l 1
 375 612 l 1
 375 581 l 1
 375 550 l 1
 406 550 l 1
 438 550 l 1
 438 519 l 1
 438 488 l 1
 375 488 l 1
 312 488 l 1
 312 519 l 1
 312 550 l 1
 250 550 l 1
 188 550 l 1
 188 488 l 1
 188 425 l 1
 219 425 l 1
 250 425 l 1
 250 394 l 1
 250 362 l 1
 281 362 l 1
 312 362 l 1
 312 331 l 1
 312 300 l 1
 344 300 l 1
 375 300 l 1
 375 269 l 1
 375 238 l 1
 406 238 l 1
 438 238 l 1
 438 175 l 1
 438 112 l 1
 406 112 l 1
 375 112 l 1
 375 81 l 1
 375 50 l 1
 344 50 l 1
 312 50 l 1
 312 -12 l 1
 312 -75 l 1
 250 -75 l 1
 188 -75 l 1
 188 -12 l 1
 188 50 l 1
 156 50 l 1
 125 50 l 1
 125 81 l 1
 125 112 l 1
 94 112 l 1
 62 112 l 1
 62 144 l 1
 62 175 l 1
 125 175 l 1
 188 175 l 1
 188 144 l 1
 188 112 l 1
 250 112 l 1
 312 112 l 1
 312 175 l 1
 312 238 l 1
 281 238 l 1
 250 238 l 1
 250 269 l 1
 250 300 l 1
 219 300 l 1
 188 300 l 1
 188 331 l 1
 188 362 l 1
 156 362 l 1
 125 362 l 1
 125 394 l 1
 125 425 l 1
 94 425 l 1
 62 425 l 1
 62 488 l 1
 62 550 l 1
 94 550 l 1
 125 550 l 1
 125 581 l 1
 125 612 l 1
 156 612 l 1
 188 612 l 1
 188 675 l 1
 188 738 l 1
 250 738 l 1
EndSplineSet
EndChar

StartChar: percent
Encoding: 37 37 1
Width: 500
Flags: HW
LayerCount: 2
Fore
SplineSet
165 675 m 1
 250 675 l 1
 250 644 l 1
 250 612 l 1
 281 612 l 1
 312 612 l 1
 312 550 l 1
 312 488 l 1
 344 488 l 1
 375 488 l 1
 375 519 l 1
 375 550 l 1
 406 550 l 1
 438 550 l 1
 438 488 l 1
 438 425 l 1
 406 425 l 1
 375 425 l 1
 375 394 l 1
 375 362 l 1
 344 362 l 1
 312 362 l 1
 312 331 l 1
 312 300 l 1
 281 300 l 1
 250 300 l 1
 250 269 l 1
 250 238 l 1
 336 238 l 1
 422 238 l 1
 422 206 l 1
 422 175 l 1
 449 175 l 1
 476 175 l 1
 476 112 l 1
 476 50 l 1
 449 50 l 1
 422 50 l 1
 422 19 l 1
 422 -12 l 1
 336 -12 l 1
 250 -12 l 1
 250 19 l 1
 250 50 l 1
 219 50 l 1
 188 50 l 1
 188 112 l 1
 188 175 l 1
 156 175 l 1
 125 175 l 1
 125 144 l 1
 125 112 l 1
 94 112 l 1
 62 112 l 1
 62 175 l 1
 62 238 l 1
 94 238 l 1
 125 238 l 1
 125 269 l 1
 125 300 l 1
 156 300 l 1
 188 300 l 1
 188 331 l 1
 188 362 l 1
 219 362 l 1
 250 362 l 1
 250 394 l 1
 250 425 l 1
 165 425 l 1
 79 425 l 1
 79 456 l 1
 79 488 l 1
 52 488 l 1
 25 488 l 1
 25 550 l 1
 25 612 l 1
 52 612 l 1
 79 612 l 1
 79 644 l 1
 79 675 l 1
 165 675 l 1
165 612 m 1
 134 612 l 1
 134 550 l 1
 134 488 l 1
 165 488 l 1
 197 488 l 1
 197 550 l 1
 197 612 l 1
 165 612 l 1
281 488 m 1
 250 488 l 1
 250 456 l 1
 250 425 l 1
 281 425 l 1
 312 425 l 1
 312 456 l 1
 312 488 l 1
 281 488 l 1
219 238 m 1
 188 238 l 1
 188 206 l 1
 188 175 l 1
 219 175 l 1
 250 175 l 1
 250 206 l 1
 250 238 l 1
 219 238 l 1
336 175 m 1
 304 175 l 1
 304 112 l 1
 304 50 l 1
 336 50 l 1
 367 50 l 1
 367 112 l 1
 367 175 l 1
 336 175 l 1
EndSplineSet
EndChar

StartChar: asciicircum
Encoding: 94 94 2
Width: 500
Flags: HW
LayerCount: 2
Fore
SplineSet
250 738 m 1
 312 738 l 1
 312 706 l 1
 312 675 l 1
 344 675 l 1
 375 675 l 1
 375 644 l 1
 375 612 l 1
 406 612 l 1
 438 612 l 1
 438 581 l 1
 438 550 l 1
 375 550 l 1
 312 550 l 1
 312 581 l 1
 312 612 l 1
 250 612 l 1
 188 612 l 1
 188 581 l 1
 188 550 l 1
 125 550 l 1
 62 550 l 1
 62 581 l 1
 62 612 l 1
 94 612 l 1
 125 612 l 1
 125 644 l 1
 125 675 l 1
 156 675 l 1
 188 675 l 1
 188 706 l 1
 188 738 l 1
 250 738 l 1
EndSplineSet
EndChar

StartChar: ampersand
Encoding: 38 38 3
Width: 500
Flags: HW
LayerCount: 2
Fore
SplineSet
209 612 m 1
 302 612 l 1
 302 581 l 1
 302 550 l 1
 334 550 l 1
 365 550 l 1
 365 488 l 1
 365 425 l 1
 334 425 l 1
 302 425 l 1
 302 394 l 1
 302 362 l 1
 240 362 l 1
 178 362 l 1
 178 238 l 1
 178 112 l 1
 240 112 l 1
 302 112 l 1
 302 175 l 1
 302 238 l 1
 271 238 l 1
 240 238 l 1
 240 269 l 1
 240 300 l 1
 352 300 l 1
 456 300 l 1
 456 269 l 1
 456 238 l 1
 425 238 l 1
 399 238 l 1
 399 175 l 1
 399 112 l 1
 425 112 l 1
 456 112 l 1
 456 81 l 1
 456 50 l 1
 399 50 l 1
 352 50 l 1
 352 81 l 1
 352 112 l 1
 321 112 l 1
 302 112 l 1
 302 81 l 1
 302 50 l 1
 209 50 l 1
 125 50 l 1
 125 81 l 1
 125 112 l 1
 94 112 l 1
 62 112 l 1
 62 238 l 1
 62 362 l 1
 94 362 l 1
 125 362 l 1
 125 394 l 1
 125 425 l 1
 94 425 l 1
 62 425 l 1
 62 488 l 1
 62 550 l 1
 94 550 l 1
 125 550 l 1
 125 581 l 1
 125 612 l 1
 209 612 l 1
209 550 m 1
 178 550 l 1
 178 488 l 1
 178 425 l 1
 209 425 l 1
 240 425 l 1
 240 488 l 1
 240 550 l 1
 209 550 l 1
EndSplineSet
EndChar

StartChar: asterisk
Encoding: 42 42 4
Width: 500
Flags: HW
LayerCount: 2
Fore
SplineSet
188 488 m 1
 250 488 l 1
 250 456 l 1
 250 425 l 1
 281 425 l 1
 312 425 l 1
 312 456 l 1
 312 488 l 1
 375 488 l 1
 438 488 l 1
 438 456 l 1
 438 425 l 1
 406 425 l 1
 375 425 l 1
 375 394 l 1
 375 362 l 1
 438 362 l 1
 500 362 l 1
 500 331 l 1
 500 300 l 1
 438 300 l 1
 375 300 l 1
 375 269 l 1
 375 238 l 1
 406 238 l 1
 438 238 l 1
 438 206 l 1
 438 175 l 1
 375 175 l 1
 312 175 l 1
 312 206 l 1
 312 238 l 1
 281 238 l 1
 250 238 l 1
 250 206 l 1
 250 175 l 1
 188 175 l 1
 125 175 l 1
 125 206 l 1
 125 238 l 1
 156 238 l 1
 188 238 l 1
 188 269 l 1
 188 300 l 1
 125 300 l 1
 62 300 l 1
 62 331 l 1
 62 362 l 1
 125 362 l 1
 188 362 l 1
 188 394 l 1
 188 425 l 1
 156 425 l 1
 125 425 l 1
 125 456 l 1
 125 488 l 1
 188 488 l 1
EndSplineSet
EndChar

StartChar: parenleft
Encoding: 40 40 5
Width: 500
Flags: HW
LayerCount: 2
Fore
SplineSet
312 612 m 1
 375 612 l 1
 375 581 l 1
 375 550 l 1
 344 550 l 1
 312 550 l 1
 312 488 l 1
 312 425 l 1
 281 425 l 1
 250 425 l 1
 250 269 l 1
 250 112 l 1
 281 112 l 1
 312 112 l 1
 312 50 l 1
 312 -12 l 1
 344 -12 l 1
 375 -12 l 1
 375 -44 l 1
 375 -75 l 1
 312 -75 l 1
 250 -75 l 1
 250 -44 l 1
 250 -12 l 1
 219 -12 l 1
 188 -12 l 1
 188 50 l 1
 188 112 l 1
 156 112 l 1
 125 112 l 1
 125 269 l 1
 125 425 l 1
 156 425 l 1
 188 425 l 1
 188 488 l 1
 188 550 l 1
 219 550 l 1
 250 550 l 1
 250 581 l 1
 250 612 l 1
 312 612 l 1
EndSplineSet
EndChar

StartChar: parenright
Encoding: 41 41 6
Width: 500
Flags: HW
LayerCount: 2
Fore
SplineSet
188 612 m 1
 250 612 l 1
 250 581 l 1
 250 550 l 1
 281 550 l 1
 312 550 l 1
 312 488 l 1
 312 425 l 1
 344 425 l 1
 375 425 l 1
 375 269 l 1
 375 112 l 1
 344 112 l 1
 312 112 l 1
 312 50 l 1
 312 -12 l 1
 281 -12 l 1
 250 -12 l 1
 250 -44 l 1
 250 -75 l 1
 188 -75 l 1
 125 -75 l 1
 125 -44 l 1
 125 -12 l 1
 156 -12 l 1
 188 -12 l 1
 188 50 l 1
 188 112 l 1
 219 112 l 1
 250 112 l 1
 250 269 l 1
 250 425 l 1
 219 425 l 1
 188 425 l 1
 188 488 l 1
 188 550 l 1
 156 550 l 1
 125 550 l 1
 125 581 l 1
 125 612 l 1
 188 612 l 1
EndSplineSet
EndChar

StartChar: underscore
Encoding: 95 95 7
Width: 500
Flags: HW
LayerCount: 2
Fore
SplineSet
250 -75 m 1
 500 -75 l 1
 500 -106 l 1
 500 -138 l 1
 250 -138 l 1
 0 -138 l 1
 0 -106 l 1
 0 -75 l 1
 250 -75 l 1
EndSplineSet
EndChar

StartChar: plus
Encoding: 43 43 8
Width: 500
Flags: HW
LayerCount: 2
Fore
SplineSet
250 488 m 1
 312 488 l 1
 312 425 l 1
 312 362 l 1
 375 362 l 1
 438 362 l 1
 438 331 l 1
 438 300 l 1
 375 300 l 1
 312 300 l 1
 312 238 l 1
 312 175 l 1
 250 175 l 1
 188 175 l 1
 188 238 l 1
 188 300 l 1
 125 300 l 1
 62 300 l 1
 62 331 l 1
 62 362 l 1
 125 362 l 1
 188 362 l 1
 188 425 l 1
 188 488 l 1
 250 488 l 1
EndSplineSet
EndChar

StartChar: braceleft
Encoding: 123 123 9
Width: 500
Flags: HW
LayerCount: 2
Fore
SplineSet
312 612 m 1
 375 612 l 1
 375 581 l 1
 375 550 l 1
 344 550 l 1
 312 550 l 1
 312 456 l 1
 312 362 l 1
 281 362 l 1
 250 362 l 1
 250 331 l 1
 250 300 l 1
 219 300 l 1
 188 300 l 1
 188 269 l 1
 188 238 l 1
 219 238 l 1
 250 238 l 1
 250 206 l 1
 250 175 l 1
 281 175 l 1
 312 175 l 1
 312 81 l 1
 312 -12 l 1
 344 -12 l 1
 375 -12 l 1
 375 -44 l 1
 375 -75 l 1
 312 -75 l 1
 250 -75 l 1
 250 -44 l 1
 250 -12 l 1
 219 -12 l 1
 188 -12 l 1
 188 81 l 1
 188 175 l 1
 156 175 l 1
 125 175 l 1
 125 206 l 1
 125 238 l 1
 94 238 l 1
 62 238 l 1
 62 269 l 1
 62 300 l 1
 94 300 l 1
 125 300 l 1
 125 331 l 1
 125 362 l 1
 156 362 l 1
 188 362 l 1
 188 456 l 1
 188 550 l 1
 219 550 l 1
 250 550 l 1
 250 581 l 1
 250 612 l 1
 312 612 l 1
EndSplineSet
EndChar

StartChar: braceright
Encoding: 125 125 10
Width: 500
Flags: HW
LayerCount: 2
Fore
SplineSet
188 612 m 1
 250 612 l 1
 250 581 l 1
 250 550 l 1
 281 550 l 1
 312 550 l 1
 312 456 l 1
 312 362 l 1
 344 362 l 1
 375 362 l 1
 375 331 l 1
 375 300 l 1
 406 300 l 1
 438 300 l 1
 438 269 l 1
 438 238 l 1
 406 238 l 1
 375 238 l 1
 375 206 l 1
 375 175 l 1
 344 175 l 1
 312 175 l 1
 312 81 l 1
 312 -12 l 1
 281 -12 l 1
 250 -12 l 1
 250 -44 l 1
 250 -75 l 1
 188 -75 l 1
 125 -75 l 1
 125 -44 l 1
 125 -12 l 1
 156 -12 l 1
 188 -12 l 1
 188 81 l 1
 188 175 l 1
 219 175 l 1
 250 175 l 1
 250 206 l 1
 250 238 l 1
 281 238 l 1
 312 238 l 1
 312 269 l 1
 312 300 l 1
 281 300 l 1
 250 300 l 1
 250 331 l 1
 250 362 l 1
 219 362 l 1
 188 362 l 1
 188 456 l 1
 188 550 l 1
 156 550 l 1
 125 550 l 1
 125 581 l 1
 125 612 l 1
 188 612 l 1
EndSplineSet
EndChar

StartChar: bar
Encoding: 124 124 11
Width: 500
Flags: HW
LayerCount: 2
Fore
SplineSet
250 612 m 1
 312 612 l 1
 312 238 l 1
 312 -138 l 1
 250 -138 l 1
 188 -138 l 1
 188 238 l 1
 188 612 l 1
 250 612 l 1
EndSplineSet
EndChar

StartChar: equal
Encoding: 61 61 12
Width: 500
Flags: HW
LayerCount: 2
Fore
SplineSet
250 300 m 1
 438 300 l 1
 438 269 l 1
 438 238 l 1
 250 238 l 1
 62 238 l 1
 62 269 l 1
 62 300 l 1
 250 300 l 1
250 425 m 1
 438 425 l 1
 438 394 l 1
 438 362 l 1
 250 362 l 1
 62 362 l 1
 62 394 l 1
 62 425 l 1
 250 425 l 1
EndSplineSet
EndChar

StartChar: colon
Encoding: 58 58 13
Width: 500
Flags: HW
LayerCount: 2
Fore
SplineSet
281 175 m 1
 375 175 l 1
 375 112 l 1
 375 50 l 1
 281 50 l 1
 188 50 l 1
 188 112 l 1
 188 175 l 1
 281 175 l 1
281 488 m 1
 375 488 l 1
 375 425 l 1
 375 362 l 1
 281 362 l 1
 188 362 l 1
 188 425 l 1
 188 488 l 1
 281 488 l 1
EndSplineSet
EndChar

StartChar: quotedbl
Encoding: 34 34 14
Width: 500
Flags: HW
LayerCount: 2
Fore
SplineSet
375 612 m 1
 438 612 l 1
 438 519 l 1
 438 425 l 1
 375 425 l 1
 312 425 l 1
 312 519 l 1
 312 612 l 1
 375 612 l 1
125 612 m 1
 188 612 l 1
 188 519 l 1
 188 425 l 1
 125 425 l 1
 62 425 l 1
 62 519 l 1
 62 612 l 1
 125 612 l 1
EndSplineSet
EndChar

StartChar: less
Encoding: 60 60 15
Width: 500
Flags: HW
LayerCount: 2
Fore
SplineSet
375 612 m 1
 438 612 l 1
 438 581 l 1
 438 550 l 1
 406 550 l 1
 375 550 l 1
 375 519 l 1
 375 488 l 1
 344 488 l 1
 312 488 l 1
 312 456 l 1
 312 425 l 1
 281 425 l 1
 250 425 l 1
 250 394 l 1
 250 362 l 1
 219 362 l 1
 188 362 l 1
 188 331 l 1
 188 300 l 1
 219 300 l 1
 250 300 l 1
 250 269 l 1
 250 238 l 1
 281 238 l 1
 312 238 l 1
 312 206 l 1
 312 175 l 1
 344 175 l 1
 375 175 l 1
 375 144 l 1
 375 112 l 1
 406 112 l 1
 438 112 l 1
 438 81 l 1
 438 50 l 1
 375 50 l 1
 312 50 l 1
 312 81 l 1
 312 112 l 1
 281 112 l 1
 250 112 l 1
 250 144 l 1
 250 175 l 1
 219 175 l 1
 188 175 l 1
 188 206 l 1
 188 238 l 1
 156 238 l 1
 125 238 l 1
 125 269 l 1
 125 300 l 1
 94 300 l 1
 62 300 l 1
 62 331 l 1
 62 362 l 1
 94 362 l 1
 125 362 l 1
 125 394 l 1
 125 425 l 1
 156 425 l 1
 188 425 l 1
 188 456 l 1
 188 488 l 1
 219 488 l 1
 250 488 l 1
 250 519 l 1
 250 550 l 1
 281 550 l 1
 312 550 l 1
 312 581 l 1
 312 612 l 1
 375 612 l 1
EndSplineSet
EndChar

StartChar: greater
Encoding: 62 62 16
Width: 500
Flags: HW
LayerCount: 2
Fore
SplineSet
125 612 m 1
 188 612 l 1
 188 581 l 1
 188 550 l 1
 219 550 l 1
 250 550 l 1
 250 519 l 1
 250 488 l 1
 281 488 l 1
 312 488 l 1
 312 456 l 1
 312 425 l 1
 344 425 l 1
 375 425 l 1
 375 394 l 1
 375 362 l 1
 406 362 l 1
 438 362 l 1
 438 331 l 1
 438 300 l 1
 406 300 l 1
 375 300 l 1
 375 269 l 1
 375 238 l 1
 344 238 l 1
 312 238 l 1
 312 206 l 1
 312 175 l 1
 281 175 l 1
 250 175 l 1
 250 144 l 1
 250 112 l 1
 219 112 l 1
 188 112 l 1
 188 81 l 1
 188 50 l 1
 125 50 l 1
 62 50 l 1
 62 81 l 1
 62 112 l 1
 94 112 l 1
 125 112 l 1
 125 144 l 1
 125 175 l 1
 156 175 l 1
 188 175 l 1
 188 206 l 1
 188 238 l 1
 219 238 l 1
 250 238 l 1
 250 269 l 1
 250 300 l 1
 281 300 l 1
 312 300 l 1
 312 331 l 1
 312 362 l 1
 281 362 l 1
 250 362 l 1
 250 394 l 1
 250 425 l 1
 219 425 l 1
 188 425 l 1
 188 456 l 1
 188 488 l 1
 156 488 l 1
 125 488 l 1
 125 519 l 1
 125 550 l 1
 94 550 l 1
 62 550 l 1
 62 581 l 1
 62 612 l 1
 125 612 l 1
EndSplineSet
EndChar

StartChar: question
Encoding: 63 63 17
Width: 500
Flags: HW
LayerCount: 2
Fore
SplineSet
250 175 m 1
 312 175 l 1
 312 112 l 1
 312 50 l 1
 250 50 l 1
 188 50 l 1
 188 112 l 1
 188 175 l 1
 250 175 l 1
250 612 m 1
 375 612 l 1
 375 581 l 1
 375 550 l 1
 406 550 l 1
 438 550 l 1
 438 488 l 1
 438 425 l 1
 406 425 l 1
 375 425 l 1
 375 394 l 1
 375 362 l 1
 344 362 l 1
 312 362 l 1
 312 300 l 1
 312 238 l 1
 250 238 l 1
 188 238 l 1
 188 300 l 1
 188 362 l 1
 219 362 l 1
 250 362 l 1
 250 394 l 1
 250 425 l 1
 281 425 l 1
 312 425 l 1
 312 488 l 1
 312 550 l 1
 250 550 l 1
 188 550 l 1
 188 488 l 1
 188 425 l 1
 125 425 l 1
 62 425 l 1
 62 488 l 1
 62 550 l 1
 94 550 l 1
 125 550 l 1
 125 581 l 1
 125 612 l 1
 250 612 l 1
EndSplineSet
EndChar

StartChar: numbersign
Encoding: 35 35 18
Width: 500
Flags: HW
LayerCount: 2
Fore
SplineSet
163 612 m 1
 223 612 l 1
 223 550 l 1
 223 488 l 1
 254 488 l 1
 285 488 l 1
 285 550 l 1
 285 612 l 1
 348 612 l 1
 409 612 l 1
 409 550 l 1
 409 488 l 1
 440 488 l 1
 471 488 l 1
 471 456 l 1
 471 425 l 1
 440 425 l 1
 409 425 l 1
 409 331 l 1
 409 238 l 1
 440 238 l 1
 471 238 l 1
 471 206 l 1
 471 175 l 1
 440 175 l 1
 409 175 l 1
 409 112 l 1
 409 50 l 1
 348 50 l 1
 285 50 l 1
 285 112 l 1
 285 175 l 1
 254 175 l 1
 223 175 l 1
 223 112 l 1
 223 50 l 1
 163 50 l 1
 100 50 l 1
 100 112 l 1
 100 175 l 1
 69 175 l 1
 37 175 l 1
 37 206 l 1
 37 238 l 1
 69 238 l 1
 100 238 l 1
 100 331 l 1
 100 425 l 1
 69 425 l 1
 37 425 l 1
 37 456 l 1
 37 488 l 1
 69 488 l 1
 100 488 l 1
 100 550 l 1
 100 612 l 1
 163 612 l 1
254 425 m 1
 223 425 l 1
 223 331 l 1
 223 238 l 1
 254 238 l 1
 285 238 l 1
 285 331 l 1
 285 425 l 1
 254 425 l 1
EndSplineSet
EndChar

StartChar: slash
Encoding: 47 47 19
Width: 500
Flags: HW
LayerCount: 2
Fore
SplineSet
375 612 m 1
 438 612 l 1
 438 550 l 1
 438 488 l 1
 406 488 l 1
 375 488 l 1
 375 425 l 1
 375 362 l 1
 344 362 l 1
 312 362 l 1
 312 300 l 1
 312 238 l 1
 281 238 l 1
 250 238 l 1
 250 175 l 1
 250 112 l 1
 219 112 l 1
 188 112 l 1
 188 50 l 1
 188 -12 l 1
 125 -12 l 1
 62 -12 l 1
 62 50 l 1
 62 112 l 1
 94 112 l 1
 125 112 l 1
 125 175 l 1
 125 238 l 1
 156 238 l 1
 188 238 l 1
 188 300 l 1
 188 362 l 1
 219 362 l 1
 250 362 l 1
 250 425 l 1
 250 488 l 1
 281 488 l 1
 312 488 l 1
 312 550 l 1
 312 612 l 1
 375 612 l 1
EndSplineSet
EndChar

StartChar: n
Encoding: 110 110 20
Width: 500
Flags: HW
LayerCount: 2
Fore
SplineSet
219 488 m 1
 375 488 l 1
 375 456 l 1
 375 425 l 1
 406 425 l 1
 438 425 l 1
 438 238 l 1
 438 50 l 1
 375 50 l 1
 312 50 l 1
 312 238 l 1
 312 425 l 1
 250 425 l 1
 188 425 l 1
 188 238 l 1
 188 50 l 1
 125 50 l 1
 62 50 l 1
 62 269 l 1
 62 488 l 1
 219 488 l 1
EndSplineSet
EndChar

StartChar: u
Encoding: 117 117 21
Width: 500
Flags: HW
LayerCount: 2
Fore
SplineSet
125 488 m 1
 188 488 l 1
 188 300 l 1
 188 112 l 1
 250 112 l 1
 312 112 l 1
 312 300 l 1
 312 488 l 1
 375 488 l 1
 438 488 l 1
 438 269 l 1
 438 50 l 1
 281 50 l 1
 125 50 l 1
 125 81 l 1
 125 112 l 1
 94 112 l 1
 62 112 l 1
 62 300 l 1
 62 488 l 1
 125 488 l 1
EndSplineSet
EndChar

StartChar: m
Encoding: 109 109 22
Width: 500
Flags: HW
LayerCount: 2
Fore
SplineSet
219 488 m 1
 402 488 l 1
 407 483 l 0
 407 456 l 1
 407 430 l 1
 412 425 l 0
 438 425 l 1
 464 425 l 0
 469 420 l 1
 469 238 l 1
 469 55 l 0
 464 50 l 1
 407 50 l 1
 349 50 l 0
 344 55 l 1
 344 238 l 1
 344 425 l 1
 313 425 l 1
 281 425 l 1
 281 269 l 1
 281 112 l 1
 250 112 l 1
 219 112 l 1
 219 269 l 1
 219 425 l 1
 188 425 l 1
 157 425 l 1
 157 238 l 1
 157 55 l 0
 152 50 l 1
 94 50 l 1
 36 50 l 0
 31 55 l 1
 31 269 l 1
 31 483 l 0
 36 488 l 1
 219 488 l 1
EndSplineSet
EndChar

StartChar: b
Encoding: 98 98 23
Width: 500
Flags: HW
LayerCount: 2
Fore
SplineSet
125 612 m 1
 188 612 l 1
 188 550 l 1
 188 488 l 1
 281 488 l 1
 375 488 l 1
 375 456 l 1
 375 425 l 1
 406 425 l 1
 438 425 l 1
 438 269 l 1
 438 112 l 1
 406 112 l 1
 375 112 l 1
 375 81 l 1
 375 50 l 1
 219 50 l 1
 62 50 l 1
 62 331 l 1
 62 612 l 1
 125 612 l 1
250 425 m 1
 188 425 l 1
 188 269 l 1
 188 112 l 1
 250 112 l 1
 312 112 l 1
 312 269 l 1
 312 425 l 1
 250 425 l 1
EndSplineSet
EndChar

StartChar: e
Encoding: 101 101 24
Width: 500
Flags: HW
LayerCount: 2
Fore
SplineSet
250 488 m 1
 375 488 l 1
 375 456 l 1
 375 425 l 1
 406 425 l 1
 438 425 l 1
 438 331 l 1
 438 238 l 1
 312 238 l 1
 188 238 l 1
 188 175 l 1
 188 112 l 1
 281 112 l 1
 375 112 l 1
 375 81 l 1
 375 50 l 1
 250 50 l 1
 125 50 l 1
 125 81 l 1
 125 112 l 1
 94 112 l 1
 62 112 l 1
 62 269 l 1
 62 425 l 1
 94 425 l 1
 125 425 l 1
 125 456 l 1
 125 488 l 1
 250 488 l 1
250 425 m 1
 188 425 l 1
 188 362 l 1
 188 300 l 1
 250 300 l 1
 312 300 l 1
 312 362 l 1
 312 425 l 1
 250 425 l 1
EndSplineSet
EndChar

StartChar: r
Encoding: 114 114 25
Width: 500
Flags: HW
LayerCount: 2
Fore
SplineSet
125 488 m 1
 188 488 l 1
 188 425 l 1
 188 362 l 1
 219 362 l 1
 250 362 l 1
 250 394 l 1
 250 425 l 1
 281 425 l 1
 312 425 l 1
 312 456 l 1
 312 488 l 1
 375 488 l 1
 438 488 l 1
 438 425 l 1
 438 362 l 1
 344 362 l 1
 250 362 l 1
 250 331 l 1
 250 300 l 1
 219 300 l 1
 188 300 l 1
 188 175 l 1
 188 50 l 1
 125 50 l 1
 62 50 l 1
 62 269 l 1
 62 488 l 1
 125 488 l 1
EndSplineSet
EndChar

StartChar: s
Encoding: 115 115 26
Width: 500
Flags: HW
LayerCount: 2
Fore
SplineSet
281 488 m 1
 438 488 l 1
 438 456 l 1
 438 425 l 1
 312 425 l 1
 188 425 l 1
 188 362 l 1
 188 300 l 1
 281 300 l 1
 375 300 l 1
 375 269 l 1
 375 238 l 1
 406 238 l 1
 438 238 l 1
 438 175 l 1
 438 112 l 1
 406 112 l 1
 375 112 l 1
 375 81 l 1
 375 50 l 1
 219 50 l 1
 62 50 l 1
 62 81 l 1
 62 112 l 1
 188 112 l 1
 312 112 l 1
 312 175 l 1
 312 238 l 1
 219 238 l 1
 125 238 l 1
 125 269 l 1
 125 300 l 1
 94 300 l 1
 62 300 l 1
 62 362 l 1
 62 425 l 1
 94 425 l 1
 125 425 l 1
 125 456 l 1
 125 488 l 1
 281 488 l 1
EndSplineSet
EndChar

StartChar: i
Encoding: 105 105 27
Width: 500
Flags: HW
LayerCount: 2
Fore
SplineSet
188 488 m 1
 312 488 l 1
 312 300 l 1
 312 112 l 1
 375 112 l 1
 438 112 l 1
 438 81 l 1
 438 50 l 1
 250 50 l 1
 62 50 l 1
 62 81 l 1
 62 112 l 1
 125 112 l 1
 188 112 l 1
 188 269 l 1
 188 425 l 1
 125 425 l 1
 62 425 l 1
 62 456 l 1
 62 488 l 1
 188 488 l 1
250 675 m 1
 312 675 l 1
 312 612 l 1
 312 550 l 1
 250 550 l 1
 188 550 l 1
 188 612 l 1
 188 675 l 1
 250 675 l 1
EndSplineSet
EndChar

StartChar: g
Encoding: 103 103 28
Width: 500
Flags: HW
LayerCount: 2
Fore
SplineSet
281 488 m 1
 438 488 l 1
 438 206 l 1
 438 -75 l 1
 406 -75 l 1
 375 -75 l 1
 375 -106 l 1
 375 -138 l 1
 219 -138 l 1
 62 -138 l 1
 62 -106 l 1
 62 -75 l 1
 188 -75 l 1
 312 -75 l 1
 312 -12 l 1
 312 50 l 1
 219 50 l 1
 125 50 l 1
 125 81 l 1
 125 112 l 1
 94 112 l 1
 62 112 l 1
 62 269 l 1
 62 425 l 1
 94 425 l 1
 125 425 l 1
 125 456 l 1
 125 488 l 1
 281 488 l 1
250 425 m 1
 188 425 l 1
 188 269 l 1
 188 112 l 1
 250 112 l 1
 312 112 l 1
 312 269 l 1
 312 425 l 1
 250 425 l 1
EndSplineSet
EndChar

StartChar: at
Encoding: 64 64 29
Width: 500
Flags: HW
LayerCount: 2
Fore
SplineSet
249 612 m 1
 430 612 l 1
 430 581 l 1
 430 550 l 1
 438 550 l 1
 467 550 l 1
 467 362 l 1
 467 175 l 1
 367 175 l 1
 249 175 l 1
 249 206 l 1
 249 238 l 1
 218 238 l 1
 187 238 l 1
 187 300 l 1
 187 362 l 1
 218 362 l 1
 249 362 l 1
 249 394 l 1
 249 425 l 1
 304 425 l 1
 367 425 l 1
 367 488 l 1
 367 550 l 1
 249 550 l 1
 128 550 l 1
 128 331 l 1
 128 112 l 1
 304 112 l 1
 467 112 l 1
 467 81 l 1
 467 50 l 1
 280 50 l 1
 65 50 l 1
 65 81 l 1
 65 112 l 1
 55 112 l 1
 27 112 l 1
 27 331 l 1
 27 550 l 1
 55 550 l 1
 65 550 l 1
 65 581 l 1
 65 612 l 1
 249 612 l 1
336 362 m 1
 304 362 l 1
 304 300 l 1
 304 238 l 1
 336 238 l 1
 367 238 l 1
 367 300 l 1
 367 362 l 1
 336 362 l 1
EndSplineSet
EndChar

StartChar: exclam
Encoding: 33 33 30
Width: 500
Flags: HW
LayerCount: 2
Fore
SplineSet
250 175 m 1
 307 175 l 5
 312 170 l 0
 312 112 l 1
 312 55 l 1
 307 50 l 0
 250 50 l 1
 193 50 l 1
 188 55 l 0
 188 112 l 1
 188 170 l 0
 193 175 l 1
 250 175 l 1
250 612 m 1
 307 612 l 1
 312 607 l 0
 312 581 l 1
 312 555 l 1
 317 550 l 0
 344 550 l 1
 370 550 l 0
 375 545 l 1
 375 456 l 1
 375 367 l 1
 370 362 l 0
 344 362 l 1
 317 362 l 0
 312 357 l 1
 312 300 l 1
 312 243 l 0
 307 238 l 1
 250 238 l 1
 193 238 l 1
 188 243 l 0
 188 300 l 1
 188 357 l 1
 183 362 l 0
 156 362 l 1
 130 362 l 1
 125 367 l 0
 125 456 l 1
 125 544 l 0
 131 550 l 1
 156 550 l 1
 183 550 l 0
 188 555 l 1
 188 581 l 1
 188 607 l 0
 193 612 l 1
 250 612 l 1
EndSplineSet
EndChar

StartChar: asciitilde
Encoding: 126 126 31
Width: 500
Flags: HW
LayerCount: 2
Fore
SplineSet
156 612 m 1
 250 612 l 1
 250 581 l 1
 250 550 l 1
 281 550 l 1
 312 550 l 1
 312 519 l 1
 312 488 l 1
 344 488 l 1
 375 488 l 1
 375 519 l 1
 375 550 l 1
 406 550 l 1
 438 550 l 1
 438 581 l 1
 438 612 l 1
 469 612 l 1
 500 612 l 1
 500 550 l 1
 500 488 l 1
 469 488 l 1
 438 488 l 1
 438 456 l 1
 438 425 l 1
 344 425 l 1
 250 425 l 1
 250 456 l 1
 250 488 l 1
 219 488 l 1
 188 488 l 1
 188 519 l 1
 188 550 l 1
 156 550 l 1
 125 550 l 1
 125 519 l 1
 125 488 l 1
 94 488 l 1
 62 488 l 1
 62 456 l 1
 62 425 l 1
 31 425 l 1
 0 425 l 1
 0 488 l 1
 0 550 l 1
 31 550 l 1
 62 550 l 1
 62 581 l 1
 62 612 l 1
 156 612 l 1
EndSplineSet
EndChar

StartChar: period
Encoding: 46 46 32
Width: 500
Flags: HW
LayerCount: 2
Fore
SplineSet
281 175 m 1
 375 175 l 1
 375 112 l 1
 375 50 l 1
 281 50 l 1
 188 50 l 1
 188 112 l 1
 188 175 l 1
 281 175 l 1
EndSplineSet
EndChar

StartChar: comma
Encoding: 44 44 33
Width: 500
Flags: HW
LayerCount: 2
Fore
SplineSet
281 175 m 1
 375 175 l 1
 375 81 l 1
 375 -12 l 1
 344 -12 l 1
 312 -12 l 1
 312 -44 l 1
 312 -75 l 1
 250 -75 l 1
 188 -75 l 1
 188 -44 l 1
 188 -12 l 1
 219 -12 l 1
 250 -12 l 1
 250 19 l 1
 250 50 l 1
 219 50 l 1
 188 50 l 1
 188 112 l 1
 188 175 l 1
 281 175 l 1
EndSplineSet
EndChar

StartChar: quotesingle
Encoding: 39 39 34
Width: 500
Flags: HW
LayerCount: 2
Fore
SplineSet
250 612 m 1
 312 612 l 1
 312 519 l 1
 312 425 l 1
 250 425 l 1
 188 425 l 1
 188 519 l 1
 188 612 l 1
 250 612 l 1
EndSplineSet
EndChar

StartChar: d
Encoding: 100 100 35
Width: 500
Flags: HW
LayerCount: 2
Fore
SplineSet
375 612 m 1
 438 612 l 1
 438 331 l 1
 438 50 l 1
 281 50 l 1
 125 50 l 1
 125 81 l 1
 125 112 l 1
 94 112 l 1
 62 112 l 1
 62 269 l 1
 62 425 l 1
 94 425 l 1
 125 425 l 1
 125 456 l 1
 125 488 l 1
 219 488 l 1
 312 488 l 1
 312 550 l 1
 312 612 l 1
 375 612 l 1
250 425 m 1
 188 425 l 1
 188 269 l 1
 188 112 l 1
 250 112 l 1
 312 112 l 1
 312 269 l 1
 312 425 l 1
 250 425 l 1
EndSplineSet
EndChar

StartChar: a
Encoding: 97 97 36
Width: 500
Flags: HW
LayerCount: 2
Fore
SplineSet
250 488 m 1
 375 488 l 1
 375 456 l 1
 375 425 l 1
 406 425 l 1
 438 425 l 1
 438 238 l 1
 438 50 l 1
 281 50 l 1
 125 50 l 1
 125 81 l 1
 125 112 l 1
 94 112 l 1
 62 112 l 1
 62 175 l 1
 62 238 l 1
 94 238 l 1
 125 238 l 1
 125 269 l 1
 125 300 l 1
 219 300 l 1
 312 300 l 1
 312 362 l 1
 312 425 l 1
 219 425 l 1
 125 425 l 1
 125 456 l 1
 125 488 l 1
 250 488 l 1
250 238 m 1
 188 238 l 1
 188 175 l 1
 188 112 l 1
 250 112 l 1
 312 112 l 1
 312 175 l 1
 312 238 l 1
 250 238 l 1
EndSplineSet
EndChar

StartChar: f
Encoding: 102 102 37
Width: 500
Flags: HW
LayerCount: 2
Fore
SplineSet
312 612 m 1
 438 612 l 1
 438 581 l 1
 438 550 l 1
 344 550 l 1
 250 550 l 1
 250 456 l 1
 250 362 l 1
 344 362 l 1
 438 362 l 1
 438 331 l 1
 438 300 l 1
 344 300 l 1
 250 300 l 1
 250 175 l 1
 250 50 l 1
 188 50 l 1
 125 50 l 1
 125 175 l 1
 125 300 l 1
 94 300 l 1
 62 300 l 1
 62 331 l 1
 62 362 l 1
 94 362 l 1
 125 362 l 1
 125 456 l 1
 125 550 l 1
 156 550 l 1
 188 550 l 1
 188 581 l 1
 188 612 l 1
 312 612 l 1
EndSplineSet
EndChar

StartChar: semicolon
Encoding: 59 59 38
Width: 500
Flags: HW
LayerCount: 2
Fore
SplineSet
281 175 m 1
 375 175 l 1
 375 81 l 1
 375 -12 l 1
 344 -12 l 1
 312 -12 l 1
 312 -44 l 1
 312 -75 l 1
 250 -75 l 1
 188 -75 l 1
 188 -44 l 1
 188 -12 l 1
 219 -12 l 1
 250 -12 l 1
 250 19 l 1
 250 50 l 1
 219 50 l 1
 188 50 l 1
 188 112 l 1
 188 175 l 1
 281 175 l 1
281 488 m 1
 375 488 l 1
 375 425 l 1
 375 362 l 1
 281 362 l 1
 188 362 l 1
 188 425 l 1
 188 488 l 1
 281 488 l 1
EndSplineSet
EndChar

StartChar: backslash
Encoding: 92 92 39
Width: 500
Flags: HW
LayerCount: 2
Fore
SplineSet
125 612 m 1
 188 612 l 1
 188 550 l 1
 188 488 l 1
 219 488 l 1
 250 488 l 1
 250 425 l 1
 250 362 l 1
 281 362 l 1
 312 362 l 1
 312 300 l 1
 312 238 l 1
 344 238 l 1
 375 238 l 1
 375 175 l 1
 375 112 l 1
 406 112 l 1
 438 112 l 1
 438 50 l 1
 438 -12 l 1
 375 -12 l 1
 312 -12 l 1
 312 50 l 1
 312 112 l 1
 281 112 l 1
 250 112 l 1
 250 175 l 1
 250 238 l 1
 219 238 l 1
 188 238 l 1
 188 300 l 1
 188 362 l 1
 156 362 l 1
 125 362 l 1
 125 425 l 1
 125 488 l 1
 94 488 l 1
 62 488 l 1
 62 550 l 1
 62 612 l 1
 125 612 l 1
EndSplineSet
EndChar

StartChar: c
Encoding: 99 99 40
Width: 500
Flags: HW
LayerCount: 2
Fore
SplineSet
250 488 m 1
 375 488 l 1
 375 456 l 1
 375 425 l 1
 406 425 l 1
 438 425 l 1
 438 394 l 1
 438 362 l 1
 375 362 l 1
 312 362 l 1
 312 394 l 1
 312 425 l 1
 250 425 l 1
 188 425 l 1
 188 269 l 1
 188 112 l 1
 250 112 l 1
 312 112 l 1
 312 144 l 1
 312 175 l 1
 375 175 l 1
 438 175 l 1
 438 144 l 1
 438 112 l 1
 406 112 l 1
 375 112 l 1
 375 81 l 1
 375 50 l 1
 250 50 l 1
 125 50 l 1
 125 81 l 1
 125 112 l 1
 94 112 l 1
 62 112 l 1
 62 269 l 1
 62 425 l 1
 94 425 l 1
 125 425 l 1
 125 456 l 1
 125 488 l 1
 250 488 l 1
EndSplineSet
EndChar

StartChar: k
Encoding: 107 107 41
Width: 500
Flags: HW
LayerCount: 2
Fore
SplineSet
125 612 m 1
 188 612 l 1
 188 456 l 1
 188 300 l 1
 219 300 l 1
 250 300 l 1
 250 331 l 1
 250 362 l 1
 281 362 l 1
 312 362 l 1
 312 425 l 1
 312 488 l 1
 375 488 l 1
 438 488 l 1
 438 425 l 1
 438 362 l 1
 406 362 l 1
 375 362 l 1
 375 331 l 1
 375 300 l 1
 344 300 l 1
 312 300 l 1
 312 269 l 1
 312 238 l 1
 344 238 l 1
 375 238 l 1
 375 206 l 1
 375 175 l 1
 406 175 l 1
 438 175 l 1
 438 112 l 1
 438 50 l 1
 375 50 l 1
 312 50 l 1
 312 112 l 1
 312 175 l 1
 281 175 l 1
 250 175 l 1
 250 206 l 1
 250 238 l 1
 219 238 l 1
 188 238 l 1
 188 144 l 1
 188 50 l 1
 125 50 l 1
 62 50 l 1
 62 331 l 1
 62 612 l 1
 125 612 l 1
EndSplineSet
EndChar

StartChar: l
Encoding: 108 108 42
Width: 500
Flags: HW
LayerCount: 2
Fore
SplineSet
188 612 m 1
 312 612 l 1
 312 362 l 1
 312 112 l 1
 375 112 l 1
 438 112 l 1
 438 81 l 1
 438 50 l 1
 250 50 l 1
 62 50 l 1
 62 81 l 1
 62 112 l 1
 125 112 l 1
 188 112 l 1
 188 331 l 1
 188 550 l 1
 125 550 l 1
 62 550 l 1
 62 581 l 1
 62 612 l 1
 188 612 l 1
EndSplineSet
EndChar

StartChar: bracketright
Encoding: 93 93 43
Width: 500
Flags: HW
LayerCount: 2
Fore
SplineSet
250 612 m 1
 375 612 l 1
 375 238 l 1
 375 -138 l 1
 250 -138 l 1
 125 -138 l 1
 125 -106 l 1
 125 -75 l 1
 188 -75 l 1
 250 -75 l 1
 250 238 l 1
 250 550 l 1
 188 550 l 1
 125 550 l 1
 125 581 l 1
 125 612 l 1
 250 612 l 1
EndSplineSet
EndChar

StartChar: bracketleft
Encoding: 91 91 44
Width: 500
Flags: HW
LayerCount: 2
Fore
SplineSet
250 612 m 1
 375 612 l 1
 375 581 l 1
 375 550 l 1
 312 550 l 1
 250 550 l 1
 250 238 l 1
 250 -75 l 1
 312 -75 l 1
 375 -75 l 1
 375 -106 l 1
 375 -138 l 1
 250 -138 l 1
 125 -138 l 1
 125 238 l 1
 125 612 l 1
 250 612 l 1
EndSplineSet
EndChar

StartChar: grave
Encoding: 96 96 45
Width: 500
Flags: HW
LayerCount: 2
Fore
SplineSet
219 738 m 1
 312 738 l 1
 312 675 l 1
 312 612 l 1
 344 612 l 1
 375 612 l 1
 375 581 l 1
 375 550 l 1
 312 550 l 1
 250 550 l 1
 250 581 l 1
 250 612 l 1
 219 612 l 1
 188 612 l 1
 188 644 l 1
 188 675 l 1
 156 675 l 1
 125 675 l 1
 125 706 l 1
 125 738 l 1
 219 738 l 1
EndSplineSet
EndChar

StartChar: hyphen
Encoding: 45 45 46
Width: 500
Flags: HW
LayerCount: 2
Fore
SplineSet
250 362 m 1
 438 362 l 1
 438 331 l 1
 438 300 l 1
 250 300 l 1
 62 300 l 1
 62 331 l 1
 62 362 l 1
 250 362 l 1
EndSplineSet
EndChar

StartChar: one
Encoding: 49 49 47
Width: 500
Flags: HW
LayerCount: 2
Fore
SplineSet
312 612 m 1
 375 612 l 1
 375 331 l 1
 375 50 l 1
 312 50 l 1
 250 50 l 1
 250 238 l 1
 250 425 l 1
 156 425 l 1
 62 425 l 1
 62 456 l 1
 62 488 l 1
 125 488 l 1
 188 488 l 1
 188 519 l 1
 188 550 l 1
 219 550 l 1
 250 550 l 1
 250 581 l 1
 250 612 l 1
 312 612 l 1
EndSplineSet
EndChar

StartChar: two
Encoding: 50 50 48
Width: 500
Flags: HW
LayerCount: 2
Fore
SplineSet
250 612 m 1
 375 612 l 1
 375 581 l 1
 375 550 l 1
 406 550 l 1
 438 550 l 1
 438 456 l 1
 438 362 l 1
 406 362 l 1
 375 362 l 1
 375 331 l 1
 375 300 l 1
 344 300 l 1
 312 300 l 1
 312 269 l 1
 312 238 l 1
 281 238 l 1
 250 238 l 1
 250 206 l 1
 250 175 l 1
 219 175 l 1
 188 175 l 1
 188 144 l 1
 188 112 l 1
 312 112 l 1
 438 112 l 1
 438 81 l 1
 438 50 l 1
 250 50 l 1
 62 50 l 1
 62 112 l 1
 62 175 l 1
 94 175 l 1
 125 175 l 1
 125 206 l 1
 125 238 l 1
 156 238 l 1
 188 238 l 1
 188 269 l 1
 188 300 l 1
 219 300 l 1
 250 300 l 1
 250 331 l 1
 250 362 l 1
 281 362 l 1
 312 362 l 1
 312 456 l 1
 312 550 l 1
 250 550 l 1
 188 550 l 1
 188 488 l 1
 188 425 l 1
 125 425 l 1
 62 425 l 1
 62 488 l 1
 62 550 l 1
 94 550 l 1
 125 550 l 1
 125 581 l 1
 125 612 l 1
 250 612 l 1
EndSplineSet
EndChar

StartChar: three
Encoding: 51 51 49
Width: 500
Flags: HW
LayerCount: 2
Fore
SplineSet
250 612 m 1
 375 612 l 1
 375 581 l 1
 375 550 l 1
 406 550 l 1
 438 550 l 1
 438 456 l 1
 438 362 l 1
 406 362 l 1
 375 362 l 1
 375 331 l 1
 375 300 l 1
 406 300 l 1
 438 300 l 1
 438 206 l 1
 438 112 l 1
 406 112 l 1
 375 112 l 1
 375 81 l 1
 375 50 l 1
 250 50 l 1
 125 50 l 1
 125 81 l 1
 125 112 l 1
 94 112 l 1
 62 112 l 1
 62 175 l 1
 62 238 l 1
 125 238 l 1
 188 238 l 1
 188 175 l 1
 188 112 l 1
 250 112 l 1
 312 112 l 1
 312 206 l 1
 312 300 l 1
 250 300 l 1
 188 300 l 1
 188 331 l 1
 188 362 l 1
 250 362 l 1
 312 362 l 1
 312 456 l 1
 312 550 l 1
 250 550 l 1
 188 550 l 1
 188 488 l 1
 188 425 l 1
 125 425 l 1
 62 425 l 1
 62 488 l 1
 62 550 l 1
 94 550 l 1
 125 550 l 1
 125 581 l 1
 125 612 l 1
 250 612 l 1
EndSplineSet
EndChar

StartChar: four
Encoding: 52 52 50
Width: 500
Flags: HW
LayerCount: 2
Fore
SplineSet
165 612 m 5
 227 612 l 5
 227 456 l 5
 227 300 l 5
 196 300 l 5
 165 300 l 5
 165 269 l 5
 165 238 l 5
 227 238 l 5
 289 238 l 5
 289 362 l 5
 289 488 l 5
 352 488 l 5
 415 488 l 5
 415 362 l 5
 415 238 l 5
 446 238 l 5
 477 238 l 5
 477 206 l 5
 477 175 l 5
 446 175 l 5
 415 175 l 5
 415 112 l 5
 415 50 l 5
 352 50 l 5
 289 50 l 5
 289 112 l 5
 289 175 l 5
 165 175 l 5
 39 175 l 5
 39 238 l 5
 39 300 l 5
 71 300 l 5
 102 300 l 5
 102 456 l 5
 102 612 l 5
 165 612 l 5
EndSplineSet
EndChar

StartChar: five
Encoding: 53 53 51
Width: 500
Flags: HW
LayerCount: 2
Fore
SplineSet
250 612 m 1
 438 612 l 1
 438 581 l 1
 438 550 l 1
 312 550 l 1
 188 550 l 1
 188 456 l 1
 188 362 l 1
 281 362 l 1
 375 362 l 1
 375 331 l 1
 375 300 l 1
 406 300 l 1
 438 300 l 1
 438 238 l 1
 438 175 l 1
 406 175 l 1
 375 175 l 1
 375 144 l 1
 375 112 l 1
 344 112 l 1
 312 112 l 1
 312 81 l 1
 312 50 l 1
 188 50 l 1
 62 50 l 1
 62 81 l 1
 62 112 l 1
 156 112 l 1
 250 112 l 1
 250 144 l 1
 250 175 l 1
 281 175 l 1
 312 175 l 1
 312 238 l 1
 312 300 l 1
 188 300 l 1
 62 300 l 1
 62 456 l 1
 62 612 l 1
 250 612 l 1
EndSplineSet
EndChar

StartChar: six
Encoding: 54 54 52
Width: 500
Flags: HW
LayerCount: 2
Fore
SplineSet
281 612 m 1
 375 612 l 1
 375 581 l 1
 375 550 l 1
 344 550 l 1
 312 550 l 1
 312 519 l 1
 312 488 l 1
 281 488 l 1
 250 488 l 1
 250 456 l 1
 250 425 l 1
 312 425 l 1
 375 425 l 1
 375 394 l 1
 375 362 l 1
 406 362 l 1
 438 362 l 1
 438 238 l 1
 438 112 l 1
 406 112 l 1
 375 112 l 1
 375 81 l 1
 375 50 l 1
 250 50 l 1
 125 50 l 1
 125 81 l 1
 125 112 l 1
 94 112 l 1
 62 112 l 1
 62 269 l 1
 62 425 l 1
 94 425 l 1
 125 425 l 1
 125 456 l 1
 125 488 l 1
 156 488 l 1
 188 488 l 1
 188 550 l 1
 188 612 l 1
 281 612 l 1
250 362 m 1
 188 362 l 1
 188 238 l 1
 188 112 l 1
 250 112 l 1
 312 112 l 1
 312 238 l 1
 312 362 l 1
 250 362 l 1
EndSplineSet
EndChar

StartChar: seven
Encoding: 55 55 53
Width: 500
Flags: HW
LayerCount: 2
Fore
SplineSet
250 612 m 1
 438 612 l 1
 438 550 l 1
 438 488 l 1
 406 488 l 1
 375 488 l 1
 375 425 l 1
 375 362 l 1
 344 362 l 1
 312 362 l 1
 312 300 l 1
 312 238 l 1
 281 238 l 1
 250 238 l 1
 250 144 l 1
 250 50 l 1
 188 50 l 1
 125 50 l 1
 125 144 l 1
 125 238 l 1
 156 238 l 1
 188 238 l 1
 188 300 l 1
 188 362 l 1
 219 362 l 1
 250 362 l 1
 250 425 l 1
 250 488 l 1
 281 488 l 1
 312 488 l 1
 312 519 l 1
 312 550 l 1
 188 550 l 1
 62 550 l 1
 62 581 l 1
 62 612 l 1
 250 612 l 1
EndSplineSet
EndChar

StartChar: eight
Encoding: 56 56 54
Width: 500
Flags: HW
LayerCount: 2
Fore
SplineSet
250 612 m 1
 375 612 l 1
 375 581 l 1
 375 550 l 1
 406 550 l 1
 438 550 l 1
 438 456 l 1
 438 362 l 1
 406 362 l 1
 375 362 l 1
 375 331 l 1
 375 300 l 1
 406 300 l 1
 438 300 l 1
 438 206 l 1
 438 112 l 1
 406 112 l 1
 375 112 l 1
 375 81 l 1
 375 50 l 1
 250 50 l 1
 125 50 l 1
 125 81 l 1
 125 112 l 1
 94 112 l 1
 62 112 l 1
 62 206 l 1
 62 300 l 1
 94 300 l 1
 125 300 l 1
 125 331 l 1
 125 362 l 1
 94 362 l 1
 62 362 l 1
 62 456 l 1
 62 550 l 1
 94 550 l 1
 125 550 l 1
 125 581 l 1
 125 612 l 1
 250 612 l 1
250 550 m 1
 188 550 l 1
 188 488 l 1
 188 425 l 1
 219 425 l 1
 250 425 l 1
 250 394 l 1
 250 362 l 1
 281 362 l 1
 312 362 l 1
 312 456 l 1
 312 550 l 1
 250 550 l 1
219 300 m 1
 188 300 l 1
 188 206 l 1
 188 112 l 1
 250 112 l 1
 312 112 l 1
 312 175 l 1
 312 238 l 1
 281 238 l 1
 250 238 l 1
 250 269 l 1
 250 300 l 1
 219 300 l 1
EndSplineSet
EndChar

StartChar: nine
Encoding: 57 57 55
Width: 500
Flags: HW
LayerCount: 2
Fore
SplineSet
250 612 m 1
 375 612 l 1
 375 581 l 1
 375 550 l 1
 406 550 l 1
 438 550 l 1
 438 394 l 1
 438 238 l 1
 406 238 l 1
 375 238 l 1
 375 206 l 1
 375 175 l 1
 344 175 l 1
 312 175 l 1
 312 112 l 1
 312 50 l 1
 219 50 l 1
 125 50 l 1
 125 81 l 1
 125 112 l 1
 156 112 l 1
 188 112 l 1
 188 144 l 1
 188 175 l 1
 219 175 l 1
 250 175 l 1
 250 206 l 1
 250 238 l 1
 188 238 l 1
 125 238 l 1
 125 269 l 1
 125 300 l 1
 94 300 l 1
 62 300 l 1
 62 425 l 1
 62 550 l 1
 94 550 l 1
 125 550 l 1
 125 581 l 1
 125 612 l 1
 250 612 l 1
250 550 m 1
 188 550 l 1
 188 425 l 1
 188 300 l 1
 250 300 l 1
 312 300 l 1
 312 425 l 1
 312 550 l 1
 250 550 l 1
EndSplineSet
EndChar

StartChar: zero
Encoding: 48 48 56
Width: 500
Flags: HW
LayerCount: 2
Fore
SplineSet
248 612 m 1
 374 612 l 1
 374 581 l 1
 374 550 l 1
 405 550 l 1
 436 550 l 1
 436 331 l 1
 436 112 l 1
 405 112 l 1
 374 112 l 1
 374 81 l 1
 374 50 l 1
 248 50 l 1
 124 50 l 1
 124 81 l 1
 124 112 l 1
 92 112 l 1
 61 112 l 1
 61 331 l 1
 61 550 l 1
 92 550 l 1
 124 550 l 1
 124 581 l 1
 124 612 l 1
 248 612 l 1
248 550 m 1
 186 550 l 1
 186 425 l 1
 186 300 l 1
 217 300 l 1
 239 300 l 0
 248 292 l 1
 248 285 l 0
 248 238 l 1
 248 182 l 0
 241 175 l 1
 217 175 l 1
 194 175 l 1
 186 166 l 0
 186 144 l 1
 186 112 l 1
 248 112 l 1
 302 112 l 0
 311 121 l 1
 311 238 l 1
 311 356 l 1
 304 362 l 0
 280 362 l 1
 254 362 l 0
 247 368 l 1
 248 425 l 1
 248 482 l 0
 253 488 l 1
 280 488 l 1
 307 488 l 0
 311 493 l 1
 311 519 l 1
 311 550 l 1
 248 550 l 1
EndSplineSet
EndChar

StartChar: j
Encoding: 106 106 57
Width: 500
Flags: HW
LayerCount: 2
Fore
SplineSet
250 488 m 1
 370 488 l 0
 375 483 l 1
 375 206 l 1
 375 -70 l 0
 370 -75 l 1
 344 -75 l 1
 317 -75 l 1
 312 -80 l 0
 312 -106 l 1
 312 -133 l 0
 307 -138 l 1
 188 -138 l 1
 67 -138 l 0
 62 -133 l 1
 62 -106 l 1
 62 -80 l 0
 67 -75 l 1
 156 -75 l 1
 245 -75 l 0
 250 -70 l 1
 250 175 l 1
 250 420 l 1
 245 425 l 0
 188 425 l 1
 130 425 l 1
 125 430 l 0
 125 456 l 1
 125 483 l 0
 130 488 l 1
 250 488 l 1
312 675 m 1
 370 675 l 0
 375 670 l 1
 375 612 l 1
 375 555 l 0
 370 550 l 1
 312 550 l 1
 255 550 l 0
 250 555 l 1
 250 612 l 1
 250 670 l 0
 255 675 l 1
 312 675 l 1
EndSplineSet
EndChar

StartChar: o
Encoding: 111 111 58
Width: 500
Flags: HW
LayerCount: 2
Fore
SplineSet
250 488 m 1
 375 488 l 1
 375 456 l 1
 375 425 l 1
 406 425 l 1
 438 425 l 1
 438 269 l 1
 438 112 l 1
 406 112 l 1
 375 112 l 1
 375 81 l 1
 375 50 l 1
 250 50 l 1
 125 50 l 1
 125 81 l 1
 125 112 l 1
 94 112 l 1
 62 112 l 1
 62 269 l 1
 62 425 l 1
 94 425 l 1
 125 425 l 1
 125 456 l 1
 125 488 l 1
 250 488 l 1
250 425 m 1
 188 425 l 1
 188 269 l 1
 188 112 l 1
 250 112 l 1
 312 112 l 1
 312 269 l 1
 312 425 l 1
 250 425 l 1
EndSplineSet
EndChar

StartChar: p
Encoding: 112 112 59
Width: 500
Flags: HW
LayerCount: 2
Fore
SplineSet
219 488 m 1
 375 488 l 1
 375 456 l 1
 375 425 l 1
 406 425 l 1
 438 425 l 1
 438 269 l 1
 438 112 l 1
 406 112 l 1
 375 112 l 1
 375 81 l 1
 375 50 l 1
 281 50 l 1
 188 50 l 1
 188 -44 l 1
 188 -138 l 1
 125 -138 l 1
 62 -138 l 1
 62 175 l 1
 62 488 l 1
 219 488 l 1
250 425 m 1
 188 425 l 1
 188 269 l 1
 188 112 l 1
 250 112 l 1
 312 112 l 1
 312 269 l 1
 312 425 l 1
 250 425 l 1
EndSplineSet
EndChar

StartChar: q
Encoding: 113 113 60
Width: 500
Flags: HW
LayerCount: 2
Fore
SplineSet
281 488 m 1
 438 488 l 1
 438 175 l 1
 438 -138 l 1
 375 -138 l 1
 312 -138 l 1
 312 -44 l 1
 312 50 l 1
 219 50 l 1
 125 50 l 1
 125 81 l 1
 125 112 l 1
 94 112 l 1
 62 112 l 1
 62 269 l 1
 62 425 l 1
 94 425 l 1
 125 425 l 1
 125 456 l 1
 125 488 l 1
 281 488 l 1
250 425 m 1
 188 425 l 1
 188 269 l 1
 188 112 l 1
 250 112 l 1
 312 112 l 1
 312 269 l 1
 312 425 l 1
 250 425 l 1
EndSplineSet
EndChar

StartChar: t
Encoding: 116 116 61
Width: 500
Flags: HW
LayerCount: 2
Fore
SplineSet
188 612 m 1
 250 612 l 1
 250 550 l 1
 250 488 l 1
 344 488 l 1
 438 488 l 1
 438 456 l 1
 438 425 l 1
 344 425 l 1
 250 425 l 1
 250 269 l 1
 250 112 l 1
 344 112 l 1
 438 112 l 1
 438 81 l 1
 438 50 l 1
 312 50 l 1
 188 50 l 1
 188 81 l 1
 188 112 l 1
 156 112 l 1
 125 112 l 1
 125 269 l 1
 125 425 l 1
 94 425 l 1
 62 425 l 1
 62 456 l 1
 62 488 l 1
 94 488 l 1
 125 488 l 1
 125 550 l 1
 125 612 l 1
 188 612 l 1
EndSplineSet
EndChar

StartChar: v
Encoding: 118 118 62
Width: 500
Flags: HW
LayerCount: 2
Fore
SplineSet
125 488 m 1
 188 488 l 1
 188 331 l 1
 188 175 l 1
 250 175 l 1
 312 175 l 1
 312 331 l 1
 312 488 l 1
 375 488 l 1
 438 488 l 1
 438 331 l 1
 438 175 l 1
 406 175 l 1
 375 175 l 1
 375 144 l 1
 375 112 l 1
 344 112 l 1
 312 112 l 1
 312 81 l 1
 312 50 l 1
 250 50 l 1
 188 50 l 1
 188 81 l 1
 188 112 l 1
 156 112 l 1
 125 112 l 1
 125 144 l 1
 125 175 l 1
 94 175 l 1
 62 175 l 1
 62 331 l 1
 62 488 l 1
 125 488 l 1
EndSplineSet
EndChar

StartChar: w
Encoding: 119 119 63
Width: 500
Flags: HW
LayerCount: 2
Fore
SplineSet
95 488 m 5
 158 488 l 5
 158 331 l 5
 158 175 l 5
 189 175 l 5
 220 175 l 5
 220 300 l 5
 220 425 l 5
 251 425 l 5
 282 425 l 5
 282 300 l 5
 282 175 l 5
 314 175 l 5
 345 175 l 5
 345 331 l 5
 345 488 l 5
 408 488 l 5
 470 488 l 5
 470 331 l 5
 470 175 l 5
 439 175 l 5
 408 175 l 5
 408 112 l 5
 408 50 l 5
 345 50 l 5
 282 50 l 5
 282 112 l 5
 282 175 l 5
 251 175 l 5
 220 175 l 5
 220 112 l 5
 220 50 l 5
 158 50 l 5
 95 50 l 5
 95 112 l 5
 95 175 l 5
 64 175 l 5
 32 175 l 5
 32 331 l 5
 32 488 l 5
 95 488 l 5
EndSplineSet
EndChar

StartChar: x
Encoding: 120 120 64
Width: 500
Flags: HW
LayerCount: 2
Fore
SplineSet
125 488 m 1
 188 488 l 1
 188 425 l 1
 188 362 l 1
 250 362 l 1
 312 362 l 1
 312 425 l 1
 312 488 l 1
 375 488 l 1
 438 488 l 1
 438 425 l 1
 438 362 l 1
 406 362 l 1
 375 362 l 1
 375 331 l 1
 375 300 l 1
 344 300 l 1
 312 300 l 1
 312 269 l 1
 312 238 l 1
 344 238 l 1
 375 238 l 1
 375 206 l 1
 375 175 l 1
 406 175 l 1
 438 175 l 1
 438 112 l 1
 438 50 l 1
 375 50 l 1
 312 50 l 1
 312 112 l 1
 312 175 l 1
 250 175 l 1
 188 175 l 1
 188 112 l 1
 188 50 l 1
 125 50 l 1
 62 50 l 1
 62 112 l 1
 62 175 l 1
 94 175 l 1
 125 175 l 1
 125 206 l 1
 125 238 l 1
 156 238 l 1
 188 238 l 1
 188 269 l 1
 188 300 l 1
 156 300 l 1
 125 300 l 1
 125 331 l 1
 125 362 l 1
 94 362 l 1
 62 362 l 1
 62 425 l 1
 62 488 l 1
 125 488 l 1
EndSplineSet
EndChar

StartChar: y
Encoding: 121 121 65
Width: 500
Flags: HW
LayerCount: 2
Fore
SplineSet
125 488 m 1
 188 488 l 1
 188 300 l 1
 188 112 l 1
 250 112 l 1
 312 112 l 1
 312 300 l 1
 312 488 l 1
 375 488 l 1
 438 488 l 1
 438 300 l 1
 438 112 l 1
 406 112 l 1
 375 112 l 1
 375 50 l 1
 375 -12 l 1
 344 -12 l 1
 312 -12 l 1
 312 -44 l 1
 312 -75 l 1
 281 -75 l 1
 250 -75 l 1
 250 -106 l 1
 250 -138 l 1
 125 -138 l 1
 0 -138 l 1
 0 -106 l 1
 0 -75 l 1
 94 -75 l 1
 188 -75 l 1
 188 -44 l 1
 188 -12 l 1
 219 -12 l 1
 250 -12 l 1
 250 19 l 1
 250 50 l 1
 188 50 l 1
 125 50 l 1
 125 81 l 1
 125 112 l 1
 94 112 l 1
 62 112 l 1
 62 300 l 1
 62 488 l 1
 125 488 l 1
EndSplineSet
EndChar

StartChar: z
Encoding: 122 122 66
Width: 500
Flags: HW
LayerCount: 2
Fore
SplineSet
250 488 m 1
 438 488 l 1
 438 425 l 1
 438 362 l 1
 406 362 l 1
 375 362 l 1
 375 331 l 1
 375 300 l 1
 344 300 l 1
 312 300 l 1
 312 269 l 1
 312 238 l 1
 281 238 l 1
 250 238 l 1
 250 206 l 1
 250 175 l 1
 219 175 l 1
 188 175 l 1
 188 144 l 1
 188 112 l 1
 312 112 l 1
 438 112 l 1
 438 81 l 1
 438 50 l 1
 250 50 l 1
 62 50 l 1
 62 112 l 1
 62 175 l 1
 94 175 l 1
 125 175 l 1
 125 206 l 1
 125 238 l 1
 156 238 l 1
 188 238 l 1
 188 269 l 1
 188 300 l 1
 219 300 l 1
 250 300 l 1
 250 331 l 1
 250 362 l 1
 281 362 l 1
 312 362 l 1
 312 394 l 1
 312 425 l 1
 188 425 l 1
 62 425 l 1
 62 456 l 1
 62 488 l 1
 250 488 l 1
EndSplineSet
EndChar

StartChar: h
Encoding: 104 104 67
Width: 500
Flags: HW
LayerCount: 2
Fore
SplineSet
125 612 m 1
 188 612 l 1
 188 550 l 1
 188 488 l 1
 281 488 l 1
 375 488 l 1
 375 456 l 1
 375 425 l 1
 406 425 l 1
 438 425 l 1
 438 238 l 1
 438 50 l 1
 375 50 l 1
 312 50 l 1
 312 238 l 1
 312 425 l 1
 250 425 l 1
 188 425 l 1
 188 238 l 1
 188 50 l 1
 125 50 l 1
 62 50 l 1
 62 331 l 1
 62 612 l 1
 125 612 l 1
EndSplineSet
EndChar

StartChar: Q
Encoding: 81 81 68
Width: 500
Flags: HW
LayerCount: 2
Fore
SplineSet
250 612 m 1
 375 612 l 1
 375 581 l 1
 375 550 l 1
 406 550 l 1
 438 550 l 1
 438 331 l 1
 438 112 l 1
 406 112 l 1
 375 112 l 1
 375 50 l 1
 375 -12 l 1
 406 -12 l 1
 438 -12 l 1
 438 -44 l 1
 438 -75 l 1
 375 -75 l 1
 312 -75 l 1
 312 -44 l 1
 312 -12 l 1
 281 -12 l 1
 250 -12 l 1
 250 19 l 1
 250 50 l 1
 188 50 l 1
 125 50 l 1
 125 81 l 1
 125 112 l 1
 94 112 l 1
 62 112 l 1
 62 331 l 1
 62 550 l 1
 94 550 l 1
 125 550 l 1
 125 581 l 1
 125 612 l 1
 250 612 l 1
250 550 m 1
 188 550 l 1
 188 331 l 1
 188 112 l 1
 250 112 l 1
 312 112 l 1
 312 331 l 1
 312 550 l 1
 250 550 l 1
EndSplineSet
EndChar

StartChar: R
Encoding: 82 82 69
Width: 500
Flags: HW
LayerCount: 2
Fore
SplineSet
219 612 m 1
 375 612 l 1
 375 581 l 1
 375 550 l 1
 406 550 l 1
 438 550 l 1
 438 456 l 1
 438 362 l 1
 406 362 l 1
 375 362 l 1
 375 300 l 1
 375 238 l 1
 406 238 l 1
 438 238 l 1
 438 144 l 1
 438 50 l 1
 375 50 l 1
 312 50 l 1
 312 144 l 1
 312 238 l 1
 281 238 l 1
 250 238 l 1
 250 269 l 1
 250 300 l 1
 219 300 l 1
 188 300 l 1
 188 175 l 1
 188 50 l 1
 125 50 l 1
 62 50 l 1
 62 331 l 1
 62 612 l 1
 219 612 l 1
250 550 m 1
 188 550 l 1
 188 456 l 1
 188 362 l 1
 250 362 l 1
 312 362 l 1
 312 456 l 1
 312 550 l 1
 250 550 l 1
EndSplineSet
EndChar

StartChar: S
Encoding: 83 83 70
Width: 500
Flags: HW
LayerCount: 2
Fore
SplineSet
250 612 m 1
 375 612 l 1
 375 581 l 1
 375 550 l 1
 406 550 l 1
 438 550 l 1
 438 519 l 1
 438 488 l 1
 375 488 l 1
 312 488 l 1
 312 519 l 1
 312 550 l 1
 250 550 l 1
 188 550 l 1
 188 488 l 1
 188 425 l 1
 219 425 l 1
 250 425 l 1
 250 394 l 1
 250 362 l 1
 281 362 l 1
 312 362 l 1
 312 331 l 1
 312 300 l 1
 344 300 l 1
 375 300 l 1
 375 269 l 1
 375 238 l 1
 406 238 l 1
 438 238 l 1
 438 175 l 1
 438 112 l 1
 406 112 l 1
 375 112 l 1
 375 81 l 1
 375 50 l 1
 250 50 l 1
 125 50 l 1
 125 81 l 1
 125 112 l 1
 94 112 l 1
 62 112 l 1
 62 144 l 1
 62 175 l 1
 125 175 l 1
 188 175 l 1
 188 144 l 1
 188 112 l 1
 250 112 l 1
 312 112 l 1
 312 175 l 1
 312 238 l 1
 281 238 l 1
 250 238 l 1
 250 269 l 1
 250 300 l 1
 219 300 l 1
 188 300 l 1
 188 331 l 1
 188 362 l 1
 156 362 l 1
 125 362 l 1
 125 394 l 1
 125 425 l 1
 94 425 l 1
 62 425 l 1
 62 488 l 1
 62 550 l 1
 94 550 l 1
 125 550 l 1
 125 581 l 1
 125 612 l 1
 250 612 l 1
EndSplineSet
EndChar

StartChar: T
Encoding: 84 84 71
Width: 500
Flags: HW
LayerCount: 2
Fore
SplineSet
250 612 m 1
 438 612 l 1
 438 581 l 1
 438 550 l 1
 375 550 l 1
 312 550 l 1
 312 300 l 1
 312 50 l 1
 250 50 l 1
 188 50 l 1
 188 300 l 1
 188 550 l 1
 125 550 l 1
 62 550 l 1
 62 581 l 1
 62 612 l 1
 250 612 l 1
EndSplineSet
EndChar

StartChar: U
Encoding: 85 85 72
Width: 500
Flags: HW
LayerCount: 2
Fore
SplineSet
125 612 m 1
 188 612 l 1
 188 362 l 1
 188 112 l 1
 250 112 l 1
 312 112 l 1
 312 362 l 1
 312 612 l 1
 375 612 l 1
 438 612 l 1
 438 362 l 1
 438 112 l 1
 406 112 l 1
 375 112 l 1
 375 81 l 1
 375 50 l 1
 250 50 l 1
 125 50 l 1
 125 81 l 1
 125 112 l 1
 94 112 l 1
 62 112 l 1
 62 362 l 1
 62 612 l 1
 125 612 l 1
EndSplineSet
EndChar

StartChar: V
Encoding: 86 86 73
Width: 500
Flags: HW
LayerCount: 2
Fore
SplineSet
125 612 m 1
 188 612 l 1
 188 394 l 1
 188 175 l 1
 250 175 l 1
 312 175 l 1
 312 394 l 1
 312 612 l 1
 375 612 l 1
 438 612 l 1
 438 394 l 1
 438 175 l 1
 406 175 l 1
 375 175 l 1
 375 144 l 1
 375 112 l 1
 344 112 l 1
 312 112 l 1
 312 81 l 1
 312 50 l 1
 250 50 l 1
 188 50 l 1
 188 81 l 1
 188 112 l 1
 156 112 l 1
 125 112 l 1
 125 144 l 1
 125 175 l 1
 94 175 l 1
 62 175 l 1
 62 394 l 1
 62 612 l 1
 125 612 l 1
EndSplineSet
EndChar

StartChar: W
Encoding: 87 87 74
Width: 500
Flags: HW
LayerCount: 2
Fore
SplineSet
94 612 m 5
 157 612 l 5
 157 425 l 5
 157 238 l 5
 188 238 l 5
 219 238 l 5
 219 331 l 5
 219 425 l 5
 250 425 l 5
 281 425 l 5
 281 331 l 5
 281 238 l 5
 313 238 l 5
 344 238 l 5
 344 425 l 5
 344 612 l 5
 407 612 l 5
 469 612 l 5
 469 425 l 5
 469 238 l 5
 438 238 l 5
 407 238 l 5
 407 144 l 5
 407 50 l 5
 344 50 l 5
 281 50 l 5
 281 144 l 5
 281 238 l 5
 250 238 l 5
 219 238 l 5
 219 144 l 5
 219 50 l 5
 157 50 l 5
 94 50 l 5
 94 144 l 5
 94 238 l 5
 63 238 l 5
 31 238 l 5
 31 425 l 5
 31 612 l 5
 94 612 l 5
EndSplineSet
EndChar

StartChar: X
Encoding: 88 88 75
Width: 500
Flags: HW
LayerCount: 2
Fore
SplineSet
125 612 m 1
 188 612 l 1
 188 550 l 1
 188 488 l 1
 219 488 l 1
 250 488 l 1
 250 456 l 1
 250 425 l 1
 281 425 l 1
 312 425 l 1
 312 519 l 1
 312 612 l 1
 375 612 l 1
 438 612 l 1
 438 550 l 1
 438 488 l 1
 406 488 l 1
 375 488 l 1
 375 456 l 1
 375 425 l 1
 344 425 l 1
 312 425 l 1
 312 362 l 1
 312 300 l 1
 344 300 l 1
 375 300 l 1
 375 269 l 1
 375 238 l 1
 406 238 l 1
 438 238 l 1
 438 144 l 1
 438 50 l 1
 375 50 l 1
 312 50 l 1
 312 144 l 1
 312 238 l 1
 281 238 l 1
 250 238 l 1
 250 269 l 1
 250 300 l 1
 219 300 l 1
 188 300 l 1
 188 175 l 1
 188 50 l 1
 125 50 l 1
 62 50 l 1
 62 144 l 1
 62 238 l 1
 94 238 l 1
 125 238 l 1
 125 269 l 1
 125 300 l 1
 156 300 l 1
 188 300 l 1
 188 362 l 1
 188 425 l 1
 156 425 l 1
 125 425 l 1
 125 456 l 1
 125 488 l 1
 94 488 l 1
 62 488 l 1
 62 550 l 1
 62 612 l 1
 125 612 l 1
EndSplineSet
EndChar

StartChar: Y
Encoding: 89 89 76
Width: 500
Flags: HW
LayerCount: 2
Fore
SplineSet
125 612 m 1
 188 612 l 1
 188 488 l 1
 188 362 l 1
 250 362 l 1
 312 362 l 1
 312 488 l 1
 312 612 l 1
 375 612 l 1
 438 612 l 1
 438 488 l 1
 438 362 l 1
 406 362 l 1
 375 362 l 1
 375 331 l 1
 375 300 l 1
 344 300 l 1
 312 300 l 1
 312 175 l 1
 312 50 l 1
 250 50 l 1
 188 50 l 1
 188 175 l 1
 188 300 l 1
 156 300 l 1
 125 300 l 1
 125 331 l 1
 125 362 l 1
 94 362 l 1
 62 362 l 1
 62 488 l 1
 62 612 l 1
 125 612 l 1
EndSplineSet
EndChar

StartChar: Z
Encoding: 90 90 77
Width: 500
Flags: HW
LayerCount: 2
Fore
SplineSet
250 612 m 1
 438 612 l 1
 438 519 l 1
 438 425 l 1
 406 425 l 1
 375 425 l 1
 375 394 l 1
 375 362 l 1
 344 362 l 1
 312 362 l 1
 312 331 l 1
 312 300 l 1
 281 300 l 1
 250 300 l 1
 250 269 l 1
 250 238 l 1
 219 238 l 1
 188 238 l 1
 188 175 l 1
 188 112 l 1
 312 112 l 1
 438 112 l 1
 438 81 l 1
 438 50 l 1
 250 50 l 1
 62 50 l 1
 62 144 l 1
 62 238 l 1
 94 238 l 1
 125 238 l 1
 125 269 l 1
 125 300 l 1
 156 300 l 1
 188 300 l 1
 188 331 l 1
 188 362 l 1
 219 362 l 1
 250 362 l 1
 250 394 l 1
 250 425 l 1
 281 425 l 1
 312 425 l 1
 312 488 l 1
 312 550 l 1
 188 550 l 1
 62 550 l 1
 62 581 l 1
 62 612 l 1
 250 612 l 1
EndSplineSet
EndChar

StartChar: A
Encoding: 65 65 78
Width: 500
Flags: HW
LayerCount: 2
Fore
SplineSet
250 612 m 1
 312 612 l 1
 312 581 l 1
 312 550 l 1
 344 550 l 1
 375 550 l 1
 375 519 l 1
 375 488 l 1
 406 488 l 1
 438 488 l 1
 438 269 l 1
 438 50 l 1
 375 50 l 1
 312 50 l 1
 312 144 l 1
 312 238 l 1
 250 238 l 1
 188 238 l 1
 188 144 l 1
 188 50 l 1
 125 50 l 1
 62 50 l 1
 62 269 l 1
 62 488 l 1
 94 488 l 1
 125 488 l 1
 125 519 l 1
 125 550 l 1
 156 550 l 1
 188 550 l 1
 188 581 l 1
 188 612 l 1
 250 612 l 1
250 488 m 1
 188 488 l 1
 188 394 l 1
 188 300 l 1
 250 300 l 1
 312 300 l 1
 312 394 l 1
 312 488 l 1
 250 488 l 1
EndSplineSet
EndChar

StartChar: B
Encoding: 66 66 79
Width: 500
Flags: HW
LayerCount: 2
Fore
SplineSet
219 612 m 1
 375 612 l 1
 375 581 l 1
 375 550 l 1
 406 550 l 1
 438 550 l 1
 438 456 l 1
 438 362 l 1
 406 362 l 1
 375 362 l 1
 375 331 l 1
 375 300 l 1
 406 300 l 1
 438 300 l 1
 438 206 l 1
 438 112 l 1
 406 112 l 1
 375 112 l 1
 375 81 l 1
 375 50 l 1
 219 50 l 1
 62 50 l 1
 62 331 l 1
 62 612 l 1
 219 612 l 1
250 550 m 1
 188 550 l 1
 188 456 l 1
 188 362 l 1
 250 362 l 1
 312 362 l 1
 312 456 l 1
 312 550 l 1
 250 550 l 1
250 300 m 1
 188 300 l 1
 188 206 l 1
 188 112 l 1
 250 112 l 1
 312 112 l 1
 312 206 l 1
 312 300 l 1
 250 300 l 1
EndSplineSet
EndChar

StartChar: C
Encoding: 67 67 80
Width: 500
Flags: HW
LayerCount: 2
Fore
SplineSet
250 612 m 1
 375 612 l 1
 375 581 l 1
 375 550 l 1
 406 550 l 1
 438 550 l 1
 438 488 l 1
 438 425 l 1
 375 425 l 1
 312 425 l 1
 312 488 l 1
 312 550 l 1
 250 550 l 1
 188 550 l 1
 188 331 l 1
 188 112 l 1
 250 112 l 1
 312 112 l 1
 312 175 l 1
 312 238 l 1
 375 238 l 1
 438 238 l 1
 438 175 l 1
 438 112 l 1
 406 112 l 1
 375 112 l 1
 375 81 l 1
 375 50 l 1
 250 50 l 1
 125 50 l 1
 125 81 l 1
 125 112 l 1
 94 112 l 1
 62 112 l 1
 62 331 l 1
 62 550 l 1
 94 550 l 1
 125 550 l 1
 125 581 l 1
 125 612 l 1
 250 612 l 1
EndSplineSet
EndChar

StartChar: D
Encoding: 68 68 81
Width: 500
Flags: HW
LayerCount: 2
Fore
SplineSet
188 612 m 1
 312 612 l 1
 312 581 l 1
 312 550 l 1
 344 550 l 1
 375 550 l 1
 375 519 l 1
 375 488 l 1
 406 488 l 1
 438 488 l 1
 438 331 l 1
 438 175 l 1
 406 175 l 1
 375 175 l 1
 375 144 l 1
 375 112 l 1
 344 112 l 1
 312 112 l 1
 312 81 l 1
 312 50 l 1
 188 50 l 1
 62 50 l 1
 62 331 l 1
 62 612 l 1
 188 612 l 1
219 550 m 1
 188 550 l 1
 188 331 l 1
 188 112 l 1
 219 112 l 1
 250 112 l 1
 250 144 l 1
 250 175 l 1
 281 175 l 1
 312 175 l 1
 312 331 l 1
 312 488 l 1
 281 488 l 1
 250 488 l 1
 250 519 l 1
 250 550 l 1
 219 550 l 1
EndSplineSet
EndChar

StartChar: E
Encoding: 69 69 82
Width: 500
Flags: HW
LayerCount: 2
Fore
SplineSet
250 612 m 1
 438 612 l 1
 438 581 l 1
 438 550 l 1
 312 550 l 1
 188 550 l 1
 188 456 l 1
 188 362 l 1
 281 362 l 1
 375 362 l 1
 375 331 l 1
 375 300 l 1
 281 300 l 1
 188 300 l 1
 188 206 l 1
 188 112 l 1
 312 112 l 1
 438 112 l 1
 438 81 l 1
 438 50 l 1
 250 50 l 1
 62 50 l 1
 62 331 l 1
 62 612 l 1
 250 612 l 1
EndSplineSet
EndChar

StartChar: F
Encoding: 70 70 83
Width: 500
Flags: HW
LayerCount: 2
Fore
SplineSet
250 612 m 1
 438 612 l 1
 438 581 l 1
 438 550 l 1
 312 550 l 1
 188 550 l 1
 188 456 l 1
 188 362 l 1
 281 362 l 1
 375 362 l 1
 375 331 l 1
 375 300 l 1
 281 300 l 1
 188 300 l 1
 188 175 l 1
 188 50 l 1
 125 50 l 1
 62 50 l 1
 62 331 l 1
 62 612 l 1
 250 612 l 1
EndSplineSet
EndChar

StartChar: G
Encoding: 71 71 84
Width: 500
Flags: HW
LayerCount: 2
Fore
SplineSet
250 612 m 1
 375 612 l 1
 375 581 l 1
 375 550 l 1
 406 550 l 1
 438 550 l 1
 438 488 l 1
 438 425 l 1
 375 425 l 1
 312 425 l 1
 312 488 l 1
 312 550 l 1
 250 550 l 1
 188 550 l 1
 188 331 l 1
 188 112 l 1
 250 112 l 1
 312 112 l 1
 312 175 l 1
 312 238 l 1
 281 238 l 1
 250 238 l 1
 250 269 l 1
 250 300 l 1
 344 300 l 1
 438 300 l 1
 438 175 l 1
 438 50 l 1
 281 50 l 1
 125 50 l 1
 125 81 l 1
 125 112 l 1
 94 112 l 1
 62 112 l 1
 62 331 l 1
 62 550 l 1
 94 550 l 1
 125 550 l 1
 125 581 l 1
 125 612 l 1
 250 612 l 1
EndSplineSet
EndChar

StartChar: H
Encoding: 72 72 85
Width: 500
Flags: HW
LayerCount: 2
Fore
SplineSet
125 612 m 1
 188 612 l 1
 188 488 l 1
 188 362 l 1
 250 362 l 1
 312 362 l 1
 312 488 l 1
 312 612 l 1
 375 612 l 1
 438 612 l 1
 438 331 l 1
 438 50 l 1
 375 50 l 1
 312 50 l 1
 312 175 l 1
 312 300 l 1
 250 300 l 1
 188 300 l 1
 188 175 l 1
 188 50 l 1
 125 50 l 1
 62 50 l 1
 62 331 l 1
 62 612 l 1
 125 612 l 1
EndSplineSet
EndChar

StartChar: I
Encoding: 73 73 86
Width: 500
Flags: HW
LayerCount: 2
Fore
SplineSet
250 612 m 1
 375 612 l 1
 375 581 l 1
 375 550 l 1
 344 550 l 1
 312 550 l 1
 312 331 l 1
 312 112 l 1
 344 112 l 1
 375 112 l 1
 375 81 l 1
 375 50 l 1
 250 50 l 1
 125 50 l 1
 125 81 l 1
 125 112 l 1
 156 112 l 1
 188 112 l 1
 188 331 l 1
 188 550 l 1
 156 550 l 1
 125 550 l 1
 125 581 l 1
 125 612 l 1
 250 612 l 1
EndSplineSet
EndChar

StartChar: J
Encoding: 74 74 87
Width: 500
Flags: HW
LayerCount: 2
Fore
SplineSet
375 612 m 1
 438 612 l 1
 438 362 l 1
 438 112 l 1
 406 112 l 1
 375 112 l 1
 375 81 l 1
 375 50 l 1
 250 50 l 1
 125 50 l 1
 125 81 l 1
 125 112 l 1
 94 112 l 1
 62 112 l 1
 62 175 l 1
 62 238 l 1
 125 238 l 1
 188 238 l 1
 188 175 l 1
 188 112 l 1
 250 112 l 1
 312 112 l 1
 312 362 l 1
 312 612 l 1
 375 612 l 1
EndSplineSet
EndChar

StartChar: K
Encoding: 75 75 88
Width: 500
Flags: HW
LayerCount: 2
Fore
SplineSet
125 612 m 1
 188 612 l 1
 188 488 l 1
 188 362 l 1
 219 362 l 1
 250 362 l 1
 250 425 l 1
 250 488 l 1
 281 488 l 1
 312 488 l 1
 312 550 l 1
 312 612 l 1
 375 612 l 1
 438 612 l 1
 438 550 l 1
 438 488 l 1
 406 488 l 1
 375 488 l 1
 375 425 l 1
 375 362 l 1
 344 362 l 1
 312 362 l 1
 312 331 l 1
 312 300 l 1
 344 300 l 1
 375 300 l 1
 375 238 l 1
 375 175 l 1
 406 175 l 1
 438 175 l 1
 438 112 l 1
 438 50 l 1
 375 50 l 1
 312 50 l 1
 312 112 l 1
 312 175 l 1
 281 175 l 1
 250 175 l 1
 250 238 l 1
 250 300 l 1
 219 300 l 1
 188 300 l 1
 188 175 l 1
 188 50 l 1
 125 50 l 1
 62 50 l 1
 62 331 l 1
 62 612 l 1
 125 612 l 1
EndSplineSet
EndChar

StartChar: L
Encoding: 76 76 89
Width: 500
Flags: HW
LayerCount: 2
Fore
SplineSet
125 612 m 1
 188 612 l 1
 188 362 l 1
 188 112 l 1
 312 112 l 1
 438 112 l 1
 438 81 l 1
 438 50 l 1
 250 50 l 1
 62 50 l 1
 62 331 l 1
 62 612 l 1
 125 612 l 1
EndSplineSet
EndChar

StartChar: M
Encoding: 77 77 90
Width: 500
Flags: HW
LayerCount: 2
Fore
SplineSet
92 612 m 5
 155 612 l 5
 155 550 l 5
 155 488 l 5
 186 488 l 5
 217 488 l 5
 217 456 l 5
 217 425 l 5
 248 425 l 5
 279 425 l 5
 279 456 l 5
 279 488 l 5
 311 488 l 5
 342 488 l 5
 342 550 l 5
 342 612 l 5
 405 612 l 5
 467 612 l 5
 467 331 l 5
 467 50 l 5
 405 50 l 5
 342 50 l 5
 342 238 l 5
 342 425 l 5
 311 425 l 5
 279 425 l 5
 279 331 l 5
 279 238 l 5
 248 238 l 5
 217 238 l 5
 217 331 l 5
 217 425 l 5
 186 425 l 5
 155 425 l 5
 155 238 l 5
 155 50 l 5
 92 50 l 5
 29 50 l 5
 29 331 l 5
 29 612 l 5
 92 612 l 5
EndSplineSet
EndChar

StartChar: N
Encoding: 78 78 91
Width: 500
Flags: HW
LayerCount: 2
Fore
SplineSet
93 612 m 5
 156 612 l 5
 156 550 l 5
 156 488 l 5
 187 488 l 5
 218 488 l 5
 218 456 l 5
 218 425 l 5
 249 425 l 5
 280 425 l 5
 280 394 l 5
 280 362 l 5
 312 362 l 5
 343 362 l 5
 343 488 l 5
 343 612 l 5
 406 612 l 5
 468 612 l 5
 468 331 l 5
 468 50 l 5
 406 50 l 5
 343 50 l 5
 343 144 l 5
 343 238 l 5
 312 238 l 5
 280 238 l 5
 280 269 l 5
 280 300 l 5
 249 300 l 5
 218 300 l 5
 218 331 l 5
 218 362 l 5
 187 362 l 5
 156 362 l 5
 156 206 l 5
 156 50 l 5
 93 50 l 5
 30 50 l 5
 30 331 l 5
 30 612 l 5
 93 612 l 5
EndSplineSet
EndChar

StartChar: O
Encoding: 79 79 92
Width: 500
Flags: HW
LayerCount: 2
Fore
SplineSet
250 612 m 1
 375 612 l 1
 375 581 l 1
 375 550 l 1
 406 550 l 1
 438 550 l 1
 438 331 l 1
 438 112 l 1
 406 112 l 1
 375 112 l 1
 375 81 l 1
 375 50 l 1
 250 50 l 1
 125 50 l 1
 125 81 l 1
 125 112 l 1
 94 112 l 1
 62 112 l 1
 62 331 l 1
 62 550 l 1
 94 550 l 1
 125 550 l 1
 125 581 l 1
 125 612 l 1
 250 612 l 1
250 550 m 1
 188 550 l 1
 188 331 l 1
 188 112 l 1
 250 112 l 1
 312 112 l 1
 312 331 l 1
 312 550 l 1
 250 550 l 1
EndSplineSet
EndChar

StartChar: P
Encoding: 80 80 93
Width: 500
Flags: HW
LayerCount: 2
Fore
SplineSet
219 612 m 1
 375 612 l 1
 375 581 l 1
 375 550 l 1
 406 550 l 1
 438 550 l 1
 438 456 l 1
 438 362 l 1
 406 362 l 1
 375 362 l 1
 375 331 l 1
 375 300 l 1
 281 300 l 1
 188 300 l 1
 188 175 l 1
 188 50 l 1
 125 50 l 1
 62 50 l 1
 62 331 l 1
 62 612 l 1
 219 612 l 1
250 550 m 1
 188 550 l 1
 188 456 l 1
 188 362 l 1
 250 362 l 1
 312 362 l 1
 312 456 l 1
 312 550 l 1
 250 550 l 1
EndSplineSet
EndChar

StartChar: uni007F
Encoding: 127 127 95
Width: 500
Flags: HW
LayerCount: 2
Fore
SplineSet
166 324.400390625 m 1
 90.7998046875 324.400390625 l 1
 90.7998046875 312 l 1
 90.7998046875 299.599609375 l 1
 141.200195312 299.599609375 l 1
 190.799804688 299.599609375 l 1
 190.799804688 287.200195312 l 1
 190.799804688 274.799804688 l 1
 178.400390625 274.799804688 l 1
 166 274.799804688 l 1
 166 249.599609375 l 1
 166 224.400390625 l 1
 153.599609375 224.400390625 l 1
 141.200195312 224.400390625 l 1
 141.200195312 199.599609375 l 1
 141.200195312 174.799804688 l 1
 128.400390625 174.799804688 l 1
 116 174.799804688 l 1
 116 137.200195312 l 1
 116 99.599609375 l 1
 141.200195312 99.599609375 l 1
 166 99.599609375 l 1
 166 137.200195312 l 1
 166 174.799804688 l 1
 178.400390625 174.799804688 l 1
 190.799804688 174.799804688 l 1
 190.799804688 199.599609375 l 1
 190.799804688 224.400390625 l 1
 203.599609375 224.400390625 l 1
 216 224.400390625 l 1
 216 249.599609375 l 1
 216 274.799804688 l 1
 228.400390625 274.799804688 l 1
 241.200195312 274.799804688 l 1
 241.200195312 299.599609375 l 1
 241.200195312 324.400390625 l 1
 166 324.400390625 l 1
347 323.400390625 m 1
 271.799804688 323.400390625 l 1
 271.799804688 211 l 1
 271.799804688 98.599609375 l 1
 297 98.599609375 l 1
 322.200195312 98.599609375 l 1
 322.200195312 148.599609375 l 1
 322.200195312 198.599609375 l 1
 359.400390625 198.599609375 l 1
 397 198.599609375 l 1
 397 211 l 1
 397 223.400390625 l 1
 359.400390625 223.400390625 l 1
 322.200195312 223.400390625 l 1
 322.200195312 261 l 1
 322.200195312 298.599609375 l 1
 371.799804688 298.599609375 l 1
 422.200195312 298.599609375 l 1
 422.200195312 311 l 1
 422.200195312 323.400390625 l 1
 347 323.400390625 l 1
287 569.400390625 m 1
 261.799804688 569.400390625 l 1
 261.799804688 544.599609375 l 1
 261.799804688 519.799804688 l 1
 274.599609375 519.799804688 l 1
 287 519.799804688 l 1
 287 507 l 1
 287 494.599609375 l 1
 299.400390625 494.599609375 l 1
 312.200195312 494.599609375 l 1
 312.200195312 469.400390625 l 1
 312.200195312 444.599609375 l 1
 299.400390625 444.599609375 l 1
 287 444.599609375 l 1
 287 432.200195312 l 1
 287 419.799804688 l 1
 274.599609375 419.799804688 l 1
 261.799804688 419.799804688 l 1
 261.799804688 382.200195312 l 1
 261.799804688 344.599609375 l 1
 287 344.599609375 l 1
 312.200195312 344.599609375 l 1
 312.200195312 394.599609375 l 1
 312.200195312 444.599609375 l 1
 324.599609375 444.599609375 l 1
 337 444.599609375 l 1
 337 432.200195312 l 1
 337 419.799804688 l 1
 349.400390625 419.799804688 l 1
 361.799804688 419.799804688 l 1
 361.799804688 382.200195312 l 1
 361.799804688 344.599609375 l 1
 387 344.599609375 l 1
 412.200195312 344.599609375 l 1
 412.200195312 382.200195312 l 1
 412.200195312 419.799804688 l 1
 399.400390625 419.799804688 l 1
 387 419.799804688 l 1
 387 432.200195312 l 1
 387 444.599609375 l 1
 374.599609375 444.599609375 l 1
 361.799804688 444.599609375 l 1
 361.799804688 469.400390625 l 1
 361.799804688 494.599609375 l 1
 374.599609375 494.599609375 l 1
 387 494.599609375 l 1
 387 507 l 1
 387 519.799804688 l 1
 399.400390625 519.799804688 l 1
 412.200195312 519.799804688 l 1
 412.200195312 544.599609375 l 1
 412.200195312 569.400390625 l 1
 387 569.400390625 l 1
 361.799804688 569.400390625 l 1
 361.799804688 532.200195312 l 1
 361.799804688 494.599609375 l 1
 349.400390625 494.599609375 l 1
 337 494.599609375 l 1
 337 507 l 1
 337 519.799804688 l 1
 324.599609375 519.799804688 l 1
 312.200195312 519.799804688 l 1
 312.200195312 544.599609375 l 1
 312.200195312 569.400390625 l 1
 287 569.400390625 l 1
165.299804688 572.400390625 m 1
 115.700195312 572.400390625 l 1
 115.700195312 560 l 1
 115.700195312 547.599609375 l 1
 102.900390625 547.599609375 l 1
 90.5 547.599609375 l 1
 90.5 460 l 1
 90.5 372.400390625 l 1
 102.900390625 372.400390625 l 1
 115.700195312 372.400390625 l 1
 115.700195312 360 l 1
 115.700195312 347.599609375 l 1
 165.299804688 347.599609375 l 1
 215.700195312 347.599609375 l 1
 215.700195312 360 l 1
 215.700195312 372.400390625 l 1
 228.099609375 372.400390625 l 1
 240.5 372.400390625 l 1
 240.5 460 l 1
 240.5 547.599609375 l 1
 228.099609375 547.599609375 l 1
 215.700195312 547.599609375 l 1
 215.700195312 560 l 1
 215.700195312 572.400390625 l 1
 165.299804688 572.400390625 l 1
165.299804688 547.599609375 m 1
 190.5 547.599609375 l 1
 190.5 535.200195312 l 1
 190.5 524.799804688 l 1
 188.900390625 522.799804688 l 0
 178.099609375 522.799804688 l 1
 167.299804688 522.799804688 l 1
 165.299804688 520.400390625 l 0
 165.299804688 497.599609375 l 1
 164.900390625 474.799804688 l 1
 167.700195312 472.400390625 l 0
 178.099609375 472.400390625 l 1
 187.700195312 472.400390625 l 0
 190.5 470 l 1
 190.5 422.799804688 l 1
 190.5 376 l 1
 186.900390625 372.400390625 l 0
 165.299804688 372.400390625 l 1
 140.5 372.400390625 l 1
 140.5 385.200195312 l 1
 140.5 394 l 0
 143.700195312 397.599609375 l 1
 152.900390625 397.599609375 l 1
 162.5 397.599609375 l 1
 165.299804688 400.400390625 l 0
 165.299804688 422.799804688 l 1
 165.299804688 441.599609375 l 0
 165.299804688 444.400390625 l 1
 161.700195312 447.599609375 l 0
 152.900390625 447.599609375 l 1
 140.5 447.599609375 l 1
 140.5 497.599609375 l 1
 140.5 547.599609375 l 1
 165.299804688 547.599609375 l 1
250 612 m 1
 433 612 l 0
 438 607 l 1
 438 331 l 1
 438 55 l 1
 433 50 l 0
 250 50 l 1
 67 50 l 1
 62 55 l 0
 62 331 l 1
 62 607 l 1
 67 612 l 0
 250 612 l 1
EndSplineSet
EndChar

StartChar: exclamdown
Encoding: 161 161 96
Width: 500
Flags: HW
LayerCount: 2
Fore
SplineSet
182 237 m 1
 306 237 l 25
 306 113 l 25
 367 113 l 25
 367 -74 l 25
 305 -74 l 25
 305 -200 l 25
 182 -200 l 25
 182 -74 l 25
 118 -74 l 25
 118 113 l 25
 182 113 l 25
 182 237 l 1
182 425 m 1
 306 425 l 1
 306 299 l 1
 182 299 l 1
 182 425 l 1
EndSplineSet
EndChar

StartChar: cent
Encoding: 162 162 97
Width: 500
Flags: HW
LayerCount: 2
Fore
SplineSet
188 612 m 29
 312 612 l 29
 312 487 l 29
 375 487 l 29
 375 425 l 29
 437 425 l 29
 437 362 l 29
 313 363 l 29
 313 425 l 29
 188 425 l 29
 188 175 l 29
 313 175 l 29
 313 237 l 29
 438 237 l 29
 438 175 l 29
 375 175 l 29
 375 112 l 29
 312 112 l 29
 312 -13 l 29
 187 -13 l 29
 187 113 l 29
 125 113 l 29
 125 175 l 29
 62 175 l 29
 62 425 l 29
 125 425 l 29
 125 487 l 29
 188 487 l 29
 188 612 l 29
EndSplineSet
EndChar

StartChar: sterling
Encoding: 163 163 98
Width: 500
Flags: HW
LayerCount: 2
Fore
SplineSet
125 612 m 29
 375 612 l 29
 375 550 l 29
 437 550 l 29
 437 488 l 29
 313 488 l 29
 313 550 l 29
 187 550 l 29
 187 362 l 29
 375 362 l 29
 375 300 l 29
 187 300 l 29
 187 175 l 29
 125 175 l 29
 125 112 l 29
 437 112 l 29
 437 50 l 29
 0 50 l 29
 0 175 l 29
 62 175 l 29
 62 300 l 29
 0 300 l 29
 0 363 l 29
 63 363 l 29
 63 550 l 29
 125 550 l 29
 125 612 l 29
EndSplineSet
EndChar

StartChar: currency
Encoding: 164 164 99
Width: 500
Flags: HW
LayerCount: 2
Fore
SplineSet
188 425 m 25
 188 300 l 25
 312 300 l 25
 312 425 l 25
 188 425 l 25
63 550 m 25
 187 550 l 1
 187 487 l 25
 313 487 l 25
 313 550 l 25
 437 550 l 25
 437 488 l 25
 375 488 l 25
 375 425 l 25
 437 425 l 25
 437 300 l 25
 375 300 l 25
 375 237 l 25
 437 237 l 25
 437 175 l 25
 313 175 l 25
 313 237 l 25
 187 237 l 25
 187 175 l 25
 62 175 l 25
 62 237 l 25
 125 237 l 25
 125 300 l 25
 63 300 l 25
 63 425 l 25
 125 425 l 25
 125 488 l 25
 63 488 l 1
 63 550 l 25
EndSplineSet
EndChar

StartChar: yen
Encoding: 165 165 100
Width: 500
Flags: HW
LayerCount: 2
Fore
SplineSet
63 612 m 29
 187 612 l 29
 187 425 l 29
 313 425 l 29
 313 612 l 29
 437 612 l 29
 437 425 l 29
 375 425 l 29
 375 362 l 29
 438 362 l 29
 438 300 l 29
 313 300 l 29
 313 238 l 29
 437 238 l 29
 437 175 l 29
 312 175 l 29
 312 50 l 29
 188 50 l 29
 188 175 l 29
 63 175 l 29
 63 237 l 29
 188 237 l 29
 188 300 l 29
 63 300 l 29
 63 362 l 29
 125 362 l 29
 125 425 l 29
 63 425 l 29
 63 612 l 29
EndSplineSet
EndChar

StartChar: copyright
Encoding: 169 169 101
Width: 500
Flags: HW
LayerCount: 2
Fore
SplineSet
187 487 m 29
 187 425 l 5
 125 425 l 29
 125 238 l 29
 187 238 l 29
 187 175 l 29
 312 175 l 29
 312 237 l 29
 375 237 l 29
 375 300 l 29
 312 300 l 29
 312 238 l 29
 188 238 l 29
 188 425 l 29
 312 425 l 29
 312 363 l 29
 375 363 l 29
 375 425 l 29
 313 425 l 29
 313 487 l 5
 187 487 l 29
125 550 m 29
 125 488 l 29
 62 487 l 29
 62 175 l 29
 125 175 l 29
 125 112 l 29
 375 112 l 29
 375 175 l 29
 438 175 l 29
 438 488 l 29
 375 488 l 29
 375 550 l 29
 125 550 l 29
63 612 m 29
 437 612 l 5
 437 550 l 29
 500 550 l 29
 500 113 l 29
 438 113 l 29
 438 50 l 29
 63 50 l 29
 63 112 l 29
 0 112 l 29
 0 550 l 29
 63 550 l 5
 63 612 l 29
EndSplineSet
EndChar

StartChar: brokenbar
Encoding: 166 166 102
Width: 500
Flags: HW
LayerCount: 2
Fore
SplineSet
187 175 m 29
 312 175 l 29
 312 -200 l 29
 187 -200 l 29
 187 175 l 29
187 612 m 29
 312 612 l 29
 312 300 l 29
 187 300 l 29
 187 612 l 29
EndSplineSet
EndChar

StartChar: section
Encoding: 167 167 103
Width: 500
Flags: HW
LayerCount: 2
Fore
SplineSet
187 300 m 29
 187 175 l 29
 313 175 l 29
 313 300 l 29
 187 300 l 29
125 612 m 25
 375 612 l 25
 375 550 l 25
 437 550 l 25
 437 488 l 25
 313 488 l 25
 313 550 l 25
 187 550 l 25
 187 425 l 25
 312 425 l 25
 312 362 l 25
 375 362 l 25
 375 300 l 25
 437 300 l 25
 437 175 l 25
 375 175 l 25
 375 50 l 25
 437 50 l 25
 437 -75 l 25
 375 -75 l 25
 375 -200 l 25
 125 -200 l 25
 125 -75 l 25
 62 -75 l 25
 62 -13 l 25
 187 -13 l 25
 187 -75 l 25
 313 -75 l 25
 313 50 l 25
 188 50 l 25
 188 112 l 25
 125 112 l 25
 125 175 l 25
 62 175 l 25
 62 300 l 25
 125 300 l 25
 125 425 l 25
 63 425 l 25
 63 550 l 25
 125 550 l 25
 125 612 l 25
EndSplineSet
EndChar

StartChar: dieresis
Encoding: 168 168 104
Width: 500
Flags: HW
LayerCount: 2
Fore
SplineSet
313 675 m 29
 437 675 l 29
 437 550 l 29
 313 550 l 29
 313 675 l 29
62 675 m 29
 62 550 l 5
 187 550 l 29
 187 675 l 5
 62 675 l 29
EndSplineSet
EndChar

StartChar: quoteleft
Encoding: 8216 8216 105
Width: 500
Flags: HW
LayerCount: 2
Fore
SplineSet
250 612 m 25
 375 612 l 25
 375 550 l 25
 312 550 l 25
 312 487 l 25
 375 487 l 25
 375 363 l 25
 188 363 l 25
 188 550 l 25
 250 550 l 25
 250 612 l 25
EndSplineSet
EndChar

StartChar: quoteright
Encoding: 8217 8217 106
Width: 500
Flags: HW
LayerCount: 2
Fore
SplineSet
187 612 m 25
 375 612 l 25
 375 425 l 25
 312 425 l 25
 312 363 l 25
 188 363 l 25
 188 425 l 25
 250 425 l 25
 250 487 l 25
 187 487 l 25
 187 612 l 25
EndSplineSet
EndChar

StartChar: ordfeminine
Encoding: 170 170 107
Width: 500
Flags: HW
LayerCount: 2
Fore
SplineSet
63 237 m 5
 437 237 l 5
 437 175 l 5
 63 175 l 5
 63 237 l 5
188 425 m 29
 188 362 l 29
 313 362 l 29
 313 425 l 29
 188 425 l 29
125 612 m 29
 375 612 l 29
 375 550 l 29
 437 550 l 29
 437 300 l 29
 125 300 l 29
 125 362 l 29
 63 362 l 29
 63 425 l 29
 125 425 l 29
 125 487 l 29
 313 487 l 29
 313 550 l 29
 125 550 l 29
 125 612 l 29
EndSplineSet
EndChar

StartChar: guillemotleft
Encoding: 171 171 108
Width: 500
Flags: HW
LayerCount: 2
Fore
SplineSet
375 362 m 25
 500 362 l 25
 500 300 l 25
 437 300 l 25
 437 238 l 25
 375 238 l 25
 375 175 l 25
 437 175 l 25
 437 112 l 25
 500 112 l 25
 500 50 l 25
 375 50 l 25
 375 113 l 25
 313 113 l 25
 313 175 l 25
 250 175 l 25
 250 237 l 25
 313 237 l 25
 313 300 l 25
 375 300 l 25
 375 362 l 25
125 362 m 25
 250 362 l 25
 250 300 l 25
 187 300 l 25
 187 238 l 25
 125 238 l 25
 125 175 l 25
 187 175 l 25
 187 112 l 25
 250 112 l 25
 250 50 l 25
 125 50 l 25
 125 113 l 25
 63 113 l 25
 63 175 l 25
 0 175 l 25
 0 237 l 25
 63 237 l 25
 63 300 l 25
 125 300 l 25
 125 362 l 25
EndSplineSet
EndChar

StartChar: logicalnot
Encoding: 172 172 109
Width: 500
Flags: HW
LayerCount: 2
Fore
SplineSet
62 362 m 29
 437 362 l 29
 437 175 l 29
 313 175 l 29
 313 300 l 29
 62 300 l 29
 62 362 l 29
EndSplineSet
EndChar

StartChar: uni00AD
Encoding: 173 173 110
Width: 500
Flags: HW
LayerCount: 2
Fore
SplineSet
63 362 m 25
 437 362 l 25
 437 300 l 25
 63 300 l 25
 63 362 l 25
EndSplineSet
EndChar

StartChar: registered
Encoding: 174 174 111
Width: 500
Flags: HW
LayerCount: 2
Fore
SplineSet
192 425 m 25
 192 300 l 25
 311 300 l 25
 311 425 l 25
 192 425 l 25
140 487 m 1
 312 487 l 1
 312 425 l 1
 364 425 l 1
 364 300 l 25
 312 300 l 25
 312 238 l 25
 364 238 l 25
 364 176 l 25
 311 176 l 1
 311 238 l 25
 192 238 l 25
 192 175 l 25
 140 175 l 25
 140 487 l 1
125 550 m 25
 125 488 l 25
 70 488 l 25
 70 175 l 25
 125 175 l 25
 125 112 l 25
 375 112 l 25
 375 175 l 25
 430 175 l 25
 430 488 l 25
 375 488 l 25
 375 550 l 25
 125 550 l 25
71 612 m 25
 429 612 l 25
 429 550 l 25
 484 550 l 25
 484 113 l 25
 429 113 l 25
 429 50 l 25
 71 50 l 25
 71 113 l 25
 16 113 l 25
 16 550 l 25
 71 550 l 25
 71 612 l 25
EndSplineSet
EndChar

StartChar: macron
Encoding: 175 175 112
Width: 500
Flags: HW
LayerCount: 2
Fore
SplineSet
0 800 m 25
 500 800 l 25
 500 738 l 25
 0 738 l 25
 0 800 l 25
EndSplineSet
EndChar

StartChar: degree
Encoding: 176 176 113
Width: 500
Flags: HW
LayerCount: 2
Fore
SplineSet
187 613 m 25
 187 487 l 25
 313 487 l 25
 313 613 l 25
 187 613 l 25
125 675 m 25
 375 675 l 25
 375 612 l 25
 437 612 l 25
 437 488 l 25
 375 488 l 25
 375 425 l 25
 125 425 l 25
 125 488 l 25
 63 488 l 25
 63 612 l 25
 125 612 l 25
 125 675 l 25
EndSplineSet
EndChar

StartChar: guillemotright
Encoding: 187 187 114
Width: 500
Flags: HW
LayerCount: 2
Fore
SplineSet
125 50 m 29
 0 50 l 29
 0 112 l 29
 63 112 l 29
 63 174 l 29
 125 174 l 29
 125 237 l 29
 63 237 l 29
 63 300 l 29
 0 300 l 29
 0 362 l 29
 125 362 l 29
 125 299 l 29
 187 299 l 29
 187 237 l 29
 250 237 l 29
 250 175 l 29
 187 175 l 29
 187 112 l 29
 125 112 l 29
 125 50 l 29
375 50 m 29
 250 50 l 29
 250 112 l 29
 313 112 l 29
 313 174 l 29
 375 174 l 29
 375 237 l 29
 313 237 l 29
 313 300 l 29
 250 300 l 29
 250 362 l 29
 375 362 l 29
 375 299 l 29
 437 299 l 29
 437 237 l 29
 500 237 l 29
 500 175 l 29
 437 175 l 29
 437 112 l 29
 375 112 l 29
 375 50 l 29
EndSplineSet
EndChar

StartChar: plusminus
Encoding: 177 177 115
Width: 500
Flags: HW
LayerCount: 2
Fore
SplineSet
63 112 m 25
 437 112 l 25
 437 50 l 25
 63 50 l 25
 63 112 l 25
188 487 m 25
 312 487 l 25
 312 362 l 25
 437 362 l 25
 437 300 l 25
 312 300 l 25
 312 175 l 25
 188 175 l 25
 188 300 l 25
 63 300 l 25
 63 362 l 25
 188 362 l 25
 188 487 l 25
EndSplineSet
EndChar

StartChar: uni00B2
Encoding: 178 178 116
Width: 500
Flags: HW
LayerCount: 2
Fore
SplineSet
125 612 m 25
 312 612 l 25
 312 550 l 25
 375 550 l 25
 375 488 l 25
 312 488 l 25
 312 425 l 25
 250 425 l 25
 250 362 l 25
 375 362 l 25
 375 300 l 25
 125 300 l 25
 125 425 l 25
 188 425 l 25
 188 487 l 25
 250 487 l 25
 250 550 l 25
 125 550 l 25
 125 612 l 25
EndSplineSet
EndChar

StartChar: uni00B9
Encoding: 185 185 117
Width: 500
Flags: HW
LayerCount: 2
Fore
SplineSet
188 612 m 25
 312 612 l 25
 312 300 l 25
 188 300 l 25
 188 488 l 25
 125 488 l 25
 125 550 l 25
 188 550 l 25
 188 612 l 25
EndSplineSet
EndChar

StartChar: uni00B3
Encoding: 179 179 118
Width: 500
Flags: HW
LayerCount: 2
Fore
SplineSet
125 612 m 25
 312 612 l 25
 312 550 l 25
 375 550 l 25
 375 488 l 25
 312 488 l 25
 312 425 l 25
 375 425 l 25
 375 363 l 25
 312 363 l 25
 312 300 l 25
 125 300 l 25
 125 362 l 25
 250 362 l 25
 250 425 l 25
 188 425 l 25
 188 487 l 25
 250 487 l 25
 250 550 l 25
 125 550 l 25
 125 612 l 25
EndSplineSet
EndChar

StartChar: acute
Encoding: 180 180 119
Width: 500
Flags: HW
LayerCount: 2
Fore
SplineSet
188 737 m 25
 375 737 l 25
 375 675 l 25
 312 675 l 25
 312 613 l 25
 250 613 l 25
 250 550 l 25
 125 550 l 25
 125 612 l 25
 188 612 l 25
 188 737 l 25
EndSplineSet
EndChar

StartChar: mu
Encoding: 181 181 120
Width: 500
Flags: HW
LayerCount: 2
Fore
SplineSet
63 487 m 25
 187 487 l 25
 187 113 l 25
 312 113 l 25
 312 487 l 25
 437 487 l 25
 437 112 l 25
 500 112 l 25
 500 50 l 25
 375 50 l 25
 375 112 l 25
 312 112 l 25
 312 50 l 25
 187 50 l 25
 187 -75 l 25
 125 -75 l 25
 125 -200 l 25
 0 -200 l 25
 0 -75 l 25
 63 -75 l 25
 63 487 l 25
EndSplineSet
EndChar

StartChar: paragraph
Encoding: 182 182 121
Width: 500
Flags: HW
LayerCount: 2
Fore
SplineSet
188 612 m 25
 500 612 l 25
 500 550 l 25
 437 550 l 25
 437 -200 l 25
 313 -200 l 25
 313 175 l 25
 188 175 l 25
 188 238 l 25
 125 238 l 25
 125 300 l 25
 63 300 l 25
 63 487 l 25
 125 487 l 25
 125 550 l 25
 188 550 l 25
 188 612 l 25
EndSplineSet
EndChar

StartChar: periodcentered
Encoding: 183 183 122
Width: 500
Flags: HW
LayerCount: 2
Fore
SplineSet
188 425 m 25
 375 425 l 25
 375 300 l 25
 188 300 l 25
 188 425 l 25
EndSplineSet
EndChar

StartChar: cedilla
Encoding: 184 184 123
Width: 500
Flags: HW
LayerCount: 2
Fore
SplineSet
188 50 m 25
 312 50 l 25
 312 -13 l 25
 375 -13 l 25
 375 -75 l 25
 312 -75 l 25
 312 -200 l 25
 125 -200 l 25
 125 -75 l 25
 250 -75 l 25
 250 -12 l 25
 188 -12 l 25
 188 50 l 25
EndSplineSet
EndChar

StartChar: ordmasculine
Encoding: 186 186 124
Width: 500
Flags: HW
LayerCount: 2
Fore
SplineSet
63 237 m 25
 437 237 l 25
 437 175 l 25
 63 175 l 25
 63 237 l 25
187 550 m 25
 187 362 l 25
 313 362 l 25
 313 550 l 25
 187 550 l 25
125 612 m 25
 375 612 l 25
 375 550 l 25
 437 550 l 25
 437 363 l 25
 375 363 l 25
 375 300 l 25
 125 300 l 25
 125 363 l 25
 63 363 l 25
 63 550 l 25
 125 550 l 25
 125 612 l 25
EndSplineSet
EndChar

StartChar: onequarter
Encoding: 188 188 125
Width: 500
Flags: HW
LayerCount: 2
Fore
SplineSet
312 175 m 25
 312 112 l 25
 375 112 l 25
 375 175 l 25
 312 175 l 25
333 300 m 25
 484 300 l 25
 484 -12 l 25
 375 -12 l 25
 375 50 l 25
 188 50 l 25
 188 155 l 25
 333 300 l 25
399 550 m 25
 484 550 l 25
 484 513 l 25
 101 113 l 25
 16 113 l 25
 16 151 l 25
 399 550 l 25
69 675 m 25
 187 675 l 25
 187 363 l 25
 69 363 l 25
 69 550 l 25
 16 550 l 25
 16 612 l 25
 69 612 l 25
 69 675 l 25
EndSplineSet
EndChar

StartChar: onehalf
Encoding: 189 189 126
Width: 500
Flags: HW
LayerCount: 2
Fore
SplineSet
368 283 m 1
 454 283 l 1
 454 267 l 1
 454 251 l 1
 466 251 l 1
 488 251 l 1
 488 202 l 1
 488 153 l 1
 466 153 l 1
 454 153 l 1
 454 137 l 1
 454 120 l 1
 433 120 l 1
 411 120 l 1
 411 104 l 1
 411 88 l 1
 389 88 l 1
 368 88 l 1
 368 71 l 1
 368 55 l 1
 347 55 l 1
 325 55 l 1
 325 45 l 1
 325 28 l 1
 411 28 l 1
 488 28 l 1
 488 6 l 1
 488 -10 l 1
 368 -10 l 1
 240 -10 l 1
 240 28 l 1
 240 55 l 1
 262 55 l 1
 282 55 l 1
 282 71 l 1
 282 88 l 1
 303 88 l 1
 325 88 l 1
 325 104 l 1
 325 120 l 1
 347 120 l 1
 368 120 l 1
 368 137 l 1
 368 153 l 1
 389 153 l 1
 411 153 l 1
 411 202 l 1
 411 251 l 1
 368 251 l 1
 325 251 l 1
 325 219 l 1
 325 186 l 1
 282 186 l 1
 240 186 l 1
 240 219 l 1
 240 251 l 1
 262 251 l 1
 282 251 l 1
 282 267 l 1
 282 283 l 1
 368 283 l 1
399 565 m 25
 490 565 l 25
 490 528 l 25
 101 128 l 25
 13 128 l 25
 13 166 l 25
 399 565 l 25
79 675 m 25
 187 675 l 25
 187 363 l 25
 79 363 l 25
 79 550 l 25
 13 550 l 25
 13 612 l 25
 79 612 l 25
 79 675 l 25
EndSplineSet
EndChar

StartChar: threequarters
Encoding: 190 190 127
Width: 500
Flags: HW
LayerCount: 2
Fore
SplineSet
312 175 m 25
 312 112 l 25
 375 112 l 25
 375 175 l 25
 312 175 l 25
333 300 m 25
 488 300 l 25
 488 -12 l 25
 375 -12 l 25
 375 50 l 25
 188 50 l 25
 188 155 l 25
 333 300 l 25
399 550 m 25
 488 550 l 25
 488 513 l 25
 101 113 l 25
 12 113 l 25
 12 151 l 25
 399 550 l 25
12 675 m 25
 187 675 l 25
 187 613 l 25
 246 613 l 25
 246 551 l 25
 187 551 l 25
 187 488 l 25
 246 488 l 25
 246 426 l 25
 187 426 l 25
 187 363 l 25
 12 363 l 25
 12 425 l 25
 125 425 l 25
 125 488 l 25
 69 488 l 25
 69 550 l 25
 125 550 l 25
 125 613 l 25
 12 613 l 25
 12 675 l 25
EndSplineSet
EndChar

StartChar: questiondown
Encoding: 191 191 128
Width: 500
Flags: HW
LayerCount: 2
Fore
SplineSet
188 237 m 25
 312 237 l 25
 312 113 l 25
 250 113 l 25
 250 50 l 25
 187 50 l 25
 187 -75 l 25
 313 -75 l 25
 313 50 l 25
 437 50 l 25
 437 -75 l 25
 375 -75 l 25
 375 -182 l 25
 125 -182 l 25
 125 -75 l 25
 63 -75 l 25
 63 50 l 25
 125 50 l 25
 125 112 l 25
 188 112 l 25
 188 237 l 25
188 425 m 25
 312 425 l 25
 312 300 l 25
 188 300 l 25
 188 425 l 25
EndSplineSet
EndChar

StartChar: Agrave
Encoding: 192 192 129
Width: 500
Flags: HW
LayerCount: 2
Fore
SplineSet
187 488 m 25
 187 300 l 25
 313 300 l 25
 313 488 l 25
 187 488 l 25
188 612 m 25
 312 612 l 25
 312 550 l 25
 375 550 l 25
 375 487 l 25
 437 487 l 25
 437 50 l 25
 313 50 l 25
 313 238 l 25
 187 238 l 25
 187 50 l 25
 63 50 l 25
 63 487 l 25
 125 487 l 25
 125 550 l 25
 188 550 l 25
 188 612 l 25
125 800 m 25
 250 800 l 25
 250 737 l 25
 312 737 l 25
 312 675 l 25
 188 675 l 25
 188 738 l 25
 125 738 l 25
 125 800 l 25
EndSplineSet
EndChar

StartChar: Aacute
Encoding: 193 193 130
Width: 500
Flags: HW
LayerCount: 2
Fore
SplineSet
187 488 m 29
 187 300 l 29
 313 300 l 29
 313 488 l 29
 187 488 l 29
188 612 m 29
 312 612 l 29
 312 550 l 29
 375 550 l 29
 375 487 l 29
 437 487 l 29
 437 50 l 29
 313 50 l 29
 313 238 l 29
 187 238 l 29
 187 50 l 29
 63 50 l 29
 63 487 l 29
 125 487 l 29
 125 550 l 29
 188 550 l 29
 188 612 l 29
375 800 m 29
 250 800 l 29
 250 737 l 29
 188 737 l 29
 188 675 l 29
 312 675 l 29
 312 738 l 29
 375 738 l 29
 375 800 l 29
EndSplineSet
EndChar

StartChar: Acircumflex
Encoding: 194 194 131
Width: 500
Flags: HW
LayerCount: 2
Fore
SplineSet
125 800 m 29
 375 800 l 29
 375 737 l 29
 437 737 l 29
 437 675 l 29
 313 675 l 29
 313 738 l 29
 187 738 l 29
 187 675 l 29
 63 675 l 29
 63 737 l 29
 125 737 l 29
 125 800 l 29
187 488 m 29
 187 300 l 29
 313 300 l 29
 313 488 l 29
 187 488 l 29
188 612 m 29
 312 612 l 29
 312 550 l 29
 375 550 l 29
 375 487 l 29
 437 487 l 29
 437 50 l 29
 313 50 l 29
 313 238 l 29
 187 238 l 29
 187 50 l 29
 63 50 l 29
 63 487 l 29
 125 487 l 29
 125 550 l 29
 188 550 l 29
 188 612 l 29
EndSplineSet
EndChar

StartChar: Atilde
Encoding: 195 195 132
Width: 500
Flags: HW
LayerCount: 2
Fore
SplineSet
125 800 m 29
 312 800 l 29
 312 737 l 29
 375 737 l 29
 375 800 l 29
 500 800 l 29
 500 738 l 29
 437 738 l 29
 437 675 l 29
 250 675 l 29
 250 738 l 29
 187 738 l 29
 187 675 l 29
 63 675 l 29
 63 737 l 29
 125 737 l 29
 125 800 l 29
187 488 m 25
 187 300 l 25
 313 300 l 25
 313 488 l 25
 187 488 l 25
188 612 m 25
 312 612 l 25
 312 550 l 25
 375 550 l 25
 375 487 l 25
 437 487 l 25
 437 50 l 25
 313 50 l 25
 313 238 l 25
 187 238 l 25
 187 50 l 25
 63 50 l 25
 63 487 l 25
 125 487 l 25
 125 550 l 25
 188 550 l 25
 188 612 l 25
EndSplineSet
EndChar

StartChar: Adieresis
Encoding: 196 196 133
Width: 500
Flags: HW
LayerCount: 2
Fore
SplineSet
313 800 m 25
 437 800 l 25
 437 675 l 25
 313 675 l 25
 313 800 l 25
63 800 m 25
 187 800 l 25
 187 675 l 25
 63 675 l 25
 63 800 l 25
187 488 m 25
 187 300 l 25
 313 300 l 25
 313 488 l 25
 187 488 l 25
188 612 m 25
 312 612 l 25
 312 550 l 25
 375 550 l 25
 375 487 l 25
 437 487 l 25
 437 50 l 25
 313 50 l 25
 313 238 l 25
 187 238 l 25
 187 50 l 25
 63 50 l 25
 63 487 l 25
 125 487 l 25
 125 550 l 25
 188 550 l 25
 188 612 l 25
EndSplineSet
EndChar

StartChar: Aring
Encoding: 197 197 134
Width: 500
Flags: HW
LayerCount: 2
Fore
SplineSet
187 742 m 29
 187 683 l 29
 313 683 l 29
 313 742 l 29
 187 742 l 29
125 800 m 29
 375 800 l 29
 375 741 l 29
 437 741 l 29
 437 683 l 29
 375 683 l 29
 375 625 l 29
 125 625 l 29
 125 683 l 29
 63 683 l 29
 63 741 l 29
 125 741 l 29
 125 800 l 29
187 488 m 25
 187 300 l 25
 313 300 l 25
 313 488 l 25
 187 488 l 25
188 612 m 25
 312 612 l 25
 312 550 l 25
 375 550 l 25
 375 487 l 25
 437 487 l 25
 437 50 l 25
 313 50 l 25
 313 238 l 25
 187 238 l 25
 187 50 l 25
 63 50 l 25
 63 487 l 25
 125 487 l 25
 125 550 l 25
 188 550 l 25
 188 612 l 25
EndSplineSet
EndChar

StartChar: AE
Encoding: 198 198 135
Width: 500
Flags: HW
LayerCount: 2
Fore
SplineSet
187 425 m 25
 187 300 l 25
 250 300 l 25
 250 425 l 25
 187 425 l 25
250 612 m 25
 468 612 l 25
 468 550 l 25
 359 550 l 25
 359 362 l 25
 468 362 l 25
 468 300 l 25
 359 300 l 25
 359 112 l 25
 468 112 l 25
 468 50 l 25
 250 50 l 25
 250 238 l 25
 187 238 l 25
 187 50 l 25
 63 50 l 25
 63 425 l 25
 125 425 l 25
 125 487 l 25
 188 487 l 25
 188 550 l 25
 250 550 l 25
 250 612 l 25
EndSplineSet
EndChar

StartChar: Ccedilla
Encoding: 199 199 136
Width: 500
Flags: HW
LayerCount: 2
Fore
SplineSet
125 612 m 25
 375 612 l 25
 375 550 l 25
 437 550 l 25
 437 425 l 25
 313 425 l 25
 313 550 l 25
 187 550 l 25
 187 112 l 25
 313 112 l 25
 313 237 l 25
 437 237 l 25
 437 113 l 25
 375 113 l 25
 375 50 l 25
 312 50 l 25
 312 -13 l 25
 375 -13 l 25
 375 -75 l 25
 312 -75 l 25
 312 -200 l 25
 125 -200 l 25
 125 -75 l 25
 250 -75 l 25
 250 -12 l 25
 188 -12 l 25
 188 50 l 25
 125 50 l 25
 125 113 l 25
 63 113 l 25
 63 550 l 25
 125 550 l 25
 125 612 l 25
EndSplineSet
EndChar

StartChar: Egrave
Encoding: 200 200 137
Width: 500
Flags: HW
LayerCount: 2
Fore
SplineSet
63 612 m 25
 437 612 l 25
 437 550 l 25
 187 550 l 25
 187 362 l 25
 375 362 l 25
 375 300 l 25
 187 300 l 25
 187 112 l 25
 437 112 l 25
 437 50 l 25
 63 50 l 25
 63 612 l 25
125 800 m 25
 250 800 l 25
 250 737 l 25
 312 737 l 25
 312 675 l 25
 188 675 l 25
 188 738 l 25
 125 738 l 25
 125 800 l 25
EndSplineSet
EndChar

StartChar: Eacute
Encoding: 201 201 138
Width: 500
Flags: HW
LayerCount: 2
Fore
SplineSet
63 612 m 25
 437 612 l 25
 437 550 l 25
 187 550 l 25
 187 362 l 25
 375 362 l 25
 375 300 l 25
 187 300 l 25
 187 112 l 25
 437 112 l 25
 437 50 l 25
 63 50 l 25
 63 612 l 25
375 800 m 25
 250 800 l 25
 250 737 l 25
 188 737 l 25
 188 675 l 25
 312 675 l 25
 312 738 l 25
 375 738 l 25
 375 800 l 25
EndSplineSet
EndChar

StartChar: Ecircumflex
Encoding: 202 202 139
Width: 500
Flags: HW
LayerCount: 2
Fore
SplineSet
125 800 m 25
 375 800 l 25
 375 737 l 25
 437 737 l 25
 437 675 l 25
 313 675 l 25
 313 738 l 25
 187 738 l 25
 187 675 l 25
 63 675 l 25
 63 737 l 25
 125 737 l 25
 125 800 l 25
63 612 m 25
 437 612 l 25
 437 550 l 25
 187 550 l 25
 187 362 l 25
 375 362 l 25
 375 300 l 25
 187 300 l 25
 187 112 l 25
 437 112 l 25
 437 50 l 25
 63 50 l 25
 63 612 l 25
EndSplineSet
EndChar

StartChar: Edieresis
Encoding: 203 203 140
Width: 500
Flags: HW
LayerCount: 2
Fore
SplineSet
313 800 m 29
 437 800 l 29
 437 675 l 29
 313 675 l 29
 313 800 l 29
63 800 m 29
 187 800 l 29
 187 675 l 29
 63 675 l 29
 63 800 l 29
63 612 m 25
 437 612 l 25
 437 550 l 25
 187 550 l 25
 187 362 l 25
 375 362 l 25
 375 300 l 25
 187 300 l 25
 187 112 l 25
 437 112 l 25
 437 50 l 25
 63 50 l 25
 63 612 l 25
EndSplineSet
EndChar

StartChar: Igrave
Encoding: 204 204 141
Width: 500
Flags: HW
LayerCount: 2
Fore
SplineSet
125 612 m 25
 375 612 l 25
 375 550 l 25
 312 550 l 25
 312 112 l 25
 375 112 l 25
 375 50 l 25
 125 50 l 25
 125 112 l 25
 188 112 l 25
 188 550 l 25
 125 550 l 25
 125 612 l 25
125 800 m 25
 250 800 l 25
 250 737 l 25
 312 737 l 25
 312 675 l 25
 188 675 l 25
 188 738 l 25
 125 738 l 25
 125 800 l 25
EndSplineSet
EndChar

StartChar: Iacute
Encoding: 205 205 142
Width: 500
Flags: HW
LayerCount: 2
Fore
SplineSet
125 612 m 25
 375 612 l 25
 375 550 l 25
 312 550 l 25
 312 112 l 25
 375 112 l 25
 375 50 l 25
 125 50 l 25
 125 112 l 25
 188 112 l 25
 188 550 l 25
 125 550 l 25
 125 612 l 25
375 800 m 25
 250 800 l 25
 250 737 l 25
 188 737 l 25
 188 675 l 25
 312 675 l 25
 312 738 l 25
 375 738 l 25
 375 800 l 25
EndSplineSet
EndChar

StartChar: Icircumflex
Encoding: 206 206 143
Width: 500
Flags: HW
LayerCount: 2
Fore
SplineSet
125 800 m 25
 375 800 l 25
 375 737 l 25
 437 737 l 25
 437 675 l 25
 313 675 l 25
 313 738 l 25
 187 738 l 25
 187 675 l 25
 63 675 l 25
 63 737 l 25
 125 737 l 25
 125 800 l 25
125 612 m 25
 375 612 l 25
 375 550 l 25
 312 550 l 25
 312 112 l 25
 375 112 l 25
 375 50 l 25
 125 50 l 25
 125 112 l 25
 188 112 l 25
 188 550 l 25
 125 550 l 25
 125 612 l 25
EndSplineSet
EndChar

StartChar: Idieresis
Encoding: 207 207 144
Width: 500
Flags: HW
LayerCount: 2
Fore
SplineSet
313 800 m 25
 437 800 l 25
 437 675 l 25
 313 675 l 25
 313 800 l 25
63 800 m 25
 187 800 l 25
 187 675 l 25
 63 675 l 25
 63 800 l 25
125 612 m 25
 375 612 l 25
 375 550 l 25
 312 550 l 25
 312 112 l 25
 375 112 l 25
 375 50 l 25
 125 50 l 25
 125 112 l 25
 188 112 l 25
 188 550 l 25
 125 550 l 25
 125 612 l 25
EndSplineSet
EndChar

StartChar: Eth
Encoding: 208 208 145
Width: 500
Flags: HW
LayerCount: 2
Fore
SplineSet
63 612 m 1
 312 612 l 1
 312 550 l 1
 375 550 l 1
 375 487 l 1
 437 487 l 1
 437 175 l 1
 375 175 l 1
 375 113 l 1
 312 113 l 1
 312 110 312 50 312 50 c 1
 63 50 l 1
 63 300 l 1
 0 300 l 1
 0 362 l 1
 63 362 l 1
 63 612 l 1
187 300 m 1
 187 112 l 1
 250 112 l 1
 250 175 l 1
 313 175 l 1
 313 488 l 1
 250 488 l 1
 250 550 l 1
 187 550 l 1
 187 362 l 1
 250 362 l 1
 250 300 l 1
 187 300 l 1
EndSplineSet
EndChar

StartChar: Ntilde
Encoding: 209 209 146
Width: 500
Flags: HW
LayerCount: 2
Fore
SplineSet
63 612 m 25
 187 612 l 25
 187 487 l 25
 250 487 l 25
 250 425 l 25
 312 425 l 25
 312 362 l 25
 375 362 l 25
 375 612 l 25
 500 612 l 25
 500 50 l 25
 375 50 l 25
 375 238 l 25
 313 238 l 25
 313 300 l 25
 250 300 l 25
 250 363 l 25
 187 363 l 25
 187 50 l 25
 63 50 l 25
 63 612 l 25
125 800 m 25
 312 800 l 25
 312 737 l 25
 375 737 l 25
 375 800 l 25
 500 800 l 25
 500 738 l 25
 437 738 l 25
 437 675 l 25
 250 675 l 25
 250 738 l 25
 187 738 l 25
 187 675 l 25
 63 675 l 25
 63 737 l 25
 125 737 l 25
 125 800 l 25
EndSplineSet
EndChar

StartChar: Ograve
Encoding: 210 210 147
Width: 500
Flags: HW
LayerCount: 2
Fore
SplineSet
187 550 m 29
 187 112 l 29
 313 112 l 29
 313 550 l 29
 187 550 l 29
125 612 m 29
 375 612 l 29
 375 550 l 29
 437 550 l 29
 437 113 l 29
 375 113 l 29
 375 50 l 29
 125 50 l 29
 125 113 l 29
 63 113 l 29
 63 550 l 29
 125 550 l 29
 125 612 l 29
125 800 m 29
 250 800 l 29
 250 737 l 29
 312 737 l 29
 312 675 l 29
 188 675 l 29
 188 738 l 29
 125 738 l 29
 125 800 l 29
EndSplineSet
EndChar

StartChar: Oacute
Encoding: 211 211 148
Width: 500
Flags: HW
LayerCount: 2
Fore
SplineSet
187 550 m 25
 187 112 l 25
 313 112 l 25
 313 550 l 25
 187 550 l 25
125 612 m 25
 375 612 l 25
 375 550 l 25
 437 550 l 25
 437 113 l 25
 375 113 l 25
 375 50 l 25
 125 50 l 25
 125 113 l 25
 63 113 l 25
 63 550 l 25
 125 550 l 25
 125 612 l 25
375 800 m 25
 250 800 l 25
 250 737 l 25
 188 737 l 25
 188 675 l 25
 312 675 l 25
 312 738 l 25
 375 738 l 25
 375 800 l 25
EndSplineSet
EndChar

StartChar: Ocircumflex
Encoding: 212 212 149
Width: 500
Flags: HW
LayerCount: 2
Fore
SplineSet
125 800 m 25
 375 800 l 25
 375 737 l 25
 437 737 l 25
 437 675 l 25
 313 675 l 25
 313 738 l 25
 187 738 l 25
 187 675 l 25
 63 675 l 25
 63 737 l 25
 125 737 l 25
 125 800 l 25
187 550 m 25
 187 112 l 25
 313 112 l 25
 313 550 l 25
 187 550 l 25
125 612 m 25
 375 612 l 25
 375 550 l 25
 437 550 l 25
 437 113 l 25
 375 113 l 25
 375 50 l 25
 125 50 l 25
 125 113 l 25
 63 113 l 25
 63 550 l 25
 125 550 l 25
 125 612 l 25
EndSplineSet
EndChar

StartChar: Otilde
Encoding: 213 213 150
Width: 500
Flags: HW
LayerCount: 2
Fore
SplineSet
125 800 m 25
 312 800 l 25
 312 737 l 25
 375 737 l 25
 375 800 l 25
 500 800 l 25
 500 738 l 25
 437 738 l 25
 437 675 l 25
 250 675 l 25
 250 738 l 25
 187 738 l 25
 187 675 l 25
 63 675 l 25
 63 737 l 25
 125 737 l 25
 125 800 l 25
187 550 m 25
 187 112 l 25
 313 112 l 25
 313 550 l 25
 187 550 l 25
125 612 m 25
 375 612 l 25
 375 550 l 25
 437 550 l 25
 437 113 l 25
 375 113 l 25
 375 50 l 25
 125 50 l 25
 125 113 l 25
 63 113 l 25
 63 550 l 25
 125 550 l 25
 125 612 l 25
EndSplineSet
EndChar

StartChar: Odieresis
Encoding: 214 214 151
Width: 500
Flags: HW
LayerCount: 2
Fore
SplineSet
313 800 m 25
 437 800 l 25
 437 675 l 25
 313 675 l 25
 313 800 l 25
63 800 m 25
 187 800 l 25
 187 675 l 25
 63 675 l 25
 63 800 l 25
187 550 m 25
 187 112 l 25
 313 112 l 25
 313 550 l 25
 187 550 l 25
125 612 m 25
 375 612 l 25
 375 550 l 25
 437 550 l 25
 437 113 l 25
 375 113 l 25
 375 50 l 25
 125 50 l 25
 125 113 l 25
 63 113 l 25
 63 550 l 25
 125 550 l 25
 125 612 l 25
EndSplineSet
EndChar

StartChar: multiply
Encoding: 215 215 152
Width: 500
Flags: HW
LayerCount: 2
Fore
SplineSet
63 550 m 25
 125 550 l 25
 125 487 l 25
 187 487 l 25
 187 425 l 25
 313 425 l 25
 313 487 l 25
 375 487 l 25
 375 550 l 25
 437 550 l 25
 437 425 l 25
 375 425 l 25
 375 363 l 25
 312 363 l 25
 312 300 l 25
 375 300 l 25
 375 237 l 25
 437 237 l 25
 437 113 l 25
 375 113 l 25
 375 175 l 25
 313 175 l 25
 313 238 l 25
 187 238 l 25
 187 175 l 25
 125 175 l 25
 125 113 l 25
 63 113 l 25
 63 237 l 25
 125 237 l 25
 125 300 l 25
 188 300 l 25
 188 363 l 25
 125 363 l 25
 125 425 l 25
 63 425 l 25
 63 550 l 25
EndSplineSet
EndChar

StartChar: Oslash
Encoding: 216 216 153
Width: 500
Flags: HW
LayerCount: 2
Fore
SplineSet
250 300 m 25
 250 175 l 25
 187 175 l 25
 187 112 l 25
 313 112 l 25
 313 300 l 25
 250 300 l 25
187 550 m 25
 187 362 l 25
 250 362 l 25
 250 487 l 25
 313 487 l 25
 313 550 l 25
 187 550 l 25
125 612 m 25
 437 612 l 25
 437 113 l 25
 375 113 l 25
 375 50 l 25
 63 50 l 25
 63 550 l 25
 125 550 l 25
 125 612 l 25
EndSplineSet
EndChar

StartChar: Ugrave
Encoding: 217 217 154
Width: 500
Flags: HW
LayerCount: 2
Fore
SplineSet
63 612 m 29
 187 612 l 29
 187 112 l 29
 313 112 l 29
 313 612 l 29
 437 612 l 29
 437 113 l 29
 375 113 l 29
 375 50 l 29
 125 50 l 29
 125 113 l 29
 63 113 l 29
 63 612 l 29
125 800 m 29
 250 800 l 29
 250 737 l 29
 312 737 l 29
 312 675 l 29
 188 675 l 29
 188 738 l 29
 125 738 l 29
 125 800 l 29
EndSplineSet
EndChar

StartChar: Uacute
Encoding: 218 218 155
Width: 500
Flags: HW
LayerCount: 2
Fore
SplineSet
63 612 m 25
 187 612 l 25
 187 112 l 25
 313 112 l 25
 313 612 l 25
 437 612 l 25
 437 113 l 25
 375 113 l 25
 375 50 l 25
 125 50 l 25
 125 113 l 25
 63 113 l 25
 63 612 l 25
375 800 m 25
 250 800 l 25
 250 737 l 25
 188 737 l 25
 188 675 l 25
 312 675 l 25
 312 738 l 25
 375 738 l 25
 375 800 l 25
EndSplineSet
EndChar

StartChar: Ucircumflex
Encoding: 219 219 156
Width: 500
Flags: HW
LayerCount: 2
Fore
SplineSet
125 800 m 25
 375 800 l 25
 375 737 l 25
 437 737 l 25
 437 675 l 25
 313 675 l 25
 313 738 l 25
 187 738 l 25
 187 675 l 25
 63 675 l 25
 63 737 l 25
 125 737 l 25
 125 800 l 25
63 612 m 25
 187 612 l 25
 187 112 l 25
 313 112 l 25
 313 612 l 25
 437 612 l 25
 437 113 l 25
 375 113 l 25
 375 50 l 25
 125 50 l 25
 125 113 l 25
 63 113 l 25
 63 612 l 25
EndSplineSet
EndChar

StartChar: Udieresis
Encoding: 220 220 157
Width: 500
Flags: HW
LayerCount: 2
Fore
SplineSet
313 800 m 25
 437 800 l 25
 437 675 l 25
 313 675 l 25
 313 800 l 25
63 800 m 25
 187 800 l 25
 187 675 l 25
 63 675 l 25
 63 800 l 25
63 612 m 25
 187 612 l 25
 187 112 l 25
 313 112 l 25
 313 612 l 25
 437 612 l 25
 437 113 l 25
 375 113 l 25
 375 50 l 25
 125 50 l 25
 125 113 l 25
 63 113 l 25
 63 612 l 25
EndSplineSet
EndChar

StartChar: Yacute
Encoding: 221 221 158
Width: 500
Flags: HW
LayerCount: 2
Fore
SplineSet
63 612 m 25
 187 612 l 25
 187 362 l 25
 313 362 l 25
 313 612 l 25
 437 612 l 25
 437 363 l 25
 375 363 l 25
 375 300 l 25
 312 300 l 25
 312 50 l 25
 188 50 l 25
 188 300 l 25
 125 300 l 25
 125 363 l 25
 63 363 l 25
 63 612 l 25
375 800 m 25
 250 800 l 25
 250 737 l 25
 188 737 l 25
 188 675 l 25
 312 675 l 25
 312 738 l 25
 375 738 l 25
 375 800 l 25
EndSplineSet
EndChar

StartChar: Thorn
Encoding: 222 222 159
Width: 500
Flags: HW
LayerCount: 2
Fore
SplineSet
890 400 m 1053
187 425 m 25
 187 237 l 25
 313 237 l 25
 313 425 l 25
 187 425 l 25
63 612 m 25
 187 612 l 25
 187 487 l 25
 375 487 l 25
 375 425 l 25
 437 425 l 25
 437 238 l 25
 375 238 l 25
 375 175 l 25
 187 175 l 25
 187 50 l 25
 63 50 l 25
 63 612 l 25
EndSplineSet
EndChar

StartChar: germandbls
Encoding: 223 223 160
Width: 500
Flags: HW
LayerCount: 2
Fore
SplineSet
125 612 m 25
 312 612 l 25
 312 550 l 25
 375 550 l 25
 375 362 l 25
 437 362 l 25
 437 113 l 25
 375 113 l 25
 375 50 l 25
 250 50 l 25
 250 112 l 25
 313 112 l 25
 313 363 l 25
 250 363 l 25
 250 550 l 25
 187 550 l 25
 187 50 l 25
 63 50 l 25
 63 550 l 25
 125 550 l 25
 125 612 l 25
EndSplineSet
EndChar

StartChar: ccedilla
Encoding: 231 231 161
Width: 500
Flags: HW
LayerCount: 2
Fore
SplineSet
125 487 m 25
 375 487 l 25
 375 425 l 25
 437 425 l 25
 437 363 l 25
 313 363 l 25
 313 425 l 25
 187 425 l 25
 187 112 l 25
 313 112 l 25
 313 175 l 25
 437 175 l 25
 437 113 l 25
 375 113 l 25
 375 50 l 25
 312 50 l 25
 312 -13 l 25
 375 -13 l 25
 375 -75 l 25
 312 -75 l 25
 312 -200 l 25
 125 -200 l 25
 125 -75 l 25
 250 -75 l 25
 250 -12 l 25
 188 -12 l 25
 188 50 l 25
 125 50 l 25
 125 113 l 25
 63 113 l 25
 63 425 l 25
 125 425 l 25
 125 487 l 25
EndSplineSet
EndChar

StartChar: agrave
Encoding: 224 224 162
Width: 500
Flags: HW
LayerCount: 2
Fore
SplineSet
187 238 m 25
 187 112 l 25
 313 112 l 25
 313 238 l 25
 187 238 l 25
125 487 m 25
 375 487 l 25
 375 425 l 25
 437 425 l 25
 437 50 l 25
 125 50 l 25
 125 113 l 25
 63 113 l 25
 63 237 l 25
 125 237 l 25
 125 300 l 25
 313 300 l 25
 313 425 l 25
 125 425 l 25
 125 487 l 25
63 737 m 25
 250 737 l 25
 250 612 l 25
 312 612 l 25
 312 550 l 25
 188 550 l 25
 188 613 l 25
 125 613 l 25
 125 675 l 25
 63 675 l 25
 63 737 l 25
EndSplineSet
EndChar

StartChar: aacute
Encoding: 225 225 163
Width: 500
Flags: HW
LayerCount: 2
Fore
SplineSet
187 238 m 25
 187 112 l 25
 313 112 l 25
 313 238 l 25
 187 238 l 25
125 487 m 25
 375 487 l 25
 375 425 l 25
 437 425 l 25
 437 50 l 25
 125 50 l 25
 125 113 l 25
 63 113 l 25
 63 237 l 25
 125 237 l 25
 125 300 l 25
 313 300 l 25
 313 425 l 25
 125 425 l 25
 125 487 l 25
437 737 m 25
 250 737 l 25
 250 612 l 25
 188 612 l 25
 188 550 l 25
 312 550 l 25
 312 613 l 25
 375 613 l 25
 375 675 l 25
 437 675 l 25
 437 737 l 25
EndSplineSet
EndChar

StartChar: acircumflex
Encoding: 226 226 164
Width: 500
Flags: HW
LayerCount: 2
Fore
SplineSet
188 737 m 25
 312 737 l 25
 312 675 l 25
 375 675 l 25
 375 612 l 25
 437 612 l 25
 437 550 l 25
 313 550 l 25
 313 613 l 25
 187 613 l 25
 187 550 l 25
 63 550 l 25
 63 612 l 25
 125 612 l 25
 125 675 l 25
 188 675 l 25
 188 737 l 25
187 238 m 25
 187 112 l 25
 313 112 l 25
 313 238 l 25
 187 238 l 25
125 487 m 25
 375 487 l 25
 375 425 l 25
 437 425 l 25
 437 50 l 25
 125 50 l 25
 125 113 l 25
 63 113 l 25
 63 237 l 25
 125 237 l 25
 125 300 l 25
 313 300 l 25
 313 425 l 25
 125 425 l 25
 125 487 l 25
EndSplineSet
EndChar

StartChar: atilde
Encoding: 227 227 165
Width: 500
Flags: HW
LayerCount: 2
Fore
SplineSet
63 737 m 25
 250 737 l 25
 250 675 l 25
 312 675 l 25
 312 612 l 25
 375 612 l 25
 375 675 l 25
 438 675 l 25
 438 737 l 25
 500 737 l 25
 500 613 l 25
 437 613 l 25
 437 550 l 25
 250 550 l 25
 250 613 l 25
 188 613 l 25
 188 675 l 25
 125 675 l 25
 125 613 l 25
 62 613 l 25
 62 550 l 25
 0 550 l 25
 0 675 l 25
 63 675 l 25
 63 737 l 25
187 238 m 25
 187 112 l 25
 313 112 l 25
 313 238 l 25
 187 238 l 25
125 487 m 25
 375 487 l 25
 375 425 l 25
 437 425 l 25
 437 50 l 25
 125 50 l 25
 125 113 l 25
 63 113 l 25
 63 237 l 25
 125 237 l 25
 125 300 l 25
 313 300 l 25
 313 425 l 25
 125 425 l 25
 125 487 l 25
EndSplineSet
EndChar

StartChar: adieresis
Encoding: 228 228 166
Width: 500
Flags: HW
LayerCount: 2
Fore
SplineSet
313 675 m 25
 437 675 l 25
 437 550 l 25
 313 550 l 25
 313 675 l 25
63 675 m 25
 187 675 l 25
 187 550 l 25
 63 550 l 25
 63 675 l 25
187 238 m 25
 187 112 l 25
 313 112 l 25
 313 238 l 25
 187 238 l 25
125 487 m 25
 375 487 l 25
 375 425 l 25
 437 425 l 25
 437 50 l 25
 125 50 l 25
 125 113 l 25
 63 113 l 25
 63 237 l 25
 125 237 l 25
 125 300 l 25
 313 300 l 25
 313 425 l 25
 125 425 l 25
 125 487 l 25
EndSplineSet
EndChar

StartChar: aring
Encoding: 229 229 167
Width: 500
Flags: HW
LayerCount: 2
Fore
SplineSet
187 668 m 25
 187 609 l 25
 313 609 l 25
 313 668 l 25
 187 668 l 25
125 726 m 25
 375 726 l 25
 375 667 l 25
 437 667 l 25
 437 609 l 25
 375 609 l 25
 375 551 l 25
 125 551 l 25
 125 609 l 25
 63 609 l 25
 63 667 l 25
 125 667 l 25
 125 726 l 25
187 238 m 25
 187 112 l 25
 313 112 l 25
 313 238 l 25
 187 238 l 25
125 487 m 25
 375 487 l 25
 375 425 l 25
 437 425 l 25
 437 50 l 25
 125 50 l 25
 125 113 l 25
 63 113 l 25
 63 237 l 25
 125 237 l 25
 125 300 l 25
 313 300 l 25
 313 425 l 25
 125 425 l 25
 125 487 l 25
EndSplineSet
EndChar

StartChar: ae
Encoding: 230 230 168
Width: 500
Flags: HW
LayerCount: 2
Fore
SplineSet
124 238 m 25
 125 112 l 25
 188 112 l 25
 188 238 l 25
 124 238 l 25
312 425 m 25
 312 300 l 25
 375 300 l 25
 375 425 l 25
 312 425 l 25
73 487 m 25
 187 487 l 1
 187 427 l 1
 189 425 l 1
 250 425 l 1
 250 487 l 25
 437 487 l 25
 437 425 l 25
 474 425 l 25
 474 238 l 25
 312 238 l 1
 312 114 l 1
 314 112 l 1
 474 112 l 1
 474 50 l 25
 313 50 l 25
 313 111 l 25
 311 113 l 25
 250 113 l 25
 250 50 l 25
 73 50 l 25
 73 113 l 25
 22 113 l 25
 22 237 l 25
 73 237 l 25
 73 300 l 25
 188 300 l 25
 188 424 l 25
 186 426 l 25
 73 425 l 25
 73 487 l 25
EndSplineSet
EndChar

StartChar: egrave
Encoding: 232 232 169
Width: 500
Flags: HW
LayerCount: 2
Fore
SplineSet
187 425 m 25
 187 300 l 25
 313 300 l 25
 313 425 l 25
 187 425 l 25
125 487 m 25
 375 487 l 25
 375 425 l 25
 437 425 l 25
 437 238 l 25
 187 238 l 25
 187 112 l 25
 375 112 l 25
 375 50 l 25
 125 50 l 25
 125 113 l 25
 63 113 l 25
 63 425 l 25
 125 425 l 25
 125 487 l 25
63 737 m 25
 250 737 l 25
 250 612 l 25
 312 612 l 25
 312 550 l 25
 188 550 l 25
 188 613 l 25
 125 613 l 25
 125 675 l 25
 63 675 l 25
 63 737 l 25
EndSplineSet
EndChar

StartChar: eacute
Encoding: 233 233 170
Width: 500
Flags: HW
LayerCount: 2
Fore
SplineSet
187 425 m 25
 187 300 l 25
 313 300 l 25
 313 425 l 25
 187 425 l 25
125 487 m 25
 375 487 l 25
 375 425 l 25
 437 425 l 25
 437 238 l 25
 187 238 l 25
 187 112 l 25
 375 112 l 25
 375 50 l 25
 125 50 l 25
 125 113 l 25
 63 113 l 25
 63 425 l 25
 125 425 l 25
 125 487 l 25
437 737 m 25
 250 737 l 25
 250 612 l 25
 188 612 l 25
 188 550 l 25
 312 550 l 25
 312 613 l 25
 375 613 l 25
 375 675 l 25
 437 675 l 25
 437 737 l 25
EndSplineSet
EndChar

StartChar: ecircumflex
Encoding: 234 234 171
Width: 500
Flags: HW
LayerCount: 2
Fore
SplineSet
188 737 m 29
 312 737 l 25
 312 675 l 25
 375 675 l 25
 375 612 l 25
 437 612 l 25
 437 550 l 25
 313 550 l 25
 313 613 l 25
 187 613 l 25
 187 550 l 25
 63 550 l 25
 63 612 l 25
 125 612 l 25
 125 675 l 25
 188 675 l 25
 188 737 l 29
187 425 m 25
 187 300 l 25
 313 300 l 25
 313 425 l 25
 187 425 l 25
125 487 m 25
 375 487 l 25
 375 425 l 25
 437 425 l 25
 437 238 l 25
 187 238 l 25
 187 112 l 25
 375 112 l 25
 375 50 l 25
 125 50 l 25
 125 113 l 25
 63 113 l 25
 63 425 l 25
 125 425 l 25
 125 487 l 25
EndSplineSet
EndChar

StartChar: edieresis
Encoding: 235 235 172
Width: 500
Flags: HW
LayerCount: 2
Fore
SplineSet
313 675 m 25
 437 675 l 25
 437 550 l 25
 313 550 l 25
 313 675 l 25
63 675 m 25
 187 675 l 25
 187 550 l 25
 63 550 l 25
 63 675 l 25
187 425 m 25
 187 300 l 25
 313 300 l 25
 313 425 l 25
 187 425 l 25
125 487 m 25
 375 487 l 25
 375 425 l 25
 437 425 l 25
 437 238 l 25
 187 238 l 25
 187 112 l 25
 375 112 l 25
 375 50 l 25
 125 50 l 25
 125 113 l 25
 63 113 l 25
 63 425 l 25
 125 425 l 25
 125 487 l 25
EndSplineSet
EndChar

StartChar: igrave
Encoding: 236 236 173
Width: 500
Flags: HW
LayerCount: 2
Fore
SplineSet
63 487 m 25
 312 487 l 25
 312 112 l 25
 437 112 l 25
 437 50 l 25
 63 50 l 25
 63 112 l 25
 188 112 l 25
 188 425 l 25
 63 425 l 25
 63 487 l 25
63 737 m 25
 250 737 l 25
 250 612 l 25
 312 612 l 25
 312 550 l 25
 188 550 l 25
 188 613 l 25
 125 613 l 25
 125 675 l 25
 63 675 l 25
 63 737 l 25
EndSplineSet
EndChar

StartChar: iacute
Encoding: 237 237 174
Width: 500
Flags: HW
LayerCount: 2
Fore
SplineSet
63 487 m 25
 312 487 l 25
 312 112 l 25
 437 112 l 25
 437 50 l 25
 63 50 l 25
 63 112 l 25
 188 112 l 25
 188 425 l 25
 63 425 l 25
 63 487 l 25
437 737 m 25
 250 737 l 25
 250 612 l 25
 188 612 l 25
 188 550 l 25
 312 550 l 25
 312 613 l 25
 375 613 l 25
 375 675 l 25
 437 675 l 25
 437 737 l 25
EndSplineSet
EndChar

StartChar: icircumflex
Encoding: 238 238 175
Width: 500
Flags: HW
LayerCount: 2
Fore
SplineSet
188 737 m 29
 312 737 l 29
 312 675 l 29
 375 675 l 29
 375 612 l 29
 437 612 l 29
 437 550 l 29
 313 550 l 29
 313 613 l 29
 187 613 l 29
 187 550 l 29
 63 550 l 29
 63 612 l 29
 125 612 l 29
 125 675 l 29
 188 675 l 29
 188 737 l 29
63 487 m 25
 312 487 l 25
 312 112 l 25
 437 112 l 25
 437 50 l 25
 63 50 l 25
 63 112 l 25
 188 112 l 25
 188 425 l 25
 63 425 l 25
 63 487 l 25
EndSplineSet
EndChar

StartChar: idieresis
Encoding: 239 239 176
Width: 500
Flags: HW
LayerCount: 2
Fore
SplineSet
313 675 m 29
 437 675 l 29
 437 550 l 29
 313 550 l 29
 313 675 l 29
63 675 m 29
 187 675 l 29
 187 550 l 29
 63 550 l 29
 63 675 l 29
63 487 m 29
 312 487 l 29
 312 112 l 29
 437 112 l 29
 437 50 l 29
 63 50 l 29
 63 112 l 29
 188 112 l 29
 188 425 l 29
 63 425 l 29
 63 487 l 29
EndSplineSet
EndChar

StartChar: eth
Encoding: 240 240 177
Width: 500
Flags: HW
LayerCount: 2
Fore
SplineSet
187 359 m 25
 187 112 l 1
 313 112 l 25
 313 363 l 25
 191 363 l 1
 187 359 l 25
125 612 m 25
 250 612 l 25
 250 550 l 1
 307 550 l 1
 313 556 l 1
 313 612 l 1
 437 612 l 25
 437 550 l 1
 318 550 l 1
 312 544 l 1
 312 487 l 1
 375 487 l 25
 375 425 l 25
 437 425 l 25
 437 113 l 25
 375 113 l 25
 375 50 l 25
 125 50 l 25
 125 113 l 25
 63 113 l 25
 63 362 l 1
 185 362 l 1
 188 365 l 1
 188 414 l 0
 199 425 l 1
 250 425 l 1
 250 488 l 1
 194 488 l 1
 187 481 l 1
 187 437 l 1
 174 425 l 0
 63 425 l 1
 63 487 l 1
 181 487 l 1
 188 494 l 1
 188 550 l 1
 125 550 l 25
 125 612 l 25
EndSplineSet
EndChar

StartChar: ntilde
Encoding: 241 241 178
Width: 500
Flags: HW
LayerCount: 2
Fore
SplineSet
63 487 m 29
 375 487 l 25
 375 425 l 25
 437 425 l 25
 437 50 l 25
 313 50 l 25
 313 425 l 25
 187 425 l 25
 187 50 l 25
 63 50 l 25
 63 487 l 29
63 737 m 25
 250 737 l 25
 250 675 l 25
 312 675 l 25
 312 612 l 25
 375 612 l 25
 375 675 l 25
 438 675 l 25
 438 737 l 25
 500 737 l 25
 500 613 l 25
 437 613 l 25
 437 550 l 25
 250 550 l 25
 250 613 l 25
 188 613 l 25
 188 675 l 25
 125 675 l 25
 125 613 l 25
 62 613 l 25
 62 550 l 25
 0 550 l 25
 0 675 l 25
 63 675 l 25
 63 737 l 25
EndSplineSet
EndChar

StartChar: ograve
Encoding: 242 242 179
Width: 500
Flags: HW
LayerCount: 2
Fore
SplineSet
187 425 m 29
 187 112 l 25
 313 112 l 25
 313 425 l 25
 187 425 l 29
125 487 m 25
 375 487 l 25
 375 425 l 25
 437 425 l 25
 437 113 l 25
 375 113 l 25
 375 50 l 25
 125 50 l 25
 125 113 l 25
 63 113 l 25
 63 425 l 25
 125 425 l 25
 125 487 l 25
63 737 m 25
 250 737 l 25
 250 612 l 25
 312 612 l 25
 312 550 l 25
 188 550 l 25
 188 613 l 25
 125 613 l 25
 125 675 l 25
 63 675 l 25
 63 737 l 25
EndSplineSet
EndChar

StartChar: oacute
Encoding: 243 243 180
Width: 500
Flags: HW
LayerCount: 2
Fore
SplineSet
187 425 m 25
 187 112 l 25
 313 112 l 25
 313 425 l 25
 187 425 l 25
125 487 m 25
 375 487 l 25
 375 425 l 25
 437 425 l 25
 437 113 l 25
 375 113 l 25
 375 50 l 25
 125 50 l 25
 125 113 l 25
 63 113 l 25
 63 425 l 25
 125 425 l 25
 125 487 l 25
437 737 m 25
 250 737 l 25
 250 612 l 25
 188 612 l 25
 188 550 l 25
 312 550 l 25
 312 613 l 25
 375 613 l 25
 375 675 l 25
 437 675 l 25
 437 737 l 25
EndSplineSet
EndChar

StartChar: ocircumflex
Encoding: 244 244 181
Width: 500
Flags: HW
LayerCount: 2
Fore
SplineSet
188 737 m 25
 312 737 l 25
 312 675 l 25
 375 675 l 25
 375 612 l 25
 437 612 l 25
 437 550 l 25
 313 550 l 25
 313 613 l 25
 187 613 l 25
 187 550 l 25
 63 550 l 25
 63 612 l 25
 125 612 l 25
 125 675 l 25
 188 675 l 25
 188 737 l 25
187 425 m 25
 187 112 l 25
 313 112 l 25
 313 425 l 25
 187 425 l 25
125 487 m 25
 375 487 l 25
 375 425 l 25
 437 425 l 25
 437 113 l 25
 375 113 l 25
 375 50 l 25
 125 50 l 25
 125 113 l 25
 63 113 l 25
 63 425 l 25
 125 425 l 25
 125 487 l 25
EndSplineSet
EndChar

StartChar: otilde
Encoding: 245 245 182
Width: 500
Flags: HW
LayerCount: 2
Fore
SplineSet
63 737 m 25
 250 737 l 25
 250 675 l 25
 312 675 l 25
 312 612 l 25
 375 612 l 25
 375 675 l 25
 438 675 l 25
 438 737 l 25
 500 737 l 25
 500 613 l 25
 437 613 l 25
 437 550 l 25
 250 550 l 25
 250 613 l 25
 188 613 l 25
 188 675 l 25
 125 675 l 25
 125 613 l 25
 62 613 l 25
 62 550 l 25
 0 550 l 25
 0 675 l 25
 63 675 l 25
 63 737 l 25
187 425 m 25
 187 112 l 25
 313 112 l 25
 313 425 l 25
 187 425 l 25
125 487 m 25
 375 487 l 25
 375 425 l 25
 437 425 l 25
 437 113 l 25
 375 113 l 25
 375 50 l 25
 125 50 l 25
 125 113 l 25
 63 113 l 25
 63 425 l 25
 125 425 l 25
 125 487 l 25
EndSplineSet
EndChar

StartChar: odieresis
Encoding: 246 246 183
Width: 500
Flags: HW
LayerCount: 2
Fore
SplineSet
313 675 m 25
 437 675 l 25
 437 550 l 25
 313 550 l 25
 313 675 l 25
63 675 m 25
 187 675 l 25
 187 550 l 25
 63 550 l 25
 63 675 l 25
187 425 m 25
 187 112 l 25
 313 112 l 25
 313 425 l 25
 187 425 l 25
125 487 m 25
 375 487 l 25
 375 425 l 25
 437 425 l 25
 437 113 l 25
 375 113 l 25
 375 50 l 25
 125 50 l 25
 125 113 l 25
 63 113 l 25
 63 425 l 25
 125 425 l 25
 125 487 l 25
EndSplineSet
EndChar

StartChar: divide
Encoding: 247 247 184
Width: 500
Flags: HW
LayerCount: 2
Fore
SplineSet
188 237 m 25
 312 237 l 25
 312 113 l 25
 188 113 l 25
 188 237 l 25
63 362 m 25
 437 362 l 25
 437 300 l 25
 63 300 l 25
 63 362 l 25
188 550 m 25
 312 550 l 25
 312 425 l 25
 188 425 l 25
 188 550 l 25
EndSplineSet
EndChar

StartChar: oslash
Encoding: 248 248 185
Width: 500
Flags: HW
LayerCount: 2
Fore
SplineSet
250 238 m 25
 250 175 l 25
 187 175 l 25
 187 112 l 25
 313 112 l 25
 313 238 l 25
 250 238 l 25
187 425 m 25
 187 300 l 25
 250 300 l 25
 250 362 l 25
 313 362 l 25
 313 425 l 25
 187 425 l 25
125 487 m 25
 437 487 l 25
 437 113 l 25
 375 113 l 25
 375 50 l 25
 63 50 l 25
 63 425 l 25
 125 425 l 25
 125 487 l 25
EndSplineSet
EndChar

StartChar: ugrave
Encoding: 249 249 186
Width: 500
Flags: HW
LayerCount: 2
Fore
SplineSet
63 487 m 29
 187 487 l 25
 187 112 l 25
 313 112 l 25
 313 487 l 25
 437 487 l 25
 437 50 l 25
 125 50 l 25
 125 113 l 25
 63 113 l 25
 63 487 l 29
63 737 m 25
 250 737 l 25
 250 612 l 25
 312 612 l 25
 312 550 l 25
 188 550 l 25
 188 613 l 25
 125 613 l 25
 125 675 l 25
 63 675 l 25
 63 737 l 25
EndSplineSet
EndChar

StartChar: uacute
Encoding: 250 250 187
Width: 500
Flags: HW
LayerCount: 2
Fore
SplineSet
63 487 m 25
 187 487 l 25
 187 112 l 25
 313 112 l 25
 313 487 l 25
 437 487 l 25
 437 50 l 25
 125 50 l 25
 125 113 l 25
 63 113 l 25
 63 487 l 25
437 737 m 25
 250 737 l 25
 250 612 l 25
 188 612 l 25
 188 550 l 25
 312 550 l 25
 312 613 l 25
 375 613 l 25
 375 675 l 25
 437 675 l 25
 437 737 l 25
EndSplineSet
EndChar

StartChar: ucircumflex
Encoding: 251 251 188
Width: 500
Flags: HW
LayerCount: 2
Fore
SplineSet
188 737 m 25
 312 737 l 25
 312 675 l 25
 375 675 l 25
 375 612 l 25
 437 612 l 25
 437 550 l 25
 313 550 l 25
 313 613 l 25
 187 613 l 25
 187 550 l 25
 63 550 l 25
 63 612 l 25
 125 612 l 25
 125 675 l 25
 188 675 l 25
 188 737 l 25
63 487 m 25
 187 487 l 25
 187 112 l 25
 313 112 l 25
 313 487 l 25
 437 487 l 25
 437 50 l 25
 125 50 l 25
 125 113 l 25
 63 113 l 25
 63 487 l 25
EndSplineSet
EndChar

StartChar: udieresis
Encoding: 252 252 189
Width: 500
Flags: HW
LayerCount: 2
Fore
SplineSet
313 675 m 25
 437 675 l 25
 437 550 l 25
 313 550 l 25
 313 675 l 25
63 675 m 25
 187 675 l 25
 187 550 l 25
 63 550 l 25
 63 675 l 25
63 487 m 25
 187 487 l 25
 187 112 l 25
 313 112 l 25
 313 487 l 25
 437 487 l 25
 437 50 l 25
 125 50 l 25
 125 113 l 25
 63 113 l 25
 63 487 l 25
EndSplineSet
EndChar

StartChar: yacute
Encoding: 253 253 190
Width: 500
Flags: HW
LayerCount: 2
Fore
SplineSet
375 50 m 17
 375 113 l 1
 437 113 l 0
 437 487 l 9
 313 487 l 25
 313 112 l 25
 187 112 l 25
 187 487 l 25
 63 487 l 25
 63 113 l 25
 125 113 l 25
 125 50 l 1
 250 50 l 0
 250 50 250 12 250 -13 c 1
 188 -13 l 25
 188 -75 l 25
 0 -75 l 25
 0 -200 l 25
 250 -200 l 25
 250 -75 l 25
 312 -75 l 25
 312 -12 l 25
 375 -12 l 1
 375 50 l 17
437 737 m 25
 250 737 l 25
 250 612 l 25
 188 612 l 25
 188 550 l 25
 312 550 l 25
 312 613 l 25
 375 613 l 25
 375 675 l 25
 437 675 l 25
 437 737 l 25
EndSplineSet
EndChar

StartChar: thorn
Encoding: 254 254 191
Width: 500
Flags: HW
LayerCount: 2
Fore
SplineSet
890 400 m 1049
187 363 m 25
 187 112 l 25
 313 112 l 25
 313 363 l 25
 187 363 l 25
63 612 m 25
 187 612 l 25
 187 425 l 25
 375 425 l 25
 375 362 l 25
 437 362 l 25
 437 113 l 25
 375 113 l 25
 375 50 l 25
 187 50 l 25
 187 -200 l 25
 63 -200 l 25
 63 612 l 25
EndSplineSet
EndChar

StartChar: ydieresis
Encoding: 255 255 192
Width: 500
Flags: HW
LayerCount: 2
Fore
SplineSet
313 675 m 25
 437 675 l 25
 437 550 l 25
 313 550 l 25
 313 675 l 25
63 675 m 25
 187 675 l 25
 187 550 l 25
 63 550 l 25
 63 675 l 25
375 50 m 17
 375 113 l 1
 437 113 l 0
 437 487 l 9
 313 487 l 25
 313 112 l 25
 187 112 l 25
 187 487 l 25
 63 487 l 25
 63 113 l 25
 125 113 l 25
 125 50 l 1
 250 50 l 0
 250 50 250 12 250 -13 c 1
 188 -13 l 25
 188 -75 l 25
 0 -75 l 25
 0 -200 l 25
 250 -200 l 25
 250 -75 l 25
 312 -75 l 25
 312 -12 l 25
 375 -12 l 1
 375 50 l 17
EndSplineSet
EndChar

StartChar: uni0080
Encoding: 128 128 194
Width: 500
Flags: HW
LayerCount: 2
Fore
SplineSet
337.299804688 324.400390625 m 5
 287.700195312 324.400390625 l 5
 287.700195312 312 l 5
 287.700195312 299.599609375 l 5
 274.900390625 299.599609375 l 5
 262.5 299.599609375 l 5
 262.5 212 l 5
 262.5 124.400390625 l 5
 274.900390625 124.400390625 l 5
 287.700195312 124.400390625 l 5
 287.700195312 112 l 5
 287.700195312 99.599609375 l 5
 337.299804688 99.599609375 l 5
 387.700195312 99.599609375 l 5
 387.700195312 112 l 5
 387.700195312 124.400390625 l 5
 400.099609375 124.400390625 l 5
 412.5 124.400390625 l 5
 412.5 212 l 5
 412.5 299.599609375 l 5
 400.099609375 299.599609375 l 5
 387.700195312 299.599609375 l 5
 387.700195312 312 l 5
 387.700195312 324.400390625 l 5
 337.299804688 324.400390625 l 5
337.299804688 299.599609375 m 5
 362.5 299.599609375 l 5
 362.5 287.200195312 l 5
 362.5 276.799804688 l 5
 360.900390625 274.799804688 l 4
 350.099609375 274.799804688 l 5
 339.299804688 274.799804688 l 5
 337.299804688 272.400390625 l 4
 337.299804688 249.599609375 l 5
 336.900390625 226.799804688 l 5
 339.700195312 224.400390625 l 4
 350.099609375 224.400390625 l 5
 359.700195312 224.400390625 l 4
 362.5 222 l 5
 362.5 174.799804688 l 5
 362.5 128 l 5
 358.900390625 124.400390625 l 4
 337.299804688 124.400390625 l 5
 312.5 124.400390625 l 5
 312.5 137.200195312 l 5
 312.5 146 l 4
 315.700195312 149.599609375 l 5
 324.900390625 149.599609375 l 5
 334.5 149.599609375 l 5
 337.299804688 152.400390625 l 4
 337.299804688 174.799804688 l 5
 337.299804688 193.599609375 l 4
 337.299804688 196.400390625 l 5
 333.700195312 199.599609375 l 4
 324.900390625 199.599609375 l 5
 312.5 199.599609375 l 5
 312.5 249.599609375 l 5
 312.5 299.599609375 l 5
 337.299804688 299.599609375 l 5
287 569.400390625 m 1
 261.799804688 569.400390625 l 1
 261.799804688 544.599609375 l 1
 261.799804688 519.799804688 l 1
 274.599609375 519.799804688 l 1
 287 519.799804688 l 1
 287 507 l 1
 287 494.599609375 l 1
 299.400390625 494.599609375 l 1
 312.200195312 494.599609375 l 1
 312.200195312 469.400390625 l 1
 312.200195312 444.599609375 l 1
 299.400390625 444.599609375 l 1
 287 444.599609375 l 1
 287 432.200195312 l 1
 287 419.799804688 l 1
 274.599609375 419.799804688 l 1
 261.799804688 419.799804688 l 1
 261.799804688 382.200195312 l 1
 261.799804688 344.599609375 l 1
 287 344.599609375 l 1
 312.200195312 344.599609375 l 1
 312.200195312 394.599609375 l 1
 312.200195312 444.599609375 l 1
 324.599609375 444.599609375 l 1
 337 444.599609375 l 1
 337 432.200195312 l 1
 337 419.799804688 l 1
 349.400390625 419.799804688 l 1
 361.799804688 419.799804688 l 1
 361.799804688 382.200195312 l 1
 361.799804688 344.599609375 l 1
 387 344.599609375 l 1
 412.200195312 344.599609375 l 1
 412.200195312 382.200195312 l 1
 412.200195312 419.799804688 l 1
 399.400390625 419.799804688 l 1
 387 419.799804688 l 1
 387 432.200195312 l 1
 387 444.599609375 l 1
 374.599609375 444.599609375 l 1
 361.799804688 444.599609375 l 1
 361.799804688 469.400390625 l 1
 361.799804688 494.599609375 l 1
 374.599609375 494.599609375 l 1
 387 494.599609375 l 1
 387 507 l 1
 387 519.799804688 l 1
 399.400390625 519.799804688 l 1
 412.200195312 519.799804688 l 1
 412.200195312 544.599609375 l 1
 412.200195312 569.400390625 l 1
 387 569.400390625 l 1
 361.799804688 569.400390625 l 1
 361.799804688 532.200195312 l 1
 361.799804688 494.599609375 l 1
 349.400390625 494.599609375 l 1
 337 494.599609375 l 1
 337 507 l 1
 337 519.799804688 l 1
 324.599609375 519.799804688 l 1
 312.200195312 519.799804688 l 1
 312.200195312 544.599609375 l 1
 312.200195312 569.400390625 l 1
 287 569.400390625 l 1
165.299804688 572.400390625 m 1
 115.700195312 572.400390625 l 1
 115.700195312 560 l 1
 115.700195312 547.599609375 l 1
 102.900390625 547.599609375 l 1
 90.5 547.599609375 l 1
 90.5 460 l 1
 90.5 372.400390625 l 1
 102.900390625 372.400390625 l 1
 115.700195312 372.400390625 l 1
 115.700195312 360 l 1
 115.700195312 347.599609375 l 1
 165.299804688 347.599609375 l 1
 215.700195312 347.599609375 l 1
 215.700195312 360 l 1
 215.700195312 372.400390625 l 1
 228.099609375 372.400390625 l 1
 240.5 372.400390625 l 1
 240.5 460 l 1
 240.5 547.599609375 l 1
 228.099609375 547.599609375 l 1
 215.700195312 547.599609375 l 1
 215.700195312 560 l 1
 215.700195312 572.400390625 l 1
 165.299804688 572.400390625 l 1
165.299804688 547.599609375 m 1
 190.5 547.599609375 l 1
 190.5 535.200195312 l 1
 190.5 524.799804688 l 1
 188.900390625 522.799804688 l 0
 178.099609375 522.799804688 l 1
 167.299804688 522.799804688 l 1
 165.299804688 520.400390625 l 0
 165.299804688 497.599609375 l 1
 164.900390625 474.799804688 l 1
 167.700195312 472.400390625 l 0
 178.099609375 472.400390625 l 1
 187.700195312 472.400390625 l 0
 190.5 470 l 1
 190.5 422.799804688 l 1
 190.5 376 l 1
 186.900390625 372.400390625 l 0
 165.299804688 372.400390625 l 1
 140.5 372.400390625 l 1
 140.5 385.200195312 l 1
 140.5 394 l 0
 143.700195312 397.599609375 l 1
 152.900390625 397.599609375 l 1
 162.5 397.599609375 l 1
 165.299804688 400.400390625 l 0
 165.299804688 422.799804688 l 1
 165.299804688 441.599609375 l 0
 165.299804688 444.400390625 l 1
 161.700195312 447.599609375 l 0
 152.900390625 447.599609375 l 1
 140.5 447.599609375 l 1
 140.5 497.599609375 l 1
 140.5 547.599609375 l 1
 165.299804688 547.599609375 l 1
165 324.400390625 m 1
 115 324.400390625 l 1
 115 312 l 1
 115 299.599609375 l 1
 102.599609375 299.599609375 l 1
 89.7998046875 299.599609375 l 1
 89.7998046875 262 l 1
 89.7998046875 224.400390625 l 1
 102.599609375 224.400390625 l 1
 115 224.400390625 l 1
 115 212 l 1
 115 199.599609375 l 1
 102.599609375 199.599609375 l 1
 89.7998046875 199.599609375 l 1
 89.7998046875 162 l 1
 89.7998046875 124.400390625 l 1
 102.599609375 124.400390625 l 1
 115 124.400390625 l 1
 115 112 l 1
 115 99.599609375 l 1
 165 99.599609375 l 1
 215 99.599609375 l 1
 215 112 l 1
 215 124.400390625 l 1
 227.400390625 124.400390625 l 1
 240.200195312 124.400390625 l 1
 240.200195312 162 l 1
 240.200195312 199.599609375 l 1
 227.400390625 199.599609375 l 1
 215 199.599609375 l 1
 215 212 l 1
 215 224.400390625 l 1
 227.400390625 224.400390625 l 1
 240.200195312 224.400390625 l 1
 240.200195312 262 l 1
 240.200195312 299.599609375 l 1
 227.400390625 299.599609375 l 1
 215 299.599609375 l 1
 215 312 l 1
 215 324.400390625 l 1
 165 324.400390625 l 1
165 299.599609375 m 1
 189.799804688 299.599609375 l 1
 189.799804688 262 l 1
 189.799804688 224.400390625 l 1
 177.400390625 224.400390625 l 1
 165 224.400390625 l 1
 165 237.200195312 l 1
 165 249.599609375 l 1
 152.599609375 249.599609375 l 1
 140.200195312 249.599609375 l 1
 140.200195312 274.799804688 l 1
 140.200195312 299.599609375 l 1
 165 299.599609375 l 1
152.599609375 199.599609375 m 1
 165 199.599609375 l 1
 165 187.200195312 l 1
 165 174.799804688 l 1
 177.400390625 174.799804688 l 1
 189.799804688 174.799804688 l 1
 189.799804688 149.599609375 l 1
 189.799804688 124.400390625 l 1
 165 124.400390625 l 1
 140.200195312 124.400390625 l 1
 140.200195312 162 l 1
 140.200195312 199.599609375 l 1
 152.599609375 199.599609375 l 1
250 612 m 1
 433 612 l 0
 438 607 l 1
 438 331 l 1
 438 55 l 1
 433 50 l 0
 250 50 l 1
 67 50 l 1
 62 55 l 0
 62 331 l 1
 62 607 l 1
 67 612 l 0
 250 612 l 1
EndSplineSet
EndChar

StartChar: uni0081
Encoding: 129 129 195
Width: 500
Flags: HW
LayerCount: 2
Fore
SplineSet
374.900390625 320.400390625 m 5
 350.099609375 320.400390625 l 5
 350.099609375 308 l 5
 350.099609375 295.599609375 l 5
 337.700195312 295.599609375 l 5
 325.299804688 295.599609375 l 5
 325.299804688 283.200195312 l 5
 325.299804688 270.799804688 l 5
 300.099609375 270.799804688 l 5
 274.900390625 270.799804688 l 5
 274.900390625 258 l 5
 274.900390625 245.599609375 l 5
 312.5 245.599609375 l 5
 350.099609375 245.599609375 l 5
 350.099609375 170.799804688 l 5
 350.099609375 95.599609375 l 5
 374.900390625 95.599609375 l 5
 400.099609375 95.599609375 l 5
 400.099609375 208 l 5
 400.099609375 320.400390625 l 5
 374.900390625 320.400390625 l 5
287 569.400390625 m 1
 261.799804688 569.400390625 l 1
 261.799804688 544.599609375 l 1
 261.799804688 519.799804688 l 1
 274.599609375 519.799804688 l 1
 287 519.799804688 l 1
 287 507 l 1
 287 494.599609375 l 1
 299.400390625 494.599609375 l 1
 312.200195312 494.599609375 l 1
 312.200195312 469.400390625 l 1
 312.200195312 444.599609375 l 1
 299.400390625 444.599609375 l 1
 287 444.599609375 l 1
 287 432.200195312 l 1
 287 419.799804688 l 1
 274.599609375 419.799804688 l 1
 261.799804688 419.799804688 l 1
 261.799804688 382.200195312 l 1
 261.799804688 344.599609375 l 1
 287 344.599609375 l 1
 312.200195312 344.599609375 l 1
 312.200195312 394.599609375 l 1
 312.200195312 444.599609375 l 1
 324.599609375 444.599609375 l 1
 337 444.599609375 l 1
 337 432.200195312 l 1
 337 419.799804688 l 1
 349.400390625 419.799804688 l 1
 361.799804688 419.799804688 l 1
 361.799804688 382.200195312 l 1
 361.799804688 344.599609375 l 1
 387 344.599609375 l 1
 412.200195312 344.599609375 l 1
 412.200195312 382.200195312 l 1
 412.200195312 419.799804688 l 1
 399.400390625 419.799804688 l 1
 387 419.799804688 l 1
 387 432.200195312 l 1
 387 444.599609375 l 1
 374.599609375 444.599609375 l 1
 361.799804688 444.599609375 l 1
 361.799804688 469.400390625 l 1
 361.799804688 494.599609375 l 1
 374.599609375 494.599609375 l 1
 387 494.599609375 l 1
 387 507 l 1
 387 519.799804688 l 1
 399.400390625 519.799804688 l 1
 412.200195312 519.799804688 l 1
 412.200195312 544.599609375 l 1
 412.200195312 569.400390625 l 1
 387 569.400390625 l 1
 361.799804688 569.400390625 l 1
 361.799804688 532.200195312 l 1
 361.799804688 494.599609375 l 1
 349.400390625 494.599609375 l 1
 337 494.599609375 l 1
 337 507 l 1
 337 519.799804688 l 1
 324.599609375 519.799804688 l 1
 312.200195312 519.799804688 l 1
 312.200195312 544.599609375 l 1
 312.200195312 569.400390625 l 1
 287 569.400390625 l 1
165.299804688 572.400390625 m 1
 115.700195312 572.400390625 l 1
 115.700195312 560 l 1
 115.700195312 547.599609375 l 1
 102.900390625 547.599609375 l 1
 90.5 547.599609375 l 1
 90.5 460 l 1
 90.5 372.400390625 l 1
 102.900390625 372.400390625 l 1
 115.700195312 372.400390625 l 1
 115.700195312 360 l 1
 115.700195312 347.599609375 l 1
 165.299804688 347.599609375 l 1
 215.700195312 347.599609375 l 1
 215.700195312 360 l 1
 215.700195312 372.400390625 l 1
 228.099609375 372.400390625 l 1
 240.5 372.400390625 l 1
 240.5 460 l 1
 240.5 547.599609375 l 1
 228.099609375 547.599609375 l 1
 215.700195312 547.599609375 l 1
 215.700195312 560 l 1
 215.700195312 572.400390625 l 1
 165.299804688 572.400390625 l 1
165.299804688 547.599609375 m 1
 190.5 547.599609375 l 1
 190.5 535.200195312 l 1
 190.5 524.799804688 l 1
 188.900390625 522.799804688 l 0
 178.099609375 522.799804688 l 1
 167.299804688 522.799804688 l 1
 165.299804688 520.400390625 l 0
 165.299804688 497.599609375 l 1
 164.900390625 474.799804688 l 1
 167.700195312 472.400390625 l 0
 178.099609375 472.400390625 l 1
 187.700195312 472.400390625 l 0
 190.5 470 l 1
 190.5 422.799804688 l 1
 190.5 376 l 1
 186.900390625 372.400390625 l 0
 165.299804688 372.400390625 l 1
 140.5 372.400390625 l 1
 140.5 385.200195312 l 1
 140.5 394 l 0
 143.700195312 397.599609375 l 1
 152.900390625 397.599609375 l 1
 162.5 397.599609375 l 1
 165.299804688 400.400390625 l 0
 165.299804688 422.799804688 l 1
 165.299804688 441.599609375 l 0
 165.299804688 444.400390625 l 1
 161.700195312 447.599609375 l 0
 152.900390625 447.599609375 l 1
 140.5 447.599609375 l 1
 140.5 497.599609375 l 1
 140.5 547.599609375 l 1
 165.299804688 547.599609375 l 1
165 324.400390625 m 1
 115 324.400390625 l 1
 115 312 l 1
 115 299.599609375 l 1
 102.599609375 299.599609375 l 1
 89.7998046875 299.599609375 l 1
 89.7998046875 262 l 1
 89.7998046875 224.400390625 l 1
 102.599609375 224.400390625 l 1
 115 224.400390625 l 1
 115 212 l 1
 115 199.599609375 l 1
 102.599609375 199.599609375 l 1
 89.7998046875 199.599609375 l 1
 89.7998046875 162 l 1
 89.7998046875 124.400390625 l 1
 102.599609375 124.400390625 l 1
 115 124.400390625 l 1
 115 112 l 1
 115 99.599609375 l 1
 165 99.599609375 l 1
 215 99.599609375 l 1
 215 112 l 1
 215 124.400390625 l 1
 227.400390625 124.400390625 l 1
 240.200195312 124.400390625 l 1
 240.200195312 162 l 1
 240.200195312 199.599609375 l 1
 227.400390625 199.599609375 l 1
 215 199.599609375 l 1
 215 212 l 1
 215 224.400390625 l 1
 227.400390625 224.400390625 l 1
 240.200195312 224.400390625 l 1
 240.200195312 262 l 1
 240.200195312 299.599609375 l 1
 227.400390625 299.599609375 l 1
 215 299.599609375 l 1
 215 312 l 1
 215 324.400390625 l 1
 165 324.400390625 l 1
165 299.599609375 m 1
 189.799804688 299.599609375 l 1
 189.799804688 262 l 1
 189.799804688 224.400390625 l 1
 177.400390625 224.400390625 l 1
 165 224.400390625 l 1
 165 237.200195312 l 1
 165 249.599609375 l 1
 152.599609375 249.599609375 l 1
 140.200195312 249.599609375 l 1
 140.200195312 274.799804688 l 1
 140.200195312 299.599609375 l 1
 165 299.599609375 l 1
152.599609375 199.599609375 m 1
 165 199.599609375 l 1
 165 187.200195312 l 1
 165 174.799804688 l 1
 177.400390625 174.799804688 l 1
 189.799804688 174.799804688 l 1
 189.799804688 149.599609375 l 1
 189.799804688 124.400390625 l 1
 165 124.400390625 l 1
 140.200195312 124.400390625 l 1
 140.200195312 162 l 1
 140.200195312 199.599609375 l 1
 152.599609375 199.599609375 l 1
250 612 m 1
 433 612 l 0
 438 607 l 1
 438 331 l 1
 438 55 l 1
 433 50 l 0
 250 50 l 1
 67 50 l 1
 62 55 l 0
 62 331 l 1
 62 607 l 1
 67 612 l 0
 250 612 l 1
EndSplineSet
EndChar

StartChar: uni0000
Encoding: 0 0 196
Width: 500
Flags: HW
LayerCount: 2
Fore
SplineSet
287 569.400390625 m 1
 261.799804688 569.400390625 l 1
 261.799804688 544.599609375 l 1
 261.799804688 519.799804688 l 1
 274.599609375 519.799804688 l 1
 287 519.799804688 l 1
 287 507 l 1
 287 494.599609375 l 1
 299.400390625 494.599609375 l 1
 312.200195312 494.599609375 l 1
 312.200195312 469.400390625 l 1
 312.200195312 444.599609375 l 1
 299.400390625 444.599609375 l 1
 287 444.599609375 l 1
 287 432.200195312 l 1
 287 419.799804688 l 1
 274.599609375 419.799804688 l 1
 261.799804688 419.799804688 l 1
 261.799804688 382.200195312 l 1
 261.799804688 344.599609375 l 1
 287 344.599609375 l 1
 312.200195312 344.599609375 l 1
 312.200195312 394.599609375 l 1
 312.200195312 444.599609375 l 1
 324.599609375 444.599609375 l 1
 337 444.599609375 l 1
 337 432.200195312 l 1
 337 419.799804688 l 1
 349.400390625 419.799804688 l 1
 361.799804688 419.799804688 l 1
 361.799804688 382.200195312 l 1
 361.799804688 344.599609375 l 1
 387 344.599609375 l 1
 412.200195312 344.599609375 l 1
 412.200195312 382.200195312 l 1
 412.200195312 419.799804688 l 1
 399.400390625 419.799804688 l 1
 387 419.799804688 l 1
 387 432.200195312 l 1
 387 444.599609375 l 1
 374.599609375 444.599609375 l 1
 361.799804688 444.599609375 l 1
 361.799804688 469.400390625 l 1
 361.799804688 494.599609375 l 1
 374.599609375 494.599609375 l 1
 387 494.599609375 l 1
 387 507 l 1
 387 519.799804688 l 1
 399.400390625 519.799804688 l 1
 412.200195312 519.799804688 l 1
 412.200195312 544.599609375 l 1
 412.200195312 569.400390625 l 1
 387 569.400390625 l 1
 361.799804688 569.400390625 l 1
 361.799804688 532.200195312 l 1
 361.799804688 494.599609375 l 1
 349.400390625 494.599609375 l 1
 337 494.599609375 l 1
 337 507 l 1
 337 519.799804688 l 1
 324.599609375 519.799804688 l 1
 312.200195312 519.799804688 l 1
 312.200195312 544.599609375 l 1
 312.200195312 569.400390625 l 1
 287 569.400390625 l 1
165.299804688 572.400390625 m 1
 115.700195312 572.400390625 l 1
 115.700195312 560 l 1
 115.700195312 547.599609375 l 1
 102.900390625 547.599609375 l 1
 90.5 547.599609375 l 1
 90.5 460 l 1
 90.5 372.400390625 l 1
 102.900390625 372.400390625 l 1
 115.700195312 372.400390625 l 1
 115.700195312 360 l 1
 115.700195312 347.599609375 l 1
 165.299804688 347.599609375 l 1
 215.700195312 347.599609375 l 1
 215.700195312 360 l 1
 215.700195312 372.400390625 l 1
 228.099609375 372.400390625 l 1
 240.5 372.400390625 l 1
 240.5 460 l 1
 240.5 547.599609375 l 1
 228.099609375 547.599609375 l 1
 215.700195312 547.599609375 l 1
 215.700195312 560 l 1
 215.700195312 572.400390625 l 1
 165.299804688 572.400390625 l 1
165.299804688 547.599609375 m 1
 190.5 547.599609375 l 1
 190.5 535.200195312 l 1
 190.5 524.799804688 l 1
 188.900390625 522.799804688 l 0
 178.099609375 522.799804688 l 1
 167.299804688 522.799804688 l 1
 165.299804688 520.400390625 l 0
 165.299804688 497.599609375 l 1
 164.900390625 474.799804688 l 1
 167.700195312 472.400390625 l 0
 178.099609375 472.400390625 l 1
 187.700195312 472.400390625 l 0
 190.5 470 l 1
 190.5 422.799804688 l 1
 190.5 376 l 1
 186.900390625 372.400390625 l 0
 165.299804688 372.400390625 l 1
 140.5 372.400390625 l 1
 140.5 385.200195312 l 1
 140.5 394 l 0
 143.700195312 397.599609375 l 1
 152.900390625 397.599609375 l 1
 162.5 397.599609375 l 1
 165.299804688 400.400390625 l 0
 165.299804688 422.799804688 l 1
 165.299804688 441.599609375 l 0
 165.299804688 444.400390625 l 1
 161.700195312 447.599609375 l 0
 152.900390625 447.599609375 l 1
 140.5 447.599609375 l 1
 140.5 497.599609375 l 1
 140.5 547.599609375 l 1
 165.299804688 547.599609375 l 1
165.299804688 315.400390625 m 5
 115.700195312 315.400390625 l 5
 115.700195312 303 l 5
 115.700195312 290.599609375 l 5
 102.900390625 290.599609375 l 5
 90.5 290.599609375 l 5
 90.5 203 l 5
 90.5 115.400390625 l 5
 102.900390625 115.400390625 l 5
 115.700195312 115.400390625 l 5
 115.700195312 103 l 5
 115.700195312 90.599609375 l 5
 165.299804688 90.599609375 l 5
 215.700195312 90.599609375 l 5
 215.700195312 103 l 5
 215.700195312 115.400390625 l 5
 228.099609375 115.400390625 l 5
 240.5 115.400390625 l 5
 240.5 203 l 5
 240.5 290.599609375 l 5
 228.099609375 290.599609375 l 5
 215.700195312 290.599609375 l 5
 215.700195312 303 l 5
 215.700195312 315.400390625 l 5
 165.299804688 315.400390625 l 5
165.299804688 290.599609375 m 5
 190.5 290.599609375 l 5
 190.5 278.200195312 l 5
 190.5 267.799804688 l 5
 188.900390625 265.799804688 l 4
 178.099609375 265.799804688 l 5
 167.299804688 265.799804688 l 5
 165.299804688 263.400390625 l 4
 165.299804688 240.599609375 l 5
 164.900390625 217.799804688 l 5
 167.700195312 215.400390625 l 4
 178.099609375 215.400390625 l 5
 187.700195312 215.400390625 l 4
 190.5 213 l 5
 190.5 165.799804688 l 5
 190.5 119 l 5
 186.900390625 115.400390625 l 4
 165.299804688 115.400390625 l 5
 140.5 115.400390625 l 5
 140.5 128.200195312 l 5
 140.5 137 l 4
 143.700195312 140.599609375 l 5
 152.900390625 140.599609375 l 5
 162.5 140.599609375 l 5
 165.299804688 143.400390625 l 4
 165.299804688 165.799804688 l 5
 165.299804688 184.599609375 l 4
 165.299804688 187.400390625 l 5
 161.700195312 190.599609375 l 4
 152.900390625 190.599609375 l 5
 140.5 190.599609375 l 5
 140.5 240.599609375 l 5
 140.5 290.599609375 l 5
 165.299804688 290.599609375 l 5
338.299804688 315.400390625 m 1
 288.700195312 315.400390625 l 1
 288.700195312 303 l 1
 288.700195312 290.599609375 l 1
 275.900390625 290.599609375 l 1
 263.5 290.599609375 l 1
 263.5 203 l 1
 263.5 115.400390625 l 1
 275.900390625 115.400390625 l 1
 288.700195312 115.400390625 l 1
 288.700195312 103 l 1
 288.700195312 90.599609375 l 1
 338.299804688 90.599609375 l 1
 388.700195312 90.599609375 l 1
 388.700195312 103 l 1
 388.700195312 115.400390625 l 1
 401.099609375 115.400390625 l 1
 413.5 115.400390625 l 1
 413.5 203 l 1
 413.5 290.599609375 l 1
 401.099609375 290.599609375 l 1
 388.700195312 290.599609375 l 1
 388.700195312 303 l 1
 388.700195312 315.400390625 l 1
 338.299804688 315.400390625 l 1
338.299804688 290.599609375 m 1
 363.5 290.599609375 l 1
 363.5 278.200195312 l 1
 363.5 267.799804688 l 1
 361.900390625 265.799804688 l 0
 351.099609375 265.799804688 l 1
 340.299804688 265.799804688 l 1
 338.299804688 263.400390625 l 0
 338.299804688 240.599609375 l 1
 337.900390625 217.799804688 l 1
 340.700195312 215.400390625 l 0
 351.099609375 215.400390625 l 1
 360.700195312 215.400390625 l 0
 363.5 213 l 1
 363.5 165.799804688 l 1
 363.5 119 l 1
 359.900390625 115.400390625 l 0
 338.299804688 115.400390625 l 1
 313.5 115.400390625 l 1
 313.5 128.200195312 l 1
 313.5 137 l 0
 316.700195312 140.599609375 l 1
 325.900390625 140.599609375 l 1
 335.5 140.599609375 l 1
 338.299804688 143.400390625 l 0
 338.299804688 165.799804688 l 1
 338.299804688 184.599609375 l 0
 338.299804688 187.400390625 l 1
 334.700195312 190.599609375 l 0
 325.900390625 190.599609375 l 1
 313.5 190.599609375 l 1
 313.5 240.599609375 l 1
 313.5 290.599609375 l 1
 338.299804688 290.599609375 l 1
250 612 m 1
 433 612 l 0
 438 607 l 1
 438 331 l 1
 438 55 l 1
 433 50 l 0
 250 50 l 1
 67 50 l 1
 62 55 l 0
 62 331 l 1
 62 607 l 1
 67 612 l 0
 250 612 l 1
EndSplineSet
EndChar

StartChar: uni0001
Encoding: 1 1 197
Width: 500
Flags: HW
LayerCount: 2
Fore
SplineSet
374.900390625 320.400390625 m 5
 350.099609375 320.400390625 l 5
 350.099609375 308 l 5
 350.099609375 295.599609375 l 5
 337.700195312 295.599609375 l 5
 325.299804688 295.599609375 l 5
 325.299804688 283.200195312 l 5
 325.299804688 270.799804688 l 5
 300.099609375 270.799804688 l 5
 274.900390625 270.799804688 l 5
 274.900390625 258 l 5
 274.900390625 245.599609375 l 5
 312.5 245.599609375 l 5
 350.099609375 245.599609375 l 5
 350.099609375 170.799804688 l 5
 350.099609375 95.599609375 l 5
 374.900390625 95.599609375 l 5
 400.099609375 95.599609375 l 5
 400.099609375 208 l 5
 400.099609375 320.400390625 l 5
 374.900390625 320.400390625 l 5
165.299804688 315.400390625 m 1
 115.700195312 315.400390625 l 1
 115.700195312 303 l 1
 115.700195312 290.599609375 l 1
 102.900390625 290.599609375 l 1
 90.5 290.599609375 l 1
 90.5 203 l 1
 90.5 115.400390625 l 1
 102.900390625 115.400390625 l 1
 115.700195312 115.400390625 l 1
 115.700195312 103 l 1
 115.700195312 90.599609375 l 1
 165.299804688 90.599609375 l 1
 215.700195312 90.599609375 l 1
 215.700195312 103 l 1
 215.700195312 115.400390625 l 1
 228.099609375 115.400390625 l 1
 240.5 115.400390625 l 1
 240.5 203 l 1
 240.5 290.599609375 l 1
 228.099609375 290.599609375 l 1
 215.700195312 290.599609375 l 1
 215.700195312 303 l 1
 215.700195312 315.400390625 l 1
 165.299804688 315.400390625 l 1
165.299804688 290.599609375 m 1
 190.5 290.599609375 l 1
 190.5 278.200195312 l 1
 190.5 267.799804688 l 1
 188.900390625 265.799804688 l 0
 178.099609375 265.799804688 l 1
 167.299804688 265.799804688 l 1
 165.299804688 263.400390625 l 0
 165.299804688 240.599609375 l 1
 164.900390625 217.799804688 l 1
 167.700195312 215.400390625 l 0
 178.099609375 215.400390625 l 1
 187.700195312 215.400390625 l 0
 190.5 213 l 1
 190.5 165.799804688 l 1
 190.5 119 l 1
 186.900390625 115.400390625 l 0
 165.299804688 115.400390625 l 1
 140.5 115.400390625 l 1
 140.5 128.200195312 l 1
 140.5 137 l 0
 143.700195312 140.599609375 l 1
 152.900390625 140.599609375 l 1
 162.5 140.599609375 l 1
 165.299804688 143.400390625 l 0
 165.299804688 165.799804688 l 1
 165.299804688 184.599609375 l 0
 165.299804688 187.400390625 l 1
 161.700195312 190.599609375 l 0
 152.900390625 190.599609375 l 1
 140.5 190.599609375 l 1
 140.5 240.599609375 l 1
 140.5 290.599609375 l 1
 165.299804688 290.599609375 l 1
287 569.400390625 m 1
 261.799804688 569.400390625 l 1
 261.799804688 544.599609375 l 1
 261.799804688 519.799804688 l 1
 274.599609375 519.799804688 l 1
 287 519.799804688 l 1
 287 507 l 1
 287 494.599609375 l 1
 299.400390625 494.599609375 l 1
 312.200195312 494.599609375 l 1
 312.200195312 469.400390625 l 1
 312.200195312 444.599609375 l 1
 299.400390625 444.599609375 l 1
 287 444.599609375 l 1
 287 432.200195312 l 1
 287 419.799804688 l 1
 274.599609375 419.799804688 l 1
 261.799804688 419.799804688 l 1
 261.799804688 382.200195312 l 1
 261.799804688 344.599609375 l 1
 287 344.599609375 l 1
 312.200195312 344.599609375 l 1
 312.200195312 394.599609375 l 1
 312.200195312 444.599609375 l 1
 324.599609375 444.599609375 l 1
 337 444.599609375 l 1
 337 432.200195312 l 1
 337 419.799804688 l 1
 349.400390625 419.799804688 l 1
 361.799804688 419.799804688 l 1
 361.799804688 382.200195312 l 1
 361.799804688 344.599609375 l 1
 387 344.599609375 l 1
 412.200195312 344.599609375 l 1
 412.200195312 382.200195312 l 1
 412.200195312 419.799804688 l 1
 399.400390625 419.799804688 l 1
 387 419.799804688 l 1
 387 432.200195312 l 1
 387 444.599609375 l 1
 374.599609375 444.599609375 l 1
 361.799804688 444.599609375 l 1
 361.799804688 469.400390625 l 1
 361.799804688 494.599609375 l 1
 374.599609375 494.599609375 l 1
 387 494.599609375 l 1
 387 507 l 1
 387 519.799804688 l 1
 399.400390625 519.799804688 l 1
 412.200195312 519.799804688 l 1
 412.200195312 544.599609375 l 1
 412.200195312 569.400390625 l 1
 387 569.400390625 l 1
 361.799804688 569.400390625 l 1
 361.799804688 532.200195312 l 1
 361.799804688 494.599609375 l 1
 349.400390625 494.599609375 l 1
 337 494.599609375 l 1
 337 507 l 1
 337 519.799804688 l 1
 324.599609375 519.799804688 l 1
 312.200195312 519.799804688 l 1
 312.200195312 544.599609375 l 1
 312.200195312 569.400390625 l 1
 287 569.400390625 l 1
165.299804688 572.400390625 m 1
 115.700195312 572.400390625 l 1
 115.700195312 560 l 1
 115.700195312 547.599609375 l 1
 102.900390625 547.599609375 l 1
 90.5 547.599609375 l 1
 90.5 460 l 1
 90.5 372.400390625 l 1
 102.900390625 372.400390625 l 1
 115.700195312 372.400390625 l 1
 115.700195312 360 l 1
 115.700195312 347.599609375 l 1
 165.299804688 347.599609375 l 1
 215.700195312 347.599609375 l 1
 215.700195312 360 l 1
 215.700195312 372.400390625 l 1
 228.099609375 372.400390625 l 1
 240.5 372.400390625 l 1
 240.5 460 l 1
 240.5 547.599609375 l 1
 228.099609375 547.599609375 l 1
 215.700195312 547.599609375 l 1
 215.700195312 560 l 1
 215.700195312 572.400390625 l 1
 165.299804688 572.400390625 l 1
165.299804688 547.599609375 m 1
 190.5 547.599609375 l 1
 190.5 535.200195312 l 1
 190.5 524.799804688 l 1
 188.900390625 522.799804688 l 0
 178.099609375 522.799804688 l 1
 167.299804688 522.799804688 l 1
 165.299804688 520.400390625 l 0
 165.299804688 497.599609375 l 1
 164.900390625 474.799804688 l 1
 167.700195312 472.400390625 l 0
 178.099609375 472.400390625 l 1
 187.700195312 472.400390625 l 0
 190.5 470 l 1
 190.5 422.799804688 l 1
 190.5 376 l 1
 186.900390625 372.400390625 l 0
 165.299804688 372.400390625 l 1
 140.5 372.400390625 l 1
 140.5 385.200195312 l 1
 140.5 394 l 0
 143.700195312 397.599609375 l 1
 152.900390625 397.599609375 l 1
 162.5 397.599609375 l 1
 165.299804688 400.400390625 l 0
 165.299804688 422.799804688 l 1
 165.299804688 441.599609375 l 0
 165.299804688 444.400390625 l 1
 161.700195312 447.599609375 l 0
 152.900390625 447.599609375 l 1
 140.5 447.599609375 l 1
 140.5 497.599609375 l 1
 140.5 547.599609375 l 1
 165.299804688 547.599609375 l 1
250 612 m 1
 433 612 l 0
 438 607 l 1
 438 331 l 1
 438 55 l 1
 433 50 l 0
 250 50 l 1
 67 50 l 1
 62 55 l 0
 62 331 l 1
 62 607 l 1
 67 612 l 0
 250 612 l 1
EndSplineSet
EndChar

StartChar: uni0002
Encoding: 2 2 198
Width: 500
Flags: HW
LayerCount: 2
Fore
SplineSet
338 321.400390625 m 5
 288 321.400390625 l 5
 288 309 l 5
 288 296.599609375 l 5
 275.599609375 296.599609375 l 5
 262.799804688 296.599609375 l 5
 262.799804688 271.799804688 l 5
 262.799804688 246.599609375 l 5
 288 246.599609375 l 5
 313.200195312 246.599609375 l 5
 313.200195312 271.799804688 l 5
 313.200195312 296.599609375 l 5
 338 296.599609375 l 5
 362.799804688 296.599609375 l 5
 362.799804688 259 l 5
 362.799804688 221.400390625 l 5
 350.400390625 221.400390625 l 5
 338 221.400390625 l 5
 338 209 l 5
 338 196.599609375 l 5
 325.599609375 196.599609375 l 5
 313.200195312 196.599609375 l 5
 313.200195312 184.200195312 l 5
 313.200195312 171.799804688 l 5
 300.400390625 171.799804688 l 5
 288 171.799804688 l 5
 288 159 l 5
 288 146.599609375 l 5
 275.599609375 146.599609375 l 5
 262.799804688 146.599609375 l 5
 262.799804688 121.400390625 l 5
 262.799804688 96.599609375 l 5
 338 96.599609375 l 5
 413.200195312 96.599609375 l 5
 413.200195312 109 l 5
 413.200195312 121.400390625 l 5
 362.799804688 121.400390625 l 5
 313.200195312 121.400390625 l 5
 313.200195312 134.200195312 l 5
 313.200195312 146.599609375 l 5
 325.599609375 146.599609375 l 5
 338 146.599609375 l 5
 338 159 l 5
 338 171.799804688 l 5
 350.400390625 171.799804688 l 5
 362.799804688 171.799804688 l 5
 362.799804688 184.200195312 l 5
 362.799804688 196.599609375 l 5
 375.599609375 196.599609375 l 5
 388 196.599609375 l 5
 388 209 l 5
 388 221.400390625 l 5
 400.400390625 221.400390625 l 5
 413.200195312 221.400390625 l 5
 413.200195312 259 l 5
 413.200195312 296.599609375 l 5
 400.400390625 296.599609375 l 5
 388 296.599609375 l 5
 388 309 l 5
 388 321.400390625 l 5
 338 321.400390625 l 5
165.299804688 315.400390625 m 1
 115.700195312 315.400390625 l 1
 115.700195312 303 l 1
 115.700195312 290.599609375 l 1
 102.900390625 290.599609375 l 1
 90.5 290.599609375 l 1
 90.5 203 l 1
 90.5 115.400390625 l 1
 102.900390625 115.400390625 l 1
 115.700195312 115.400390625 l 1
 115.700195312 103 l 1
 115.700195312 90.599609375 l 1
 165.299804688 90.599609375 l 1
 215.700195312 90.599609375 l 1
 215.700195312 103 l 1
 215.700195312 115.400390625 l 1
 228.099609375 115.400390625 l 1
 240.5 115.400390625 l 1
 240.5 203 l 1
 240.5 290.599609375 l 1
 228.099609375 290.599609375 l 1
 215.700195312 290.599609375 l 1
 215.700195312 303 l 1
 215.700195312 315.400390625 l 1
 165.299804688 315.400390625 l 1
165.299804688 290.599609375 m 1
 190.5 290.599609375 l 1
 190.5 278.200195312 l 1
 190.5 267.799804688 l 1
 188.900390625 265.799804688 l 0
 178.099609375 265.799804688 l 1
 167.299804688 265.799804688 l 1
 165.299804688 263.400390625 l 0
 165.299804688 240.599609375 l 1
 164.900390625 217.799804688 l 1
 167.700195312 215.400390625 l 0
 178.099609375 215.400390625 l 1
 187.700195312 215.400390625 l 0
 190.5 213 l 1
 190.5 165.799804688 l 1
 190.5 119 l 1
 186.900390625 115.400390625 l 0
 165.299804688 115.400390625 l 1
 140.5 115.400390625 l 1
 140.5 128.200195312 l 1
 140.5 137 l 0
 143.700195312 140.599609375 l 1
 152.900390625 140.599609375 l 1
 162.5 140.599609375 l 1
 165.299804688 143.400390625 l 0
 165.299804688 165.799804688 l 1
 165.299804688 184.599609375 l 0
 165.299804688 187.400390625 l 1
 161.700195312 190.599609375 l 0
 152.900390625 190.599609375 l 1
 140.5 190.599609375 l 1
 140.5 240.599609375 l 1
 140.5 290.599609375 l 1
 165.299804688 290.599609375 l 1
287 569.400390625 m 1
 261.799804688 569.400390625 l 1
 261.799804688 544.599609375 l 1
 261.799804688 519.799804688 l 1
 274.599609375 519.799804688 l 1
 287 519.799804688 l 1
 287 507 l 1
 287 494.599609375 l 1
 299.400390625 494.599609375 l 1
 312.200195312 494.599609375 l 1
 312.200195312 469.400390625 l 1
 312.200195312 444.599609375 l 1
 299.400390625 444.599609375 l 1
 287 444.599609375 l 1
 287 432.200195312 l 1
 287 419.799804688 l 1
 274.599609375 419.799804688 l 1
 261.799804688 419.799804688 l 1
 261.799804688 382.200195312 l 1
 261.799804688 344.599609375 l 1
 287 344.599609375 l 1
 312.200195312 344.599609375 l 1
 312.200195312 394.599609375 l 1
 312.200195312 444.599609375 l 1
 324.599609375 444.599609375 l 1
 337 444.599609375 l 1
 337 432.200195312 l 1
 337 419.799804688 l 1
 349.400390625 419.799804688 l 1
 361.799804688 419.799804688 l 1
 361.799804688 382.200195312 l 1
 361.799804688 344.599609375 l 1
 387 344.599609375 l 1
 412.200195312 344.599609375 l 1
 412.200195312 382.200195312 l 1
 412.200195312 419.799804688 l 1
 399.400390625 419.799804688 l 1
 387 419.799804688 l 1
 387 432.200195312 l 1
 387 444.599609375 l 1
 374.599609375 444.599609375 l 1
 361.799804688 444.599609375 l 1
 361.799804688 469.400390625 l 1
 361.799804688 494.599609375 l 1
 374.599609375 494.599609375 l 1
 387 494.599609375 l 1
 387 507 l 1
 387 519.799804688 l 1
 399.400390625 519.799804688 l 1
 412.200195312 519.799804688 l 1
 412.200195312 544.599609375 l 1
 412.200195312 569.400390625 l 1
 387 569.400390625 l 1
 361.799804688 569.400390625 l 1
 361.799804688 532.200195312 l 1
 361.799804688 494.599609375 l 1
 349.400390625 494.599609375 l 1
 337 494.599609375 l 1
 337 507 l 1
 337 519.799804688 l 1
 324.599609375 519.799804688 l 1
 312.200195312 519.799804688 l 1
 312.200195312 544.599609375 l 1
 312.200195312 569.400390625 l 1
 287 569.400390625 l 1
165.299804688 572.400390625 m 1
 115.700195312 572.400390625 l 1
 115.700195312 560 l 1
 115.700195312 547.599609375 l 1
 102.900390625 547.599609375 l 1
 90.5 547.599609375 l 1
 90.5 460 l 1
 90.5 372.400390625 l 1
 102.900390625 372.400390625 l 1
 115.700195312 372.400390625 l 1
 115.700195312 360 l 1
 115.700195312 347.599609375 l 1
 165.299804688 347.599609375 l 1
 215.700195312 347.599609375 l 1
 215.700195312 360 l 1
 215.700195312 372.400390625 l 1
 228.099609375 372.400390625 l 1
 240.5 372.400390625 l 1
 240.5 460 l 1
 240.5 547.599609375 l 1
 228.099609375 547.599609375 l 1
 215.700195312 547.599609375 l 1
 215.700195312 560 l 1
 215.700195312 572.400390625 l 1
 165.299804688 572.400390625 l 1
165.299804688 547.599609375 m 1
 190.5 547.599609375 l 1
 190.5 535.200195312 l 1
 190.5 524.799804688 l 1
 188.900390625 522.799804688 l 0
 178.099609375 522.799804688 l 1
 167.299804688 522.799804688 l 1
 165.299804688 520.400390625 l 0
 165.299804688 497.599609375 l 1
 164.900390625 474.799804688 l 1
 167.700195312 472.400390625 l 0
 178.099609375 472.400390625 l 1
 187.700195312 472.400390625 l 0
 190.5 470 l 1
 190.5 422.799804688 l 1
 190.5 376 l 1
 186.900390625 372.400390625 l 0
 165.299804688 372.400390625 l 1
 140.5 372.400390625 l 1
 140.5 385.200195312 l 1
 140.5 394 l 0
 143.700195312 397.599609375 l 1
 152.900390625 397.599609375 l 1
 162.5 397.599609375 l 1
 165.299804688 400.400390625 l 0
 165.299804688 422.799804688 l 1
 165.299804688 441.599609375 l 0
 165.299804688 444.400390625 l 1
 161.700195312 447.599609375 l 0
 152.900390625 447.599609375 l 1
 140.5 447.599609375 l 1
 140.5 497.599609375 l 1
 140.5 547.599609375 l 1
 165.299804688 547.599609375 l 1
250 612 m 1
 433 612 l 0
 438 607 l 1
 438 331 l 1
 438 55 l 1
 433 50 l 0
 250 50 l 1
 67 50 l 1
 62 55 l 0
 62 331 l 1
 62 607 l 1
 67 612 l 0
 250 612 l 1
EndSplineSet
EndChar

StartChar: uni0003
Encoding: 3 3 199
Width: 500
Flags: HW
LayerCount: 2
Fore
SplineSet
337 320.400390625 m 5
 287 320.400390625 l 5
 287 308 l 5
 287 295.599609375 l 5
 274.599609375 295.599609375 l 5
 261.799804688 295.599609375 l 5
 261.799804688 270.799804688 l 5
 261.799804688 245.599609375 l 5
 287 245.599609375 l 5
 312.200195312 245.599609375 l 5
 312.200195312 270.799804688 l 5
 312.200195312 295.599609375 l 5
 337 295.599609375 l 5
 361.799804688 295.599609375 l 5
 361.799804688 258 l 5
 361.799804688 220.400390625 l 5
 337 220.400390625 l 5
 312.200195312 220.400390625 l 5
 312.200195312 208 l 5
 312.200195312 195.599609375 l 5
 337 195.599609375 l 5
 361.799804688 195.599609375 l 5
 361.799804688 158 l 5
 361.799804688 120.400390625 l 5
 337 120.400390625 l 5
 312.200195312 120.400390625 l 5
 312.200195312 145.599609375 l 5
 312.200195312 170.799804688 l 5
 287 170.799804688 l 5
 261.799804688 170.799804688 l 5
 261.799804688 145.599609375 l 5
 261.799804688 120.400390625 l 5
 274.599609375 120.400390625 l 5
 287 120.400390625 l 5
 287 108 l 5
 287 95.599609375 l 5
 337 95.599609375 l 5
 387 95.599609375 l 5
 387 108 l 5
 387 120.400390625 l 5
 399.400390625 120.400390625 l 5
 412.200195312 120.400390625 l 5
 412.200195312 158 l 5
 412.200195312 195.599609375 l 5
 399.400390625 195.599609375 l 5
 387 195.599609375 l 5
 387 208 l 5
 387 220.400390625 l 5
 399.400390625 220.400390625 l 5
 412.200195312 220.400390625 l 5
 412.200195312 258 l 5
 412.200195312 295.599609375 l 5
 399.400390625 295.599609375 l 5
 387 295.599609375 l 5
 387 308 l 5
 387 320.400390625 l 5
 337 320.400390625 l 5
165.299804688 315.400390625 m 1
 115.700195312 315.400390625 l 1
 115.700195312 303 l 1
 115.700195312 290.599609375 l 1
 102.900390625 290.599609375 l 1
 90.5 290.599609375 l 1
 90.5 203 l 1
 90.5 115.400390625 l 1
 102.900390625 115.400390625 l 1
 115.700195312 115.400390625 l 1
 115.700195312 103 l 1
 115.700195312 90.599609375 l 1
 165.299804688 90.599609375 l 1
 215.700195312 90.599609375 l 1
 215.700195312 103 l 1
 215.700195312 115.400390625 l 1
 228.099609375 115.400390625 l 1
 240.5 115.400390625 l 1
 240.5 203 l 1
 240.5 290.599609375 l 1
 228.099609375 290.599609375 l 1
 215.700195312 290.599609375 l 1
 215.700195312 303 l 1
 215.700195312 315.400390625 l 1
 165.299804688 315.400390625 l 1
165.299804688 290.599609375 m 1
 190.5 290.599609375 l 1
 190.5 278.200195312 l 1
 190.5 267.799804688 l 1
 188.900390625 265.799804688 l 0
 178.099609375 265.799804688 l 1
 167.299804688 265.799804688 l 1
 165.299804688 263.400390625 l 0
 165.299804688 240.599609375 l 1
 164.900390625 217.799804688 l 1
 167.700195312 215.400390625 l 0
 178.099609375 215.400390625 l 1
 187.700195312 215.400390625 l 0
 190.5 213 l 1
 190.5 165.799804688 l 1
 190.5 119 l 1
 186.900390625 115.400390625 l 0
 165.299804688 115.400390625 l 1
 140.5 115.400390625 l 1
 140.5 128.200195312 l 1
 140.5 137 l 0
 143.700195312 140.599609375 l 1
 152.900390625 140.599609375 l 1
 162.5 140.599609375 l 1
 165.299804688 143.400390625 l 0
 165.299804688 165.799804688 l 1
 165.299804688 184.599609375 l 0
 165.299804688 187.400390625 l 1
 161.700195312 190.599609375 l 0
 152.900390625 190.599609375 l 1
 140.5 190.599609375 l 1
 140.5 240.599609375 l 1
 140.5 290.599609375 l 1
 165.299804688 290.599609375 l 1
287 569.400390625 m 1
 261.799804688 569.400390625 l 1
 261.799804688 544.599609375 l 1
 261.799804688 519.799804688 l 1
 274.599609375 519.799804688 l 1
 287 519.799804688 l 1
 287 507 l 1
 287 494.599609375 l 1
 299.400390625 494.599609375 l 1
 312.200195312 494.599609375 l 1
 312.200195312 469.400390625 l 1
 312.200195312 444.599609375 l 1
 299.400390625 444.599609375 l 1
 287 444.599609375 l 1
 287 432.200195312 l 1
 287 419.799804688 l 1
 274.599609375 419.799804688 l 1
 261.799804688 419.799804688 l 1
 261.799804688 382.200195312 l 1
 261.799804688 344.599609375 l 1
 287 344.599609375 l 1
 312.200195312 344.599609375 l 1
 312.200195312 394.599609375 l 1
 312.200195312 444.599609375 l 1
 324.599609375 444.599609375 l 1
 337 444.599609375 l 1
 337 432.200195312 l 1
 337 419.799804688 l 1
 349.400390625 419.799804688 l 1
 361.799804688 419.799804688 l 1
 361.799804688 382.200195312 l 1
 361.799804688 344.599609375 l 1
 387 344.599609375 l 1
 412.200195312 344.599609375 l 1
 412.200195312 382.200195312 l 1
 412.200195312 419.799804688 l 1
 399.400390625 419.799804688 l 1
 387 419.799804688 l 1
 387 432.200195312 l 1
 387 444.599609375 l 1
 374.599609375 444.599609375 l 1
 361.799804688 444.599609375 l 1
 361.799804688 469.400390625 l 1
 361.799804688 494.599609375 l 1
 374.599609375 494.599609375 l 1
 387 494.599609375 l 1
 387 507 l 1
 387 519.799804688 l 1
 399.400390625 519.799804688 l 1
 412.200195312 519.799804688 l 1
 412.200195312 544.599609375 l 1
 412.200195312 569.400390625 l 1
 387 569.400390625 l 1
 361.799804688 569.400390625 l 1
 361.799804688 532.200195312 l 1
 361.799804688 494.599609375 l 1
 349.400390625 494.599609375 l 1
 337 494.599609375 l 1
 337 507 l 1
 337 519.799804688 l 1
 324.599609375 519.799804688 l 1
 312.200195312 519.799804688 l 1
 312.200195312 544.599609375 l 1
 312.200195312 569.400390625 l 1
 287 569.400390625 l 1
165.299804688 572.400390625 m 1
 115.700195312 572.400390625 l 1
 115.700195312 560 l 1
 115.700195312 547.599609375 l 1
 102.900390625 547.599609375 l 1
 90.5 547.599609375 l 1
 90.5 460 l 1
 90.5 372.400390625 l 1
 102.900390625 372.400390625 l 1
 115.700195312 372.400390625 l 1
 115.700195312 360 l 1
 115.700195312 347.599609375 l 1
 165.299804688 347.599609375 l 1
 215.700195312 347.599609375 l 1
 215.700195312 360 l 1
 215.700195312 372.400390625 l 1
 228.099609375 372.400390625 l 1
 240.5 372.400390625 l 1
 240.5 460 l 1
 240.5 547.599609375 l 1
 228.099609375 547.599609375 l 1
 215.700195312 547.599609375 l 1
 215.700195312 560 l 1
 215.700195312 572.400390625 l 1
 165.299804688 572.400390625 l 1
165.299804688 547.599609375 m 1
 190.5 547.599609375 l 1
 190.5 535.200195312 l 1
 190.5 524.799804688 l 1
 188.900390625 522.799804688 l 0
 178.099609375 522.799804688 l 1
 167.299804688 522.799804688 l 1
 165.299804688 520.400390625 l 0
 165.299804688 497.599609375 l 1
 164.900390625 474.799804688 l 1
 167.700195312 472.400390625 l 0
 178.099609375 472.400390625 l 1
 187.700195312 472.400390625 l 0
 190.5 470 l 1
 190.5 422.799804688 l 1
 190.5 376 l 1
 186.900390625 372.400390625 l 0
 165.299804688 372.400390625 l 1
 140.5 372.400390625 l 1
 140.5 385.200195312 l 1
 140.5 394 l 0
 143.700195312 397.599609375 l 1
 152.900390625 397.599609375 l 1
 162.5 397.599609375 l 1
 165.299804688 400.400390625 l 0
 165.299804688 422.799804688 l 1
 165.299804688 441.599609375 l 0
 165.299804688 444.400390625 l 1
 161.700195312 447.599609375 l 0
 152.900390625 447.599609375 l 1
 140.5 447.599609375 l 1
 140.5 497.599609375 l 1
 140.5 547.599609375 l 1
 165.299804688 547.599609375 l 1
250 612 m 1
 433 612 l 0
 438 607 l 1
 438 331 l 1
 438 55 l 1
 433 50 l 0
 250 50 l 1
 67 50 l 1
 62 55 l 0
 62 331 l 1
 62 607 l 1
 67 612 l 0
 250 612 l 1
EndSplineSet
EndChar

StartChar: uni0004
Encoding: 4 4 200
Width: 500
Flags: HW
LayerCount: 2
Fore
SplineSet
302.799804688 322.400390625 m 5
 277.599609375 322.400390625 l 5
 277.599609375 260 l 5
 277.599609375 197.599609375 l 5
 265.200195312 197.599609375 l 5
 252.400390625 197.599609375 l 5
 252.400390625 172.799804688 l 5
 252.400390625 147.599609375 l 5
 302.799804688 147.599609375 l 5
 352.400390625 147.599609375 l 5
 352.400390625 122.400390625 l 5
 352.400390625 97.599609375 l 5
 377.599609375 97.599609375 l 5
 402.799804688 97.599609375 l 5
 402.799804688 122.400390625 l 5
 402.799804688 147.599609375 l 5
 415.200195312 147.599609375 l 5
 427.599609375 147.599609375 l 5
 427.599609375 160 l 5
 427.599609375 172.799804688 l 5
 415.200195312 172.799804688 l 5
 402.799804688 172.799804688 l 5
 402.799804688 222.400390625 l 5
 402.799804688 272.799804688 l 5
 377.599609375 272.799804688 l 5
 352.400390625 272.799804688 l 5
 352.400390625 222.400390625 l 5
 352.400390625 172.799804688 l 5
 327.599609375 172.799804688 l 5
 302.799804688 172.799804688 l 5
 302.799804688 185.200195312 l 5
 302.799804688 197.599609375 l 5
 315.200195312 197.599609375 l 5
 327.599609375 197.599609375 l 5
 327.599609375 260 l 5
 327.599609375 322.400390625 l 5
 302.799804688 322.400390625 l 5
165.299804688 315.400390625 m 1
 115.700195312 315.400390625 l 1
 115.700195312 303 l 1
 115.700195312 290.599609375 l 1
 102.900390625 290.599609375 l 1
 90.5 290.599609375 l 1
 90.5 203 l 1
 90.5 115.400390625 l 1
 102.900390625 115.400390625 l 1
 115.700195312 115.400390625 l 1
 115.700195312 103 l 1
 115.700195312 90.599609375 l 1
 165.299804688 90.599609375 l 1
 215.700195312 90.599609375 l 1
 215.700195312 103 l 1
 215.700195312 115.400390625 l 1
 228.099609375 115.400390625 l 1
 240.5 115.400390625 l 1
 240.5 203 l 1
 240.5 290.599609375 l 1
 228.099609375 290.599609375 l 1
 215.700195312 290.599609375 l 1
 215.700195312 303 l 1
 215.700195312 315.400390625 l 1
 165.299804688 315.400390625 l 1
165.299804688 290.599609375 m 1
 190.5 290.599609375 l 1
 190.5 278.200195312 l 1
 190.5 267.799804688 l 1
 188.900390625 265.799804688 l 0
 178.099609375 265.799804688 l 1
 167.299804688 265.799804688 l 1
 165.299804688 263.400390625 l 0
 165.299804688 240.599609375 l 1
 164.900390625 217.799804688 l 1
 167.700195312 215.400390625 l 0
 178.099609375 215.400390625 l 1
 187.700195312 215.400390625 l 0
 190.5 213 l 1
 190.5 165.799804688 l 1
 190.5 119 l 1
 186.900390625 115.400390625 l 0
 165.299804688 115.400390625 l 1
 140.5 115.400390625 l 1
 140.5 128.200195312 l 1
 140.5 137 l 0
 143.700195312 140.599609375 l 1
 152.900390625 140.599609375 l 1
 162.5 140.599609375 l 1
 165.299804688 143.400390625 l 0
 165.299804688 165.799804688 l 1
 165.299804688 184.599609375 l 0
 165.299804688 187.400390625 l 1
 161.700195312 190.599609375 l 0
 152.900390625 190.599609375 l 1
 140.5 190.599609375 l 1
 140.5 240.599609375 l 1
 140.5 290.599609375 l 1
 165.299804688 290.599609375 l 1
287 569.400390625 m 1
 261.799804688 569.400390625 l 1
 261.799804688 544.599609375 l 1
 261.799804688 519.799804688 l 1
 274.599609375 519.799804688 l 1
 287 519.799804688 l 1
 287 507 l 1
 287 494.599609375 l 1
 299.400390625 494.599609375 l 1
 312.200195312 494.599609375 l 1
 312.200195312 469.400390625 l 1
 312.200195312 444.599609375 l 1
 299.400390625 444.599609375 l 1
 287 444.599609375 l 1
 287 432.200195312 l 1
 287 419.799804688 l 1
 274.599609375 419.799804688 l 1
 261.799804688 419.799804688 l 1
 261.799804688 382.200195312 l 1
 261.799804688 344.599609375 l 1
 287 344.599609375 l 1
 312.200195312 344.599609375 l 1
 312.200195312 394.599609375 l 1
 312.200195312 444.599609375 l 1
 324.599609375 444.599609375 l 1
 337 444.599609375 l 1
 337 432.200195312 l 1
 337 419.799804688 l 1
 349.400390625 419.799804688 l 1
 361.799804688 419.799804688 l 1
 361.799804688 382.200195312 l 1
 361.799804688 344.599609375 l 1
 387 344.599609375 l 1
 412.200195312 344.599609375 l 1
 412.200195312 382.200195312 l 1
 412.200195312 419.799804688 l 1
 399.400390625 419.799804688 l 1
 387 419.799804688 l 1
 387 432.200195312 l 1
 387 444.599609375 l 1
 374.599609375 444.599609375 l 1
 361.799804688 444.599609375 l 1
 361.799804688 469.400390625 l 1
 361.799804688 494.599609375 l 1
 374.599609375 494.599609375 l 1
 387 494.599609375 l 1
 387 507 l 1
 387 519.799804688 l 1
 399.400390625 519.799804688 l 1
 412.200195312 519.799804688 l 1
 412.200195312 544.599609375 l 1
 412.200195312 569.400390625 l 1
 387 569.400390625 l 1
 361.799804688 569.400390625 l 1
 361.799804688 532.200195312 l 1
 361.799804688 494.599609375 l 1
 349.400390625 494.599609375 l 1
 337 494.599609375 l 1
 337 507 l 1
 337 519.799804688 l 1
 324.599609375 519.799804688 l 1
 312.200195312 519.799804688 l 1
 312.200195312 544.599609375 l 1
 312.200195312 569.400390625 l 1
 287 569.400390625 l 1
165.299804688 572.400390625 m 1
 115.700195312 572.400390625 l 1
 115.700195312 560 l 1
 115.700195312 547.599609375 l 1
 102.900390625 547.599609375 l 1
 90.5 547.599609375 l 1
 90.5 460 l 1
 90.5 372.400390625 l 1
 102.900390625 372.400390625 l 1
 115.700195312 372.400390625 l 1
 115.700195312 360 l 1
 115.700195312 347.599609375 l 1
 165.299804688 347.599609375 l 1
 215.700195312 347.599609375 l 1
 215.700195312 360 l 1
 215.700195312 372.400390625 l 1
 228.099609375 372.400390625 l 1
 240.5 372.400390625 l 1
 240.5 460 l 1
 240.5 547.599609375 l 1
 228.099609375 547.599609375 l 1
 215.700195312 547.599609375 l 1
 215.700195312 560 l 1
 215.700195312 572.400390625 l 1
 165.299804688 572.400390625 l 1
165.299804688 547.599609375 m 1
 190.5 547.599609375 l 1
 190.5 535.200195312 l 1
 190.5 524.799804688 l 1
 188.900390625 522.799804688 l 0
 178.099609375 522.799804688 l 1
 167.299804688 522.799804688 l 1
 165.299804688 520.400390625 l 0
 165.299804688 497.599609375 l 1
 164.900390625 474.799804688 l 1
 167.700195312 472.400390625 l 0
 178.099609375 472.400390625 l 1
 187.700195312 472.400390625 l 0
 190.5 470 l 1
 190.5 422.799804688 l 1
 190.5 376 l 1
 186.900390625 372.400390625 l 0
 165.299804688 372.400390625 l 1
 140.5 372.400390625 l 1
 140.5 385.200195312 l 1
 140.5 394 l 0
 143.700195312 397.599609375 l 1
 152.900390625 397.599609375 l 1
 162.5 397.599609375 l 1
 165.299804688 400.400390625 l 0
 165.299804688 422.799804688 l 1
 165.299804688 441.599609375 l 0
 165.299804688 444.400390625 l 1
 161.700195312 447.599609375 l 0
 152.900390625 447.599609375 l 1
 140.5 447.599609375 l 1
 140.5 497.599609375 l 1
 140.5 547.599609375 l 1
 165.299804688 547.599609375 l 1
250 612 m 1
 433 612 l 0
 438 607 l 1
 438 331 l 1
 438 55 l 1
 433 50 l 0
 250 50 l 1
 67 50 l 1
 62 55 l 0
 62 331 l 1
 62 607 l 1
 67 612 l 0
 250 612 l 1
EndSplineSet
EndChar

StartChar: uni0005
Encoding: 5 5 201
Width: 500
Flags: HW
LayerCount: 2
Fore
SplineSet
342 321.400390625 m 5
 266.799804688 321.400390625 l 5
 266.799804688 259 l 5
 266.799804688 196.599609375 l 5
 317.200195312 196.599609375 l 5
 366.799804688 196.599609375 l 5
 366.799804688 171.799804688 l 5
 366.799804688 146.599609375 l 5
 354.400390625 146.599609375 l 5
 342 146.599609375 l 5
 342 134.200195312 l 5
 342 121.400390625 l 5
 304.400390625 121.400390625 l 5
 266.799804688 121.400390625 l 5
 266.799804688 109 l 5
 266.799804688 96.599609375 l 5
 317.200195312 96.599609375 l 5
 366.799804688 96.599609375 l 5
 366.799804688 109 l 5
 366.799804688 121.400390625 l 5
 379.599609375 121.400390625 l 5
 392 121.400390625 l 5
 392 134.200195312 l 5
 392 146.599609375 l 5
 404.400390625 146.599609375 l 5
 417.200195312 146.599609375 l 5
 417.200195312 171.799804688 l 5
 417.200195312 196.599609375 l 5
 404.400390625 196.599609375 l 5
 392 196.599609375 l 5
 392 209 l 5
 392 221.400390625 l 5
 354.400390625 221.400390625 l 5
 317.200195312 221.400390625 l 5
 317.200195312 259 l 5
 317.200195312 296.599609375 l 5
 366.799804688 296.599609375 l 5
 417.200195312 296.599609375 l 5
 417.200195312 309 l 5
 417.200195312 321.400390625 l 5
 342 321.400390625 l 5
165.299804688 315.400390625 m 1
 115.700195312 315.400390625 l 1
 115.700195312 303 l 1
 115.700195312 290.599609375 l 1
 102.900390625 290.599609375 l 1
 90.5 290.599609375 l 1
 90.5 203 l 1
 90.5 115.400390625 l 1
 102.900390625 115.400390625 l 1
 115.700195312 115.400390625 l 1
 115.700195312 103 l 1
 115.700195312 90.599609375 l 1
 165.299804688 90.599609375 l 1
 215.700195312 90.599609375 l 1
 215.700195312 103 l 1
 215.700195312 115.400390625 l 1
 228.099609375 115.400390625 l 1
 240.5 115.400390625 l 1
 240.5 203 l 1
 240.5 290.599609375 l 1
 228.099609375 290.599609375 l 1
 215.700195312 290.599609375 l 1
 215.700195312 303 l 1
 215.700195312 315.400390625 l 1
 165.299804688 315.400390625 l 1
165.299804688 290.599609375 m 1
 190.5 290.599609375 l 1
 190.5 278.200195312 l 1
 190.5 267.799804688 l 1
 188.900390625 265.799804688 l 0
 178.099609375 265.799804688 l 1
 167.299804688 265.799804688 l 1
 165.299804688 263.400390625 l 0
 165.299804688 240.599609375 l 1
 164.900390625 217.799804688 l 1
 167.700195312 215.400390625 l 0
 178.099609375 215.400390625 l 1
 187.700195312 215.400390625 l 0
 190.5 213 l 1
 190.5 165.799804688 l 1
 190.5 119 l 1
 186.900390625 115.400390625 l 0
 165.299804688 115.400390625 l 1
 140.5 115.400390625 l 1
 140.5 128.200195312 l 1
 140.5 137 l 0
 143.700195312 140.599609375 l 1
 152.900390625 140.599609375 l 1
 162.5 140.599609375 l 1
 165.299804688 143.400390625 l 0
 165.299804688 165.799804688 l 1
 165.299804688 184.599609375 l 0
 165.299804688 187.400390625 l 1
 161.700195312 190.599609375 l 0
 152.900390625 190.599609375 l 1
 140.5 190.599609375 l 1
 140.5 240.599609375 l 1
 140.5 290.599609375 l 1
 165.299804688 290.599609375 l 1
287 569.400390625 m 1
 261.799804688 569.400390625 l 1
 261.799804688 544.599609375 l 1
 261.799804688 519.799804688 l 1
 274.599609375 519.799804688 l 1
 287 519.799804688 l 1
 287 507 l 1
 287 494.599609375 l 1
 299.400390625 494.599609375 l 1
 312.200195312 494.599609375 l 1
 312.200195312 469.400390625 l 1
 312.200195312 444.599609375 l 1
 299.400390625 444.599609375 l 1
 287 444.599609375 l 1
 287 432.200195312 l 1
 287 419.799804688 l 1
 274.599609375 419.799804688 l 1
 261.799804688 419.799804688 l 1
 261.799804688 382.200195312 l 1
 261.799804688 344.599609375 l 1
 287 344.599609375 l 1
 312.200195312 344.599609375 l 1
 312.200195312 394.599609375 l 1
 312.200195312 444.599609375 l 1
 324.599609375 444.599609375 l 1
 337 444.599609375 l 1
 337 432.200195312 l 1
 337 419.799804688 l 1
 349.400390625 419.799804688 l 1
 361.799804688 419.799804688 l 1
 361.799804688 382.200195312 l 1
 361.799804688 344.599609375 l 1
 387 344.599609375 l 1
 412.200195312 344.599609375 l 1
 412.200195312 382.200195312 l 1
 412.200195312 419.799804688 l 1
 399.400390625 419.799804688 l 1
 387 419.799804688 l 1
 387 432.200195312 l 1
 387 444.599609375 l 1
 374.599609375 444.599609375 l 1
 361.799804688 444.599609375 l 1
 361.799804688 469.400390625 l 1
 361.799804688 494.599609375 l 1
 374.599609375 494.599609375 l 1
 387 494.599609375 l 1
 387 507 l 1
 387 519.799804688 l 1
 399.400390625 519.799804688 l 1
 412.200195312 519.799804688 l 1
 412.200195312 544.599609375 l 1
 412.200195312 569.400390625 l 1
 387 569.400390625 l 1
 361.799804688 569.400390625 l 1
 361.799804688 532.200195312 l 1
 361.799804688 494.599609375 l 1
 349.400390625 494.599609375 l 1
 337 494.599609375 l 1
 337 507 l 1
 337 519.799804688 l 1
 324.599609375 519.799804688 l 1
 312.200195312 519.799804688 l 1
 312.200195312 544.599609375 l 1
 312.200195312 569.400390625 l 1
 287 569.400390625 l 1
165.299804688 572.400390625 m 1
 115.700195312 572.400390625 l 1
 115.700195312 560 l 1
 115.700195312 547.599609375 l 1
 102.900390625 547.599609375 l 1
 90.5 547.599609375 l 1
 90.5 460 l 1
 90.5 372.400390625 l 1
 102.900390625 372.400390625 l 1
 115.700195312 372.400390625 l 1
 115.700195312 360 l 1
 115.700195312 347.599609375 l 1
 165.299804688 347.599609375 l 1
 215.700195312 347.599609375 l 1
 215.700195312 360 l 1
 215.700195312 372.400390625 l 1
 228.099609375 372.400390625 l 1
 240.5 372.400390625 l 1
 240.5 460 l 1
 240.5 547.599609375 l 1
 228.099609375 547.599609375 l 1
 215.700195312 547.599609375 l 1
 215.700195312 560 l 1
 215.700195312 572.400390625 l 1
 165.299804688 572.400390625 l 1
165.299804688 547.599609375 m 1
 190.5 547.599609375 l 1
 190.5 535.200195312 l 1
 190.5 524.799804688 l 1
 188.900390625 522.799804688 l 0
 178.099609375 522.799804688 l 1
 167.299804688 522.799804688 l 1
 165.299804688 520.400390625 l 0
 165.299804688 497.599609375 l 1
 164.900390625 474.799804688 l 1
 167.700195312 472.400390625 l 0
 178.099609375 472.400390625 l 1
 187.700195312 472.400390625 l 0
 190.5 470 l 1
 190.5 422.799804688 l 1
 190.5 376 l 1
 186.900390625 372.400390625 l 0
 165.299804688 372.400390625 l 1
 140.5 372.400390625 l 1
 140.5 385.200195312 l 1
 140.5 394 l 0
 143.700195312 397.599609375 l 1
 152.900390625 397.599609375 l 1
 162.5 397.599609375 l 1
 165.299804688 400.400390625 l 0
 165.299804688 422.799804688 l 1
 165.299804688 441.599609375 l 0
 165.299804688 444.400390625 l 1
 161.700195312 447.599609375 l 0
 152.900390625 447.599609375 l 1
 140.5 447.599609375 l 1
 140.5 497.599609375 l 1
 140.5 547.599609375 l 1
 165.299804688 547.599609375 l 1
250 612 m 1
 433 612 l 0
 438 607 l 1
 438 331 l 1
 438 55 l 1
 433 50 l 0
 250 50 l 1
 67 50 l 1
 62 55 l 0
 62 331 l 1
 62 607 l 1
 67 612 l 0
 250 612 l 1
EndSplineSet
EndChar

StartChar: uni0006
Encoding: 6 6 202
Width: 500
Flags: HW
LayerCount: 2
Fore
SplineSet
352.400390625 320.400390625 m 5
 315.200195312 320.400390625 l 5
 315.200195312 295.599609375 l 5
 315.200195312 270.799804688 l 5
 302.400390625 270.799804688 l 5
 290 270.799804688 l 5
 290 258 l 5
 290 245.599609375 l 5
 277.599609375 245.599609375 l 5
 264.799804688 245.599609375 l 5
 264.799804688 183.200195312 l 5
 264.799804688 120.400390625 l 5
 277.599609375 120.400390625 l 5
 290 120.400390625 l 5
 290 108 l 5
 290 95.599609375 l 5
 340 95.599609375 l 5
 390 95.599609375 l 5
 390 108 l 5
 390 120.400390625 l 5
 402.400390625 120.400390625 l 5
 415.200195312 120.400390625 l 5
 415.200195312 170.799804688 l 5
 415.200195312 220.400390625 l 5
 402.400390625 220.400390625 l 5
 390 220.400390625 l 5
 390 233.200195312 l 5
 390 245.599609375 l 5
 364.799804688 245.599609375 l 5
 340 245.599609375 l 5
 340 258 l 5
 340 270.799804688 l 5
 352.400390625 270.799804688 l 5
 364.799804688 270.799804688 l 5
 364.799804688 283.200195312 l 5
 364.799804688 295.599609375 l 5
 377.599609375 295.599609375 l 5
 390 295.599609375 l 5
 390 308 l 5
 390 320.400390625 l 5
 352.400390625 320.400390625 l 5
340 220.400390625 m 5
 364.799804688 220.400390625 l 5
 364.799804688 170.799804688 l 5
 364.799804688 120.400390625 l 5
 340 120.400390625 l 5
 315.200195312 120.400390625 l 5
 315.200195312 170.799804688 l 5
 315.200195312 220.400390625 l 5
 340 220.400390625 l 5
165.299804688 315.400390625 m 1
 115.700195312 315.400390625 l 1
 115.700195312 303 l 1
 115.700195312 290.599609375 l 1
 102.900390625 290.599609375 l 1
 90.5 290.599609375 l 1
 90.5 203 l 1
 90.5 115.400390625 l 1
 102.900390625 115.400390625 l 1
 115.700195312 115.400390625 l 1
 115.700195312 103 l 1
 115.700195312 90.599609375 l 1
 165.299804688 90.599609375 l 1
 215.700195312 90.599609375 l 1
 215.700195312 103 l 1
 215.700195312 115.400390625 l 1
 228.099609375 115.400390625 l 1
 240.5 115.400390625 l 1
 240.5 203 l 1
 240.5 290.599609375 l 1
 228.099609375 290.599609375 l 1
 215.700195312 290.599609375 l 1
 215.700195312 303 l 1
 215.700195312 315.400390625 l 1
 165.299804688 315.400390625 l 1
165.299804688 290.599609375 m 1
 190.5 290.599609375 l 1
 190.5 278.200195312 l 1
 190.5 267.799804688 l 1
 188.900390625 265.799804688 l 0
 178.099609375 265.799804688 l 1
 167.299804688 265.799804688 l 1
 165.299804688 263.400390625 l 0
 165.299804688 240.599609375 l 1
 164.900390625 217.799804688 l 1
 167.700195312 215.400390625 l 0
 178.099609375 215.400390625 l 1
 187.700195312 215.400390625 l 0
 190.5 213 l 1
 190.5 165.799804688 l 1
 190.5 119 l 1
 186.900390625 115.400390625 l 0
 165.299804688 115.400390625 l 1
 140.5 115.400390625 l 1
 140.5 128.200195312 l 1
 140.5 137 l 0
 143.700195312 140.599609375 l 1
 152.900390625 140.599609375 l 1
 162.5 140.599609375 l 1
 165.299804688 143.400390625 l 0
 165.299804688 165.799804688 l 1
 165.299804688 184.599609375 l 0
 165.299804688 187.400390625 l 1
 161.700195312 190.599609375 l 0
 152.900390625 190.599609375 l 1
 140.5 190.599609375 l 1
 140.5 240.599609375 l 1
 140.5 290.599609375 l 1
 165.299804688 290.599609375 l 1
287 569.400390625 m 1
 261.799804688 569.400390625 l 1
 261.799804688 544.599609375 l 1
 261.799804688 519.799804688 l 1
 274.599609375 519.799804688 l 1
 287 519.799804688 l 1
 287 507 l 1
 287 494.599609375 l 1
 299.400390625 494.599609375 l 1
 312.200195312 494.599609375 l 1
 312.200195312 469.400390625 l 1
 312.200195312 444.599609375 l 1
 299.400390625 444.599609375 l 1
 287 444.599609375 l 1
 287 432.200195312 l 1
 287 419.799804688 l 1
 274.599609375 419.799804688 l 1
 261.799804688 419.799804688 l 1
 261.799804688 382.200195312 l 1
 261.799804688 344.599609375 l 1
 287 344.599609375 l 1
 312.200195312 344.599609375 l 1
 312.200195312 394.599609375 l 1
 312.200195312 444.599609375 l 1
 324.599609375 444.599609375 l 1
 337 444.599609375 l 1
 337 432.200195312 l 1
 337 419.799804688 l 1
 349.400390625 419.799804688 l 1
 361.799804688 419.799804688 l 1
 361.799804688 382.200195312 l 1
 361.799804688 344.599609375 l 1
 387 344.599609375 l 1
 412.200195312 344.599609375 l 1
 412.200195312 382.200195312 l 1
 412.200195312 419.799804688 l 1
 399.400390625 419.799804688 l 1
 387 419.799804688 l 1
 387 432.200195312 l 1
 387 444.599609375 l 1
 374.599609375 444.599609375 l 1
 361.799804688 444.599609375 l 1
 361.799804688 469.400390625 l 1
 361.799804688 494.599609375 l 1
 374.599609375 494.599609375 l 1
 387 494.599609375 l 1
 387 507 l 1
 387 519.799804688 l 1
 399.400390625 519.799804688 l 1
 412.200195312 519.799804688 l 1
 412.200195312 544.599609375 l 1
 412.200195312 569.400390625 l 1
 387 569.400390625 l 1
 361.799804688 569.400390625 l 1
 361.799804688 532.200195312 l 1
 361.799804688 494.599609375 l 1
 349.400390625 494.599609375 l 1
 337 494.599609375 l 1
 337 507 l 1
 337 519.799804688 l 1
 324.599609375 519.799804688 l 1
 312.200195312 519.799804688 l 1
 312.200195312 544.599609375 l 1
 312.200195312 569.400390625 l 1
 287 569.400390625 l 1
165.299804688 572.400390625 m 1
 115.700195312 572.400390625 l 1
 115.700195312 560 l 1
 115.700195312 547.599609375 l 1
 102.900390625 547.599609375 l 1
 90.5 547.599609375 l 1
 90.5 460 l 1
 90.5 372.400390625 l 1
 102.900390625 372.400390625 l 1
 115.700195312 372.400390625 l 1
 115.700195312 360 l 1
 115.700195312 347.599609375 l 1
 165.299804688 347.599609375 l 1
 215.700195312 347.599609375 l 1
 215.700195312 360 l 1
 215.700195312 372.400390625 l 1
 228.099609375 372.400390625 l 1
 240.5 372.400390625 l 1
 240.5 460 l 1
 240.5 547.599609375 l 1
 228.099609375 547.599609375 l 1
 215.700195312 547.599609375 l 1
 215.700195312 560 l 1
 215.700195312 572.400390625 l 1
 165.299804688 572.400390625 l 1
165.299804688 547.599609375 m 1
 190.5 547.599609375 l 1
 190.5 535.200195312 l 1
 190.5 524.799804688 l 1
 188.900390625 522.799804688 l 0
 178.099609375 522.799804688 l 1
 167.299804688 522.799804688 l 1
 165.299804688 520.400390625 l 0
 165.299804688 497.599609375 l 1
 164.900390625 474.799804688 l 1
 167.700195312 472.400390625 l 0
 178.099609375 472.400390625 l 1
 187.700195312 472.400390625 l 0
 190.5 470 l 1
 190.5 422.799804688 l 1
 190.5 376 l 1
 186.900390625 372.400390625 l 0
 165.299804688 372.400390625 l 1
 140.5 372.400390625 l 1
 140.5 385.200195312 l 1
 140.5 394 l 0
 143.700195312 397.599609375 l 1
 152.900390625 397.599609375 l 1
 162.5 397.599609375 l 1
 165.299804688 400.400390625 l 0
 165.299804688 422.799804688 l 1
 165.299804688 441.599609375 l 0
 165.299804688 444.400390625 l 1
 161.700195312 447.599609375 l 0
 152.900390625 447.599609375 l 1
 140.5 447.599609375 l 1
 140.5 497.599609375 l 1
 140.5 547.599609375 l 1
 165.299804688 547.599609375 l 1
250 612 m 1
 433 612 l 0
 438 607 l 1
 438 331 l 1
 438 55 l 1
 433 50 l 0
 250 50 l 1
 67 50 l 1
 62 55 l 0
 62 331 l 1
 62 607 l 1
 67 612 l 0
 250 612 l 1
EndSplineSet
EndChar

StartChar: uni0007
Encoding: 7 7 203
Width: 500
Flags: HW
LayerCount: 2
Fore
SplineSet
341 322.400390625 m 5
 265.799804688 322.400390625 l 5
 265.799804688 310 l 5
 265.799804688 297.599609375 l 5
 316.200195312 297.599609375 l 5
 365.799804688 297.599609375 l 5
 365.799804688 285.200195312 l 5
 365.799804688 272.799804688 l 5
 353.400390625 272.799804688 l 5
 341 272.799804688 l 5
 341 247.599609375 l 5
 341 222.400390625 l 5
 328.599609375 222.400390625 l 5
 316.200195312 222.400390625 l 5
 316.200195312 197.599609375 l 5
 316.200195312 172.799804688 l 5
 303.400390625 172.799804688 l 5
 291 172.799804688 l 5
 291 135.200195312 l 5
 291 97.599609375 l 5
 316.200195312 97.599609375 l 5
 341 97.599609375 l 5
 341 135.200195312 l 5
 341 172.799804688 l 5
 353.400390625 172.799804688 l 5
 365.799804688 172.799804688 l 5
 365.799804688 197.599609375 l 5
 365.799804688 222.400390625 l 5
 378.599609375 222.400390625 l 5
 391 222.400390625 l 5
 391 247.599609375 l 5
 391 272.799804688 l 5
 403.400390625 272.799804688 l 5
 416.200195312 272.799804688 l 5
 416.200195312 297.599609375 l 5
 416.200195312 322.400390625 l 5
 341 322.400390625 l 5
165.299804688 315.400390625 m 1
 115.700195312 315.400390625 l 1
 115.700195312 303 l 1
 115.700195312 290.599609375 l 1
 102.900390625 290.599609375 l 1
 90.5 290.599609375 l 1
 90.5 203 l 1
 90.5 115.400390625 l 1
 102.900390625 115.400390625 l 1
 115.700195312 115.400390625 l 1
 115.700195312 103 l 1
 115.700195312 90.599609375 l 1
 165.299804688 90.599609375 l 1
 215.700195312 90.599609375 l 1
 215.700195312 103 l 1
 215.700195312 115.400390625 l 1
 228.099609375 115.400390625 l 1
 240.5 115.400390625 l 1
 240.5 203 l 1
 240.5 290.599609375 l 1
 228.099609375 290.599609375 l 1
 215.700195312 290.599609375 l 1
 215.700195312 303 l 1
 215.700195312 315.400390625 l 1
 165.299804688 315.400390625 l 1
165.299804688 290.599609375 m 1
 190.5 290.599609375 l 1
 190.5 278.200195312 l 1
 190.5 267.799804688 l 1
 188.900390625 265.799804688 l 0
 178.099609375 265.799804688 l 1
 167.299804688 265.799804688 l 1
 165.299804688 263.400390625 l 0
 165.299804688 240.599609375 l 1
 164.900390625 217.799804688 l 1
 167.700195312 215.400390625 l 0
 178.099609375 215.400390625 l 1
 187.700195312 215.400390625 l 0
 190.5 213 l 1
 190.5 165.799804688 l 1
 190.5 119 l 1
 186.900390625 115.400390625 l 0
 165.299804688 115.400390625 l 1
 140.5 115.400390625 l 1
 140.5 128.200195312 l 1
 140.5 137 l 0
 143.700195312 140.599609375 l 1
 152.900390625 140.599609375 l 1
 162.5 140.599609375 l 1
 165.299804688 143.400390625 l 0
 165.299804688 165.799804688 l 1
 165.299804688 184.599609375 l 0
 165.299804688 187.400390625 l 1
 161.700195312 190.599609375 l 0
 152.900390625 190.599609375 l 1
 140.5 190.599609375 l 1
 140.5 240.599609375 l 1
 140.5 290.599609375 l 1
 165.299804688 290.599609375 l 1
287 569.400390625 m 1
 261.799804688 569.400390625 l 1
 261.799804688 544.599609375 l 1
 261.799804688 519.799804688 l 1
 274.599609375 519.799804688 l 1
 287 519.799804688 l 1
 287 507 l 1
 287 494.599609375 l 1
 299.400390625 494.599609375 l 1
 312.200195312 494.599609375 l 1
 312.200195312 469.400390625 l 1
 312.200195312 444.599609375 l 1
 299.400390625 444.599609375 l 1
 287 444.599609375 l 1
 287 432.200195312 l 1
 287 419.799804688 l 1
 274.599609375 419.799804688 l 1
 261.799804688 419.799804688 l 1
 261.799804688 382.200195312 l 1
 261.799804688 344.599609375 l 1
 287 344.599609375 l 1
 312.200195312 344.599609375 l 1
 312.200195312 394.599609375 l 1
 312.200195312 444.599609375 l 1
 324.599609375 444.599609375 l 1
 337 444.599609375 l 1
 337 432.200195312 l 1
 337 419.799804688 l 1
 349.400390625 419.799804688 l 1
 361.799804688 419.799804688 l 1
 361.799804688 382.200195312 l 1
 361.799804688 344.599609375 l 1
 387 344.599609375 l 1
 412.200195312 344.599609375 l 1
 412.200195312 382.200195312 l 1
 412.200195312 419.799804688 l 1
 399.400390625 419.799804688 l 1
 387 419.799804688 l 1
 387 432.200195312 l 1
 387 444.599609375 l 1
 374.599609375 444.599609375 l 1
 361.799804688 444.599609375 l 1
 361.799804688 469.400390625 l 1
 361.799804688 494.599609375 l 1
 374.599609375 494.599609375 l 1
 387 494.599609375 l 1
 387 507 l 1
 387 519.799804688 l 1
 399.400390625 519.799804688 l 1
 412.200195312 519.799804688 l 1
 412.200195312 544.599609375 l 1
 412.200195312 569.400390625 l 1
 387 569.400390625 l 1
 361.799804688 569.400390625 l 1
 361.799804688 532.200195312 l 1
 361.799804688 494.599609375 l 1
 349.400390625 494.599609375 l 1
 337 494.599609375 l 1
 337 507 l 1
 337 519.799804688 l 1
 324.599609375 519.799804688 l 1
 312.200195312 519.799804688 l 1
 312.200195312 544.599609375 l 1
 312.200195312 569.400390625 l 1
 287 569.400390625 l 1
165.299804688 572.400390625 m 1
 115.700195312 572.400390625 l 1
 115.700195312 560 l 1
 115.700195312 547.599609375 l 1
 102.900390625 547.599609375 l 1
 90.5 547.599609375 l 1
 90.5 460 l 1
 90.5 372.400390625 l 1
 102.900390625 372.400390625 l 1
 115.700195312 372.400390625 l 1
 115.700195312 360 l 1
 115.700195312 347.599609375 l 1
 165.299804688 347.599609375 l 1
 215.700195312 347.599609375 l 1
 215.700195312 360 l 1
 215.700195312 372.400390625 l 1
 228.099609375 372.400390625 l 1
 240.5 372.400390625 l 1
 240.5 460 l 1
 240.5 547.599609375 l 1
 228.099609375 547.599609375 l 1
 215.700195312 547.599609375 l 1
 215.700195312 560 l 1
 215.700195312 572.400390625 l 1
 165.299804688 572.400390625 l 1
165.299804688 547.599609375 m 1
 190.5 547.599609375 l 1
 190.5 535.200195312 l 1
 190.5 524.799804688 l 1
 188.900390625 522.799804688 l 0
 178.099609375 522.799804688 l 1
 167.299804688 522.799804688 l 1
 165.299804688 520.400390625 l 0
 165.299804688 497.599609375 l 1
 164.900390625 474.799804688 l 1
 167.700195312 472.400390625 l 0
 178.099609375 472.400390625 l 1
 187.700195312 472.400390625 l 0
 190.5 470 l 1
 190.5 422.799804688 l 1
 190.5 376 l 1
 186.900390625 372.400390625 l 0
 165.299804688 372.400390625 l 1
 140.5 372.400390625 l 1
 140.5 385.200195312 l 1
 140.5 394 l 0
 143.700195312 397.599609375 l 1
 152.900390625 397.599609375 l 1
 162.5 397.599609375 l 1
 165.299804688 400.400390625 l 0
 165.299804688 422.799804688 l 1
 165.299804688 441.599609375 l 0
 165.299804688 444.400390625 l 1
 161.700195312 447.599609375 l 0
 152.900390625 447.599609375 l 1
 140.5 447.599609375 l 1
 140.5 497.599609375 l 1
 140.5 547.599609375 l 1
 165.299804688 547.599609375 l 1
250 612 m 1
 433 612 l 0
 438 607 l 1
 438 331 l 1
 438 55 l 1
 433 50 l 0
 250 50 l 1
 67 50 l 1
 62 55 l 0
 62 331 l 1
 62 607 l 1
 67 612 l 0
 250 612 l 1
EndSplineSet
EndChar

StartChar: uni0008
Encoding: 8 8 204
Width: 500
Flags: HW
LayerCount: 2
Fore
SplineSet
338 324.400390625 m 5
 288 324.400390625 l 5
 288 312 l 5
 288 299.599609375 l 5
 275.599609375 299.599609375 l 5
 262.799804688 299.599609375 l 5
 262.799804688 262 l 5
 262.799804688 224.400390625 l 5
 275.599609375 224.400390625 l 5
 288 224.400390625 l 5
 288 212 l 5
 288 199.599609375 l 5
 275.599609375 199.599609375 l 5
 262.799804688 199.599609375 l 5
 262.799804688 162 l 5
 262.799804688 124.400390625 l 5
 275.599609375 124.400390625 l 5
 288 124.400390625 l 5
 288 112 l 5
 288 99.599609375 l 5
 338 99.599609375 l 5
 388 99.599609375 l 5
 388 112 l 5
 388 124.400390625 l 5
 400.400390625 124.400390625 l 5
 413.200195312 124.400390625 l 5
 413.200195312 162 l 5
 413.200195312 199.599609375 l 5
 400.400390625 199.599609375 l 5
 388 199.599609375 l 5
 388 212 l 5
 388 224.400390625 l 5
 400.400390625 224.400390625 l 5
 413.200195312 224.400390625 l 5
 413.200195312 262 l 5
 413.200195312 299.599609375 l 5
 400.400390625 299.599609375 l 5
 388 299.599609375 l 5
 388 312 l 5
 388 324.400390625 l 5
 338 324.400390625 l 5
338 299.599609375 m 5
 362.799804688 299.599609375 l 5
 362.799804688 262 l 5
 362.799804688 224.400390625 l 5
 350.400390625 224.400390625 l 5
 338 224.400390625 l 5
 338 237.200195312 l 5
 338 249.599609375 l 5
 325.599609375 249.599609375 l 5
 313.200195312 249.599609375 l 5
 313.200195312 274.799804688 l 5
 313.200195312 299.599609375 l 5
 338 299.599609375 l 5
325.599609375 199.599609375 m 5
 338 199.599609375 l 5
 338 187.200195312 l 5
 338 174.799804688 l 5
 350.400390625 174.799804688 l 5
 362.799804688 174.799804688 l 5
 362.799804688 149.599609375 l 5
 362.799804688 124.400390625 l 5
 338 124.400390625 l 5
 313.200195312 124.400390625 l 5
 313.200195312 162 l 5
 313.200195312 199.599609375 l 5
 325.599609375 199.599609375 l 5
165.299804688 315.400390625 m 1
 115.700195312 315.400390625 l 1
 115.700195312 303 l 1
 115.700195312 290.599609375 l 1
 102.900390625 290.599609375 l 1
 90.5 290.599609375 l 1
 90.5 203 l 1
 90.5 115.400390625 l 1
 102.900390625 115.400390625 l 1
 115.700195312 115.400390625 l 1
 115.700195312 103 l 1
 115.700195312 90.599609375 l 1
 165.299804688 90.599609375 l 1
 215.700195312 90.599609375 l 1
 215.700195312 103 l 1
 215.700195312 115.400390625 l 1
 228.099609375 115.400390625 l 1
 240.5 115.400390625 l 1
 240.5 203 l 1
 240.5 290.599609375 l 1
 228.099609375 290.599609375 l 1
 215.700195312 290.599609375 l 1
 215.700195312 303 l 1
 215.700195312 315.400390625 l 1
 165.299804688 315.400390625 l 1
165.299804688 290.599609375 m 1
 190.5 290.599609375 l 1
 190.5 278.200195312 l 1
 190.5 267.799804688 l 1
 188.900390625 265.799804688 l 0
 178.099609375 265.799804688 l 1
 167.299804688 265.799804688 l 1
 165.299804688 263.400390625 l 0
 165.299804688 240.599609375 l 1
 164.900390625 217.799804688 l 1
 167.700195312 215.400390625 l 0
 178.099609375 215.400390625 l 1
 187.700195312 215.400390625 l 0
 190.5 213 l 1
 190.5 165.799804688 l 1
 190.5 119 l 1
 186.900390625 115.400390625 l 0
 165.299804688 115.400390625 l 1
 140.5 115.400390625 l 1
 140.5 128.200195312 l 1
 140.5 137 l 0
 143.700195312 140.599609375 l 1
 152.900390625 140.599609375 l 1
 162.5 140.599609375 l 1
 165.299804688 143.400390625 l 0
 165.299804688 165.799804688 l 1
 165.299804688 184.599609375 l 0
 165.299804688 187.400390625 l 1
 161.700195312 190.599609375 l 0
 152.900390625 190.599609375 l 1
 140.5 190.599609375 l 1
 140.5 240.599609375 l 1
 140.5 290.599609375 l 1
 165.299804688 290.599609375 l 1
287 569.400390625 m 1
 261.799804688 569.400390625 l 1
 261.799804688 544.599609375 l 1
 261.799804688 519.799804688 l 1
 274.599609375 519.799804688 l 1
 287 519.799804688 l 1
 287 507 l 1
 287 494.599609375 l 1
 299.400390625 494.599609375 l 1
 312.200195312 494.599609375 l 1
 312.200195312 469.400390625 l 1
 312.200195312 444.599609375 l 1
 299.400390625 444.599609375 l 1
 287 444.599609375 l 1
 287 432.200195312 l 1
 287 419.799804688 l 1
 274.599609375 419.799804688 l 1
 261.799804688 419.799804688 l 1
 261.799804688 382.200195312 l 1
 261.799804688 344.599609375 l 1
 287 344.599609375 l 1
 312.200195312 344.599609375 l 1
 312.200195312 394.599609375 l 1
 312.200195312 444.599609375 l 1
 324.599609375 444.599609375 l 1
 337 444.599609375 l 1
 337 432.200195312 l 1
 337 419.799804688 l 1
 349.400390625 419.799804688 l 1
 361.799804688 419.799804688 l 1
 361.799804688 382.200195312 l 1
 361.799804688 344.599609375 l 1
 387 344.599609375 l 1
 412.200195312 344.599609375 l 1
 412.200195312 382.200195312 l 1
 412.200195312 419.799804688 l 1
 399.400390625 419.799804688 l 1
 387 419.799804688 l 1
 387 432.200195312 l 1
 387 444.599609375 l 1
 374.599609375 444.599609375 l 1
 361.799804688 444.599609375 l 1
 361.799804688 469.400390625 l 1
 361.799804688 494.599609375 l 1
 374.599609375 494.599609375 l 1
 387 494.599609375 l 1
 387 507 l 1
 387 519.799804688 l 1
 399.400390625 519.799804688 l 1
 412.200195312 519.799804688 l 1
 412.200195312 544.599609375 l 1
 412.200195312 569.400390625 l 1
 387 569.400390625 l 1
 361.799804688 569.400390625 l 1
 361.799804688 532.200195312 l 1
 361.799804688 494.599609375 l 1
 349.400390625 494.599609375 l 1
 337 494.599609375 l 1
 337 507 l 1
 337 519.799804688 l 1
 324.599609375 519.799804688 l 1
 312.200195312 519.799804688 l 1
 312.200195312 544.599609375 l 1
 312.200195312 569.400390625 l 1
 287 569.400390625 l 1
165.299804688 572.400390625 m 1
 115.700195312 572.400390625 l 1
 115.700195312 560 l 1
 115.700195312 547.599609375 l 1
 102.900390625 547.599609375 l 1
 90.5 547.599609375 l 1
 90.5 460 l 1
 90.5 372.400390625 l 1
 102.900390625 372.400390625 l 1
 115.700195312 372.400390625 l 1
 115.700195312 360 l 1
 115.700195312 347.599609375 l 1
 165.299804688 347.599609375 l 1
 215.700195312 347.599609375 l 1
 215.700195312 360 l 1
 215.700195312 372.400390625 l 1
 228.099609375 372.400390625 l 1
 240.5 372.400390625 l 1
 240.5 460 l 1
 240.5 547.599609375 l 1
 228.099609375 547.599609375 l 1
 215.700195312 547.599609375 l 1
 215.700195312 560 l 1
 215.700195312 572.400390625 l 1
 165.299804688 572.400390625 l 1
165.299804688 547.599609375 m 1
 190.5 547.599609375 l 1
 190.5 535.200195312 l 1
 190.5 524.799804688 l 1
 188.900390625 522.799804688 l 0
 178.099609375 522.799804688 l 1
 167.299804688 522.799804688 l 1
 165.299804688 520.400390625 l 0
 165.299804688 497.599609375 l 1
 164.900390625 474.799804688 l 1
 167.700195312 472.400390625 l 0
 178.099609375 472.400390625 l 1
 187.700195312 472.400390625 l 0
 190.5 470 l 1
 190.5 422.799804688 l 1
 190.5 376 l 1
 186.900390625 372.400390625 l 0
 165.299804688 372.400390625 l 1
 140.5 372.400390625 l 1
 140.5 385.200195312 l 1
 140.5 394 l 0
 143.700195312 397.599609375 l 1
 152.900390625 397.599609375 l 1
 162.5 397.599609375 l 1
 165.299804688 400.400390625 l 0
 165.299804688 422.799804688 l 1
 165.299804688 441.599609375 l 0
 165.299804688 444.400390625 l 1
 161.700195312 447.599609375 l 0
 152.900390625 447.599609375 l 1
 140.5 447.599609375 l 1
 140.5 497.599609375 l 1
 140.5 547.599609375 l 1
 165.299804688 547.599609375 l 1
250 612 m 1
 433 612 l 0
 438 607 l 1
 438 331 l 1
 438 55 l 1
 433 50 l 0
 250 50 l 1
 67 50 l 1
 62 55 l 0
 62 331 l 1
 62 607 l 1
 67 612 l 0
 250 612 l 1
EndSplineSet
EndChar

StartChar: uni0009
Encoding: 9 9 205
Width: 500
Flags: HW
LayerCount: 2
Fore
SplineSet
337 322.400390625 m 5
 287 322.400390625 l 5
 287 310 l 5
 287 297.599609375 l 5
 274.599609375 297.599609375 l 5
 261.799804688 297.599609375 l 5
 261.799804688 247.599609375 l 5
 261.799804688 197.599609375 l 5
 274.599609375 197.599609375 l 5
 287 197.599609375 l 5
 287 185.200195312 l 5
 287 172.799804688 l 5
 312.200195312 172.799804688 l 5
 337 172.799804688 l 5
 337 160 l 5
 337 147.599609375 l 5
 324.599609375 147.599609375 l 5
 312.200195312 147.599609375 l 5
 312.200195312 135.200195312 l 5
 312.200195312 122.400390625 l 5
 299.400390625 122.400390625 l 5
 287 122.400390625 l 5
 287 110 l 5
 287 97.599609375 l 5
 324.599609375 97.599609375 l 5
 361.799804688 97.599609375 l 5
 361.799804688 122.400390625 l 5
 361.799804688 147.599609375 l 5
 374.599609375 147.599609375 l 5
 387 147.599609375 l 5
 387 160 l 5
 387 172.799804688 l 5
 399.400390625 172.799804688 l 5
 412.200195312 172.799804688 l 5
 412.200195312 235.200195312 l 5
 412.200195312 297.599609375 l 5
 399.400390625 297.599609375 l 5
 387 297.599609375 l 5
 387 310 l 5
 387 322.400390625 l 5
 337 322.400390625 l 5
337 297.599609375 m 5
 361.799804688 297.599609375 l 5
 361.799804688 247.599609375 l 5
 361.799804688 197.599609375 l 5
 337 197.599609375 l 5
 312.200195312 197.599609375 l 5
 312.200195312 247.599609375 l 5
 312.200195312 297.599609375 l 5
 337 297.599609375 l 5
165.299804688 315.400390625 m 1
 115.700195312 315.400390625 l 1
 115.700195312 303 l 1
 115.700195312 290.599609375 l 1
 102.900390625 290.599609375 l 1
 90.5 290.599609375 l 1
 90.5 203 l 1
 90.5 115.400390625 l 1
 102.900390625 115.400390625 l 1
 115.700195312 115.400390625 l 1
 115.700195312 103 l 1
 115.700195312 90.599609375 l 1
 165.299804688 90.599609375 l 1
 215.700195312 90.599609375 l 1
 215.700195312 103 l 1
 215.700195312 115.400390625 l 1
 228.099609375 115.400390625 l 1
 240.5 115.400390625 l 1
 240.5 203 l 1
 240.5 290.599609375 l 1
 228.099609375 290.599609375 l 1
 215.700195312 290.599609375 l 1
 215.700195312 303 l 1
 215.700195312 315.400390625 l 1
 165.299804688 315.400390625 l 1
165.299804688 290.599609375 m 1
 190.5 290.599609375 l 1
 190.5 278.200195312 l 1
 190.5 267.799804688 l 1
 188.900390625 265.799804688 l 0
 178.099609375 265.799804688 l 1
 167.299804688 265.799804688 l 1
 165.299804688 263.400390625 l 0
 165.299804688 240.599609375 l 1
 164.900390625 217.799804688 l 1
 167.700195312 215.400390625 l 0
 178.099609375 215.400390625 l 1
 187.700195312 215.400390625 l 0
 190.5 213 l 1
 190.5 165.799804688 l 1
 190.5 119 l 1
 186.900390625 115.400390625 l 0
 165.299804688 115.400390625 l 1
 140.5 115.400390625 l 1
 140.5 128.200195312 l 1
 140.5 137 l 0
 143.700195312 140.599609375 l 1
 152.900390625 140.599609375 l 1
 162.5 140.599609375 l 1
 165.299804688 143.400390625 l 0
 165.299804688 165.799804688 l 1
 165.299804688 184.599609375 l 0
 165.299804688 187.400390625 l 1
 161.700195312 190.599609375 l 0
 152.900390625 190.599609375 l 1
 140.5 190.599609375 l 1
 140.5 240.599609375 l 1
 140.5 290.599609375 l 1
 165.299804688 290.599609375 l 1
287 569.400390625 m 1
 261.799804688 569.400390625 l 1
 261.799804688 544.599609375 l 1
 261.799804688 519.799804688 l 1
 274.599609375 519.799804688 l 1
 287 519.799804688 l 1
 287 507 l 1
 287 494.599609375 l 1
 299.400390625 494.599609375 l 1
 312.200195312 494.599609375 l 1
 312.200195312 469.400390625 l 1
 312.200195312 444.599609375 l 1
 299.400390625 444.599609375 l 1
 287 444.599609375 l 1
 287 432.200195312 l 1
 287 419.799804688 l 1
 274.599609375 419.799804688 l 1
 261.799804688 419.799804688 l 1
 261.799804688 382.200195312 l 1
 261.799804688 344.599609375 l 1
 287 344.599609375 l 1
 312.200195312 344.599609375 l 1
 312.200195312 394.599609375 l 1
 312.200195312 444.599609375 l 1
 324.599609375 444.599609375 l 1
 337 444.599609375 l 1
 337 432.200195312 l 1
 337 419.799804688 l 1
 349.400390625 419.799804688 l 1
 361.799804688 419.799804688 l 1
 361.799804688 382.200195312 l 1
 361.799804688 344.599609375 l 1
 387 344.599609375 l 1
 412.200195312 344.599609375 l 1
 412.200195312 382.200195312 l 1
 412.200195312 419.799804688 l 1
 399.400390625 419.799804688 l 1
 387 419.799804688 l 1
 387 432.200195312 l 1
 387 444.599609375 l 1
 374.599609375 444.599609375 l 1
 361.799804688 444.599609375 l 1
 361.799804688 469.400390625 l 1
 361.799804688 494.599609375 l 1
 374.599609375 494.599609375 l 1
 387 494.599609375 l 1
 387 507 l 1
 387 519.799804688 l 1
 399.400390625 519.799804688 l 1
 412.200195312 519.799804688 l 1
 412.200195312 544.599609375 l 1
 412.200195312 569.400390625 l 1
 387 569.400390625 l 1
 361.799804688 569.400390625 l 1
 361.799804688 532.200195312 l 1
 361.799804688 494.599609375 l 1
 349.400390625 494.599609375 l 1
 337 494.599609375 l 1
 337 507 l 1
 337 519.799804688 l 1
 324.599609375 519.799804688 l 1
 312.200195312 519.799804688 l 1
 312.200195312 544.599609375 l 1
 312.200195312 569.400390625 l 1
 287 569.400390625 l 1
165.299804688 572.400390625 m 1
 115.700195312 572.400390625 l 1
 115.700195312 560 l 1
 115.700195312 547.599609375 l 1
 102.900390625 547.599609375 l 1
 90.5 547.599609375 l 1
 90.5 460 l 1
 90.5 372.400390625 l 1
 102.900390625 372.400390625 l 1
 115.700195312 372.400390625 l 1
 115.700195312 360 l 1
 115.700195312 347.599609375 l 1
 165.299804688 347.599609375 l 1
 215.700195312 347.599609375 l 1
 215.700195312 360 l 1
 215.700195312 372.400390625 l 1
 228.099609375 372.400390625 l 1
 240.5 372.400390625 l 1
 240.5 460 l 1
 240.5 547.599609375 l 1
 228.099609375 547.599609375 l 1
 215.700195312 547.599609375 l 1
 215.700195312 560 l 1
 215.700195312 572.400390625 l 1
 165.299804688 572.400390625 l 1
165.299804688 547.599609375 m 1
 190.5 547.599609375 l 1
 190.5 535.200195312 l 1
 190.5 524.799804688 l 1
 188.900390625 522.799804688 l 0
 178.099609375 522.799804688 l 1
 167.299804688 522.799804688 l 1
 165.299804688 520.400390625 l 0
 165.299804688 497.599609375 l 1
 164.900390625 474.799804688 l 1
 167.700195312 472.400390625 l 0
 178.099609375 472.400390625 l 1
 187.700195312 472.400390625 l 0
 190.5 470 l 1
 190.5 422.799804688 l 1
 190.5 376 l 1
 186.900390625 372.400390625 l 0
 165.299804688 372.400390625 l 1
 140.5 372.400390625 l 1
 140.5 385.200195312 l 1
 140.5 394 l 0
 143.700195312 397.599609375 l 1
 152.900390625 397.599609375 l 1
 162.5 397.599609375 l 1
 165.299804688 400.400390625 l 0
 165.299804688 422.799804688 l 1
 165.299804688 441.599609375 l 0
 165.299804688 444.400390625 l 1
 161.700195312 447.599609375 l 0
 152.900390625 447.599609375 l 1
 140.5 447.599609375 l 1
 140.5 497.599609375 l 1
 140.5 547.599609375 l 1
 165.299804688 547.599609375 l 1
250 612 m 1
 433 612 l 0
 438 607 l 1
 438 331 l 1
 438 55 l 1
 433 50 l 0
 250 50 l 1
 67 50 l 1
 62 55 l 0
 62 331 l 1
 62 607 l 1
 67 612 l 0
 250 612 l 1
EndSplineSet
EndChar

